<svg width="1440" height="705" viewBox="0 0 1440 705" fill="none" xmlns="http://www.w3.org/2000/svg">
<g clip-path="url(#clip0_5461_15831)">
<rect width="1440" height="705" fill="white"/>
<path d="M-542.014 800.512L-149.013 238.03C-0.375113 25.3087 208.428 -138.162 450.604 -231.406L1091.25 -478.098" stroke="#6A8C3F" stroke-width="1.5" stroke-miterlimit="10" stroke-linecap="round"/>
<path d="M-514.092 836.177L-121.091 273.695C27.5468 60.9737 236.35 -102.497 478.525 -195.741L1119.17 -442.433" stroke="#6A8C3F" stroke-width="1.5" stroke-miterlimit="10" stroke-linecap="round"/>
<path d="M-486.17 871.842L-93.1689 309.36C55.4686 96.6383 264.272 -66.8324 506.447 -160.077L1147.09 -406.769" stroke="#6A8C3F" stroke-width="1.5" stroke-miterlimit="10" stroke-linecap="round"/>
<path d="M-458.248 907.507L-65.247 345.025C83.3905 132.303 292.193 -31.1674 534.369 -124.412L1175.02 -371.104" stroke="#6A8C3F" stroke-width="1.5" stroke-miterlimit="10" stroke-linecap="round"/>
<path d="M-431.877 941.191L-38.8759 378.709C109.762 165.987 318.564 2.51621 560.74 -90.7279L1201.36 -337.46" stroke="#6A8C3F" stroke-width="1.5" stroke-miterlimit="10" stroke-linecap="round"/>
<path d="M-403.956 976.856L-10.954 414.374C137.683 201.652 346.486 38.1813 588.662 -55.0629L1229.28 -301.795" stroke="#6A8C3F" stroke-width="1.5" stroke-miterlimit="10" stroke-linecap="round"/>
<path d="M-376.034 1012.52L16.9678 450.039C165.605 237.317 374.408 73.8464 616.584 -19.3977L1257.2 -266.13" stroke="#6A8C3F" stroke-width="1.5" stroke-miterlimit="10" stroke-linecap="round"/>
<path d="M-348.112 1048.19L44.8897 485.704C193.527 272.982 402.33 109.511 644.506 16.2673L1285.12 -230.465" stroke="#6A8C3F" stroke-width="1.5" stroke-miterlimit="10" stroke-linecap="round"/>
<path d="M-321.741 1081.87L71.2608 519.387C219.898 306.666 428.701 143.195 670.877 49.9509L1311.49 -196.781" stroke="#6A8C3F" stroke-width="1.5" stroke-miterlimit="10" stroke-linecap="round"/>
<path d="M-293.819 1117.53L99.1827 555.052C247.82 342.331 456.623 178.86 698.799 85.6159L1339.42 -161.116" stroke="#6A8C3F" stroke-width="1.5" stroke-miterlimit="10" stroke-linecap="round"/>
<path d="M-265.897 1153.2L127.105 590.717C275.742 377.996 484.545 214.525 726.721 121.281L1367.34 -125.451" stroke="#6A8C3F" stroke-width="1.5" stroke-miterlimit="10" stroke-linecap="round"/>
<path d="M-237.975 1188.86L155.026 626.382C303.664 413.66 512.467 250.19 754.643 156.946L1395.26 -89.7864" stroke="#6A8C3F" stroke-width="1.5" stroke-miterlimit="10" stroke-linecap="round"/>
<path d="M-211.604 1222.55L181.398 660.066C330.035 447.344 538.838 283.873 781.014 190.629L1421.63 -56.1028" stroke="#6A8C3F" stroke-width="1.5" stroke-miterlimit="10" stroke-linecap="round"/>
<path d="M-183.682 1258.21L209.319 695.731C357.957 483.009 566.76 319.538 808.936 226.294L1449.55 -20.4377" stroke="#6A8C3F" stroke-width="1.5" stroke-miterlimit="10" stroke-linecap="round"/>
<path d="M-155.76 1293.88L237.241 731.396C385.879 518.674 594.682 355.203 836.857 261.959L1477.47 15.2273" stroke="#6A8C3F" stroke-width="1.5" stroke-miterlimit="10" stroke-linecap="round"/>
<path d="M-127.838 1329.54L265.163 767.061C413.801 554.339 622.604 390.868 864.779 297.624L1505.43 50.932" stroke="#6A8C3F" stroke-width="1.5" stroke-miterlimit="10" stroke-linecap="round"/>
<path d="M-99.9164 1365.21L293.085 802.726C441.723 590.004 650.525 426.533 892.701 333.289L1533.35 86.597" stroke="#6A8C3F" stroke-width="1.5" stroke-miterlimit="10" stroke-linecap="round"/>
<path d="M-71.9945 1400.87L321.007 838.39C469.644 625.669 678.447 462.198 920.623 368.954L1561.27 122.262" stroke="#6A8C3F" stroke-width="1.5" stroke-miterlimit="10" stroke-linecap="round"/>
<path d="M-44.0727 1436.54L348.929 874.055C497.566 661.334 706.369 497.863 948.545 404.619L1589.19 157.927" stroke="#6A8C3F" stroke-width="1.5" stroke-miterlimit="10" stroke-linecap="round"/>
<path d="M-16.1508 1472.2L376.851 909.72C525.488 696.999 734.291 533.528 976.467 440.284L1617.11 193.592" stroke="#6A8C3F" stroke-width="1.5" stroke-miterlimit="10" stroke-linecap="round"/>
<path d="M10.2203 1505.89L403.222 943.404C551.859 730.682 760.662 567.212 1002.84 473.968L1643.49 227.275" stroke="#6A8C3F" stroke-width="1.5" stroke-miterlimit="10" stroke-linecap="round"/>
<path d="M38.1422 1541.55L431.144 979.069C579.781 766.347 788.584 602.877 1030.76 509.633L1671.41 262.94" stroke="#6A8C3F" stroke-width="1.5" stroke-miterlimit="10" stroke-linecap="round"/>
<path d="M66.064 1577.22L459.066 1014.73C607.703 802.013 816.506 638.542 1058.68 545.298L1699.33 298.605" stroke="#6A8C3F" stroke-width="1.5" stroke-miterlimit="10" stroke-linecap="round"/>
<path d="M93.9859 1612.88L486.987 1050.4C635.625 837.678 844.428 674.207 1086.6 580.963L1727.25 334.271" stroke="#6A8C3F" stroke-width="1.5" stroke-miterlimit="10" stroke-linecap="round"/>
<path d="M120.357 1646.56L513.358 1084.08C661.996 871.361 870.799 707.89 1112.97 614.646L1753.62 367.954" stroke="#6A8C3F" stroke-width="1.5" stroke-miterlimit="10" stroke-linecap="round"/>
<path d="M148.279 1682.23L541.28 1119.75C689.918 907.026 898.721 743.555 1140.9 650.311L1781.54 403.619" stroke="#6A8C3F" stroke-width="1.5" stroke-miterlimit="10" stroke-linecap="round"/>
<path d="M176.201 1717.89L569.202 1155.41C717.84 942.691 926.643 779.22 1168.82 685.976L1809.47 439.284" stroke="#6A8C3F" stroke-width="1.5" stroke-miterlimit="10" stroke-linecap="round"/>
<path d="M204.123 1753.56L597.124 1191.08C745.762 978.356 954.564 814.885 1196.74 721.641L1837.39 474.949" stroke="#6A8C3F" stroke-width="1.5" stroke-miterlimit="10" stroke-linecap="round"/>
<path d="M230.494 1787.24L623.495 1224.76C772.133 1012.04 980.936 848.569 1223.11 755.325L1863.76 508.632" stroke="#6A8C3F" stroke-width="1.5" stroke-miterlimit="10" stroke-linecap="round"/>
<path d="M258.412 1822.91L651.413 1260.43C800.051 1047.7 1008.85 884.234 1251.03 790.99L1891.68 544.297" stroke="#6A8C3F" stroke-width="1.5" stroke-miterlimit="10" stroke-linecap="round"/>
<path d="M286.338 1858.57L679.339 1296.09C827.976 1083.37 1036.78 919.899 1278.96 826.655L1919.6 579.962" stroke="#6A8C3F" stroke-width="1.5" stroke-miterlimit="10" stroke-linecap="round"/>
<path d="M314.255 1894.24L707.257 1331.76C855.894 1119.03 1064.7 955.564 1306.87 862.32L1947.52 615.627" stroke="#6A8C3F" stroke-width="1.5" stroke-miterlimit="10" stroke-linecap="round"/>
<path d="M335.545 1925.51L728.546 1363.03C877.183 1150.31 1085.99 986.836 1328.16 893.592L1968.81 646.9" stroke="#6A8C3F" stroke-width="1.5" stroke-miterlimit="10" stroke-linecap="round"/>
<path d="M363.466 1961.18L756.468 1398.69C905.105 1185.97 1113.91 1022.5 1356.08 929.257L1996.73 682.564" stroke="#6A8C3F" stroke-width="1.5" stroke-miterlimit="10" stroke-linecap="round"/>
<path d="M391.388 1996.84L784.39 1434.36C933.027 1221.64 1141.83 1058.17 1384.01 964.922L2024.65 718.229" stroke="#6A8C3F" stroke-width="1.5" stroke-miterlimit="10" stroke-linecap="round"/>
<path d="M419.31 2032.51L812.312 1470.02C960.949 1257.3 1169.75 1093.83 1411.93 1000.59L2052.58 753.895" stroke="#6A8C3F" stroke-width="1.5" stroke-miterlimit="10" stroke-linecap="round"/>
<path d="M445.681 2066.19L838.683 1503.71C987.32 1290.99 1196.12 1127.51 1438.3 1034.27L2078.95 787.578" stroke="#6A8C3F" stroke-width="1.5" stroke-miterlimit="10" stroke-linecap="round"/>
<path d="M473.603 2101.85L866.605 1539.37C1015.24 1326.65 1224.04 1163.18 1466.22 1069.94L2106.87 823.243" stroke="#6A8C3F" stroke-width="1.5" stroke-miterlimit="10" stroke-linecap="round"/>
<path d="M501.525 2137.52L894.526 1575.04C1043.16 1362.32 1251.97 1198.84 1494.14 1105.6L2134.79 858.908" stroke="#6A8C3F" stroke-width="1.5" stroke-miterlimit="10" stroke-linecap="round"/>
<path d="M529.447 2173.18L922.448 1610.7C1071.09 1397.98 1279.89 1234.51 1522.06 1141.27L2162.71 894.573" stroke="#6A8C3F" stroke-width="1.5" stroke-miterlimit="10" stroke-linecap="round"/>
</g>
<defs>
<clipPath id="clip0_5461_15831">
<rect width="1440" height="705" fill="white"/>
</clipPath>
</defs>
</svg>
