<svg width="1440" height="703" viewBox="0 0 1440 703" fill="none" xmlns="http://www.w3.org/2000/svg">
<g clip-path="url(#clip0_5556_11552)">
<path d="M1440 0H0V703H1440V0Z" fill="#B0E868"/>
<path d="M1022.5 734.8C1025 733.6 1047.3 726.2 1048.1 727.3C1048.6 728 1044.2 751.1 1043.5 751.8C1043.3 752.1 1027.5 739.5 1022.5 734.8ZM1146.3 229.1C1146.3 229 1141.4 219.7 1139.3 214.9C1139.2 214.6 1139 213.8 1138.9 213.3C1138.8 212.9 1138.6 212.6 1138.3 212.4C1138 212.2 1137.7 212.3 1137.5 212.5L1124.4 224.8C1124.2 225 1124.1 225.3 1124 225.6C1124 225.9 1124 226.3 1124.2 226.6C1124.3 226.7 1125.6 229.1 1126.3 230.2C1128.7 233.9 1132.8 242.3 1132.8 242.4C1133 242.7 1133.2 242.9 1133.5 243C1133.8 243 1134 242.9 1134.2 242.7C1134.2 242.7 1136 240.2 1136.9 239.1C1138.4 237.5 1139.9 235.9 1141.5 234.4C1142.7 233.2 1143.1 233 1143.6 232.8C1144.1 232.5 1144.7 232.3 1146.1 230.9C1146.5 230.4 1146.6 229.6 1146.3 229.1ZM-47.0001 770.3C-47.0001 769.6 -47.5001 769.1 -48.2001 769.1C-48.3001 769.1 -48.5001 769.1 -48.6001 769.2C-50.2001 769.4 -62.9001 769.3 -70.8001 769.2C-71.1001 769.2 -71.4001 769.3 -71.7001 769.6C-71.9001 769.8 -72.1001 770.1 -72.1001 770.5C-72.1001 770.7 -72.1001 775.4 -72.0001 776.4L-71.6001 790C-71.6001 790.3 -71.4001 790.6 -71.2001 790.9C-71.0001 791.1 -70.7001 791.2 -70.4001 791.2H-70.3001C-63.0001 790.5 -55.6001 790.3 -48.3001 790.6C-48.0001 790.6 -47.6001 790.5 -47.4001 790.3C-47.2001 790.1 -47.0001 789.7 -47.0001 789.4C-47.1001 783.3 -47.1001 776.2 -47.0001 770.3Z" fill="#FFFF77"/>
<path d="M91.1001 383.4C92.4001 380.9 105.4 361.4 106.7 361.8C107.5 362.1 118.2 383 118.2 383.9C118.1 384.2 97.9001 384 91.1001 383.4ZM516.4 711.8C516.3 711.7 509.7 703.6 506.7 699.3C506.5 699 506.2 698.3 506 697.8C505.8 697.4 505.6 697.1 505.3 697C505 696.9 504.7 697 504.5 697.3L494 712C493.8 712.2 493.8 712.5 493.8 712.9C493.8 713.2 494 713.6 494.2 713.8C494.3 713.9 496 716 497 716.9C500.1 720 505.8 727.4 505.9 727.5C506.1 727.8 506.4 727.9 506.7 727.9C507 727.9 507.2 727.7 507.3 727.4C507.3 727.4 508.5 724.6 509.3 723.3C510.4 721.4 511.6 719.6 512.8 717.8C513.7 716.4 514.1 716.1 514.5 715.8C515 715.4 515.5 715.1 516.6 713.4C516.9 713.1 516.8 712.3 516.4 711.8ZM647.5 179.9C648.1 180.1 648.8 179.7 648.9 179.1C648.9 179 648.9 178.9 648.9 178.7C649.1 177.3 651.7 166.1 653.4 159.2C653.5 158.9 653.4 158.6 653.2 158.4C653 158.1 652.7 158 652.4 157.9C652.2 157.9 647.7 156.8 646.7 156.6L633.3 153.9C633 153.8 632.6 153.9 632.4 154.1C632.2 154.3 632 154.5 631.9 154.7V154.8C631.1 161.3 629.7 167.9 628 174.2C627.9 174.5 628 174.8 628.2 175.1C628.4 175.4 628.7 175.5 629 175.6C634.8 176.9 641.7 178.5 647.5 179.9Z" fill="#55FFFF"/>
<path d="M619.6 472.7C618.1 472.7 616.8 471.9 616.1 470.4C615.3 468.5 616.1 466.2 618 465.4C621.7 463.8 624.8 460.7 626.4 456.9C628 453.1 628.1 448.8 626.6 445C626.3 444.1 625.8 443.2 625.4 442.2C624.6 440.5 623.6 438.5 623.1 436.3C622.2 432.2 622.9 427.7 625.1 423.5C626.8 420.4 629.2 417.4 632.7 414.4C634.3 413 636.7 413.2 638 414.8C639.4 416.4 639.2 418.8 637.6 420.1C634.8 422.6 632.9 424.8 631.7 427.1C630.3 429.7 629.8 432.4 630.4 434.7C630.7 436.1 631.4 437.5 632.1 439C632.6 440.1 633.1 441.2 633.6 442.3C635.7 447.9 635.6 454.3 633.3 459.9C631 465.4 626.5 470 621 472.4C620.6 472.6 620.1 472.7 619.6 472.7ZM660.4 421.4C661.9 421.2 663.4 421.9 664.2 423.3C665.3 425.1 664.6 427.5 662.8 428.6C659.1 430.7 656.4 434.2 655.2 438.1C654 442.1 654.4 446.5 656.3 450.2C656.7 451.1 657.3 451.9 657.9 452.9C658.9 454.6 660.1 456.4 660.9 458.6C662.3 462.6 662.1 467.3 660.3 471.8C658.9 475.2 656.8 478.4 653.5 481.9C652 483.5 649.6 483.6 648 482.1C646.4 480.7 646.3 478.2 647.8 476.7C650.4 473.9 652.1 471.4 653.1 469C654.2 466.2 654.4 463.4 653.6 461.1C653.1 459.8 652.3 458.4 651.4 457C650.8 456 650.1 454.9 649.5 453.8C646.7 448.4 646.1 441.9 647.8 436C649.6 430.1 653.6 425 659 422C659.4 421.6 659.9 421.4 660.4 421.4ZM181.3 590.9C187 597.7 190.3 606.6 190.7 613.3C191.2 620.6 188.3 629.7 180.5 633.7C177.5 635.2 173.8 635.9 169.3 635.9C161.4 635.8 156.4 633 153.9 627.5C151.8 622.8 151.6 616.1 155.7 611.6C158.9 608.1 163.5 607.5 166.9 610C168.1 610.9 168.4 612.7 167.5 613.9C166.6 615.1 164.8 615.4 163.6 614.5C161.8 613.2 160 615.1 159.8 615.3C157.4 617.9 157.7 622.3 159 625.2C160.5 628.6 163.7 630.2 169.4 630.3C173 630.3 175.8 629.8 178 628.7C182.7 626.3 185.7 620.1 185.2 613.7C184.7 606.4 179.9 595.5 172.2 589.8C168 586.7 163.7 585.7 159.3 586.7C156.2 587.4 153.1 589.1 149.6 591.7C143 596.8 137.9 603.5 135.4 610.7C132.7 618.4 133.3 626.5 137.3 634.6C138 636 137.4 637.7 136 638.3C134.6 639 132.9 638.4 132.3 637C127.7 627.6 126.9 617.8 130.1 608.8C133 600.6 138.7 592.9 146.2 587.2C150.3 584.1 154.2 582.1 158 581.2C164 579.8 170 581.2 175.5 585.2C177.6 586.9 179.6 588.8 181.3 590.9Z" fill="white"/>
<path d="M933.7 161C937.621 161 940.8 157.821 940.8 153.9C940.8 149.979 937.621 146.8 933.7 146.8C929.779 146.8 926.6 149.979 926.6 153.9C926.6 157.821 929.779 161 933.7 161Z" fill="white"/>
<path d="M944.3 139.2C948.221 139.2 951.4 136.021 951.4 132.1C951.4 128.179 948.221 125 944.3 125C940.379 125 937.2 128.179 937.2 132.1C937.2 136.021 940.379 139.2 944.3 139.2Z" fill="white"/>
<path d="M957.3 156C961.221 156 964.4 152.821 964.4 148.9C964.4 144.979 961.221 141.8 957.3 141.8C953.379 141.8 950.2 144.979 950.2 148.9C950.2 152.821 953.379 156 957.3 156Z" fill="white"/>
<path d="M1428.7 297.2C1423.9 291.8 1419 286.4 1413.9 281C1419.5 275.4 1425 269.5 1429.5 262.8C1430.7 261.1 1430.2 258.7 1428.5 257.6C1426.8 256.4 1424.4 256.9 1423.3 258.6C1419.1 264.8 1414.2 270.2 1408.8 275.5C1404 270.5 1399.1 265.5 1394.1 260.6C1392.6 259.1 1390.2 259.1 1388.8 260.6C1387.3 262.1 1387.3 264.5 1388.8 265.9C1393.7 270.7 1398.5 275.7 1403.3 280.7C1402.2 281.8 1401 282.9 1399.8 283.9C1395.7 287.7 1391.4 291.7 1387.4 295.9C1386 297.4 1386 299.7 1387.4 301.2C1388.9 302.6 1391.3 302.6 1392.7 301.1C1396.6 297.1 1400.8 293.2 1404.8 289.4C1406 288.3 1407.1 287.2 1408.3 286.1C1413.2 291.4 1418.1 296.7 1422.9 302C1423 302.1 1423 302.1 1423.1 302.2C1424.5 303.6 1426.8 303.7 1428.3 302.4C1430 301.2 1430.1 298.8 1428.7 297.2ZM247.6 248.6L247.2 246C245.7 234.9 245 222.8 244.9 209C244.9 203.5 244.9 197.5 245.1 190.5C245.1 189.8 245.1 189 245.1 188.2C245.1 183.2 245.1 177 249 174.7C251.2 173.4 254.1 173.7 257.5 175.6C263.2 178.7 270.7 184.3 275 190.5C280.5 198.3 282.3 207.4 280 216.2C276.8 228.5 265 247.2 250 248.3L247.6 248.6ZM252.1 179.2C251.9 179.2 251.8 179.2 251.7 179.3C251.6 179.4 251 179.8 250.6 182C250.3 183.9 250.3 186.2 250.3 188.3C250.3 189.1 250.3 190 250.3 190.7C250.1 197.6 250.1 203.5 250.1 209C250.2 221.5 250.8 232.5 252.1 242.7C263.1 240 272.5 224.6 275.1 214.9C277 207.7 275.5 200.1 270.9 193.6C267 188.1 260 183 255 180.3C253.6 179.5 252.6 179.2 252.1 179.2ZM436.3 60.7998C436.2 60.7998 436.1 60.7998 435.9 60.6998C433.5 59.9998 431.9 59.7998 429.2 59.9998C428.5 59.9998 427.9 59.4998 427.8 58.7998C427.8 58.0998 428.3 57.4998 429 57.3998C432.1 57.1998 433.9 57.3998 436.6 58.1998C437.3 58.3998 437.7 59.0998 437.5 59.7998C437.3 60.3998 436.8 60.7998 436.3 60.7998ZM426.1 70.4998C425.6 70.4998 425.1 70.1998 424.9 69.6998C424.1 67.5998 423.7 65.3998 423.6 63.0998C423.6 62.3998 424.1 61.7998 424.8 61.7998C425.5 61.7998 426.1 62.2998 426.1 62.9998C426.2 64.9998 426.6 66.8998 427.2 68.7998C427.4 69.4998 427.1 70.1998 426.4 70.3998C426.4 70.4998 426.2 70.4998 426.1 70.4998ZM414.1 64.3998C413.7 64.3998 413.3 64.1998 413.1 63.8998C412.7 63.2998 412.8 62.4998 413.3 62.0998C415.1 60.6998 417 59.4998 419.1 58.4998C419.7 58.1998 420.5 58.4998 420.8 59.0998C421.1 59.6998 420.8 60.4998 420.2 60.7998C418.3 61.6998 416.5 62.7998 414.9 64.0998C414.7 64.2998 414.4 64.3998 414.1 64.3998ZM420.5 55.2998C420 55.2998 419.6 54.9998 419.3 54.5998C418.8 53.5998 418.1 52.6998 416.9 51.1998C416.6 50.7998 416.2 50.2998 415.8 49.7998C415.4 49.1998 415.5 48.3998 416 47.9998C416.6 47.5998 417.4 47.6998 417.8 48.1998C418.2 48.6998 418.6 49.1998 418.9 49.5998C420.2 51.1998 421 52.1998 421.6 53.4998C421.9 54.0998 421.6 54.8998 421 55.1998C420.9 55.2998 420.7 55.2998 420.5 55.2998ZM426.7 54.9998C426.4 54.9998 426.2 54.8998 425.9 54.7998C425.3 54.3998 425.2 53.5998 425.6 52.9998C426.8 51.2998 427.9 49.5998 428.9 47.7998C429.2 47.1998 430 46.8998 430.6 47.2998C431.2 47.5998 431.5 48.3998 431.1 48.9998C430.1 50.8998 428.9 52.7998 427.6 54.5998C427.4 54.7998 427.1 54.9998 426.7 54.9998ZM949.3 382.8C949.2 382.8 949.1 382.8 948.9 382.7C946.5 382 944.9 381.8 942.2 382C941.5 382 940.9 381.5 940.8 380.8C940.8 380.1 941.3 379.5 942 379.4C945.1 379.2 946.9 379.4 949.6 380.2C950.3 380.4 950.7 381.1 950.5 381.8C950.3 382.4 949.8 382.8 949.3 382.8ZM939.1 392.5C938.6 392.5 938.1 392.2 937.9 391.7C937.1 389.6 936.7 387.4 936.6 385.1C936.6 384.4 937.1 383.8 937.8 383.8C938.5 383.8 939.1 384.3 939.1 385C939.2 387 939.6 388.9 940.2 390.8C940.4 391.5 940.1 392.2 939.4 392.4C939.4 392.5 939.2 392.5 939.1 392.5ZM927.1 386.4C926.7 386.4 926.3 386.2 926.1 385.9C925.7 385.3 925.8 384.5 926.3 384.1C928.1 382.7 930 381.5 932.1 380.5C932.7 380.2 933.5 380.5 933.8 381.1C934.1 381.7 933.8 382.5 933.2 382.8C931.3 383.7 929.5 384.8 927.9 386.1C927.7 386.3 927.4 386.4 927.1 386.4ZM933.5 377.3C933 377.3 932.6 377 932.3 376.6C931.8 375.6 931.1 374.7 929.9 373.2C929.6 372.8 929.2 372.3 928.8 371.8C928.4 371.2 928.5 370.4 929 370C929.6 369.6 930.4 369.7 930.8 370.2C931.2 370.7 931.6 371.2 931.9 371.6C933.2 373.2 934 374.2 934.6 375.5C934.9 376.1 934.6 376.9 934 377.2C933.9 377.3 933.7 377.3 933.5 377.3ZM939.7 377C939.4 377 939.2 376.9 938.9 376.8C938.3 376.4 938.2 375.6 938.6 375C939.8 373.3 940.9 371.6 941.9 369.8C942.2 369.2 943 368.9 943.6 369.3C944.2 369.6 944.5 370.4 944.1 371C943.1 372.9 941.9 374.8 940.6 376.6C940.4 376.8 940.1 377 939.7 377ZM1249.7 573.4C1248.3 573.4 1246.8 573.2 1245.2 572.7C1236.8 570 1228.6 560 1226.5 552.7C1226.1 551.3 1225.8 549.8 1225.6 548.3C1217.5 551.6 1210.1 558.9 1210.2 569.3C1210.2 570.8 1209 572 1207.5 572.1C1206 572.1 1204.8 570.9 1204.8 569.4C1204.7 562.7 1207.2 556.5 1211.8 551.4C1215.4 547.4 1220.2 544.3 1225.5 542.6C1226 536.1 1228.6 529.7 1232.9 525.2C1239.9 517.8 1251.1 516.3 1260.2 515.1L1260.9 515C1262.4 514.8 1263.8 515.9 1264 517.3C1264.2 518.8 1263.1 520.2 1261.7 520.4L1261 520.5C1252.4 521.7 1242.6 523 1237 528.9C1234 532.1 1232 536.6 1231.3 541.3C1239.2 540.3 1249 542.6 1255.6 547C1259.9 549.9 1262.7 554.8 1262.8 559.7C1263 564 1261.1 568 1257.6 570.8C1255.2 572.4 1252.6 573.4 1249.7 573.4ZM1231 546.7C1231.1 548.2 1231.4 549.7 1231.8 551.1C1233.5 556.9 1240.5 565.3 1246.9 567.4C1249.7 568.3 1252 567.9 1254.1 566.3C1256.8 564.2 1257.3 561.5 1257.2 559.7C1257.1 556.5 1255.2 553.3 1252.4 551.4C1246.7 547.5 1237.7 545.6 1231 546.7Z" fill="white"/>
</g>
<defs>
<clipPath id="clip0_5556_11552">
<rect width="1440" height="703" fill="white"/>
</clipPath>
</defs>
</svg>
