<svg width="2086" height="1025" viewBox="0 0 2086 1025" fill="none" xmlns="http://www.w3.org/2000/svg">
<g filter="url(#filter0_d_5565_5483)">
<rect x="127" y="127" width="1800" height="739" fill="#F9FFF1"/>
</g>
<mask id="mask0_5565_5483" style="mask-type:luminance" maskUnits="userSpaceOnUse" x="127" y="127" width="1800" height="739">
<rect x="127" y="127" width="1800" height="739" fill="white"/>
</mask>
<g mask="url(#mask0_5565_5483)">
<g opacity="0.08">
<path d="M1696.35 813.811C1628.39 808.827 1620.28 790.189 1609.98 766.567C1598.4 740.193 1584.11 707.382 1480.1 681.216C1427.97 668.133 1378.03 659.93 1327.31 656.14C1282 652.766 1236.95 652.973 1189.84 656.815C1102.31 663.98 1019.67 683.085 939.608 701.515C864.693 718.803 787.204 736.715 703.793 745.541C658.999 750.317 616.264 752.082 573.143 751.044C524.744 749.85 477.118 745.125 427.689 736.559C341.318 721.607 255.462 716.415 172.567 721.088C157.249 721.97 142.06 723.164 127 724.722V726.331C142.318 724.774 157.635 723.528 173.21 722.645C255.462 717.973 340.546 723.164 426.273 737.961C487.158 748.5 543.537 752.861 596.698 752.861C725.032 752.861 834.572 727.577 941.539 702.917C1024.95 683.656 1103.6 665.485 1190.61 658.373C1237.21 654.531 1281.74 654.323 1326.54 657.698C1376.87 661.436 1426.43 669.587 1478.04 682.566C1523.74 694.039 1580.63 708.316 1606.25 766.826C1611.53 779.027 1616.16 789.566 1628.39 798.028C1641.9 807.425 1663.4 812.928 1695.71 815.316C1791.35 822.377 1848.24 833.539 1874.63 850.464C1880.94 854.461 1885.57 858.822 1888.66 863.443H1892.65C1889.43 858.511 1884.67 853.942 1877.85 849.633C1850.81 832.345 1793.15 820.975 1696.35 813.811Z" fill="#6F6F6F"/>
<path d="M1621.65 831.03C1540.69 826.178 1533.1 816.423 1516.62 795.158C1502.2 776.629 1480.45 748.551 1395.37 707.828C1280.94 653.014 1159.56 687.285 1019 726.976C876.515 767.235 714.976 812.81 517.782 779.984C442.226 767.39 366.026 761.196 291.113 761.454C235.379 761.661 180.16 765.48 127 772.809V774.461C180.16 767.08 235.25 763.261 291.113 763.054C365.511 762.745 441.196 768.99 516.238 781.48C605.052 796.294 694.767 796.552 790.275 782.358C873.812 769.919 948.724 748.757 1021.19 728.318C1090.7 708.705 1156.34 690.176 1217.74 683.569C1285.57 676.24 1341.05 684.292 1392.41 708.912C1476.98 749.428 1498.6 777.3 1512.89 795.726C1529.36 816.991 1537.73 827.675 1621.14 832.681C1669.92 835.623 1700.43 842.849 1711.88 854.153C1714.71 856.991 1716.39 860.088 1717.03 863.443H1720.89C1720.38 859.882 1718.58 856.578 1715.49 853.585C1703.39 841.61 1671.85 834.075 1621.65 831.03Z" fill="#6F6F6F"/>
<path d="M1222.39 763.011C1186.68 753.398 1138.77 753.709 1080.07 764.102C1033.44 772.312 979.871 786.861 920.782 807.231C860.408 828.119 806.457 850.983 772.802 866H777.94C811.595 850.983 864.262 828.743 923.223 808.374C982.055 788.056 1035.24 773.611 1081.48 765.453C1138.9 755.32 1185.53 754.904 1220.08 764.258C1300.37 785.926 1343.01 822.507 1380.65 854.776C1385.15 858.569 1389.39 862.311 1393.75 865.948H1397.99C1393.37 862.103 1388.74 858.154 1384.12 854.101C1346.48 821.676 1303.58 784.887 1222.39 763.011Z" fill="#6F6F6F"/>
<path d="M1119.97 815.791C1103.51 811.037 1082.24 811.14 1056.79 816.101C1036.79 820.029 1014.13 826.955 989.437 836.723C965.887 846.078 944.743 856.259 930.816 863.443H935.754C975.256 843.338 1065.78 802.044 1117.69 817.032C1151.24 826.748 1170.87 846.026 1187.83 863.443H1191.89C1174.67 845.716 1154.92 825.869 1119.97 815.791Z" fill="#6F6F6F"/>
<path d="M482.868 815.141C449.934 811.781 415.846 808.32 385.219 804.197C309.227 793.865 221.189 802.569 160.703 811.679C148.785 813.461 137.508 815.344 127 817.227V818.907C137.893 816.973 149.682 814.988 162.113 813.105C221.958 804.096 309.099 795.494 383.937 805.673C414.565 809.847 448.78 813.308 481.842 816.668C556.168 824.2 626.394 831.326 631.263 844.254C633.314 849.7 623.831 856.063 602.558 863.443H608.197C628.316 856.063 637.158 849.65 635.108 844C629.854 830.054 561.807 823.182 482.868 815.141Z" fill="#6F6F6F"/>
<path d="M438.345 836.583C412.637 834.793 381.347 834.898 352.524 836.899C299.161 840.586 194.774 852.383 127 860.336V861.968C194.774 854.016 299.811 842.166 353.303 838.427C381.736 836.478 412.507 836.32 437.825 838.111C474.439 840.691 487.292 846.116 491.707 850.276C495.732 854.016 494.693 858.44 488.721 863.443H493.135C498.848 858.282 499.497 853.647 495.212 849.644C486.513 841.534 459.508 838.058 438.345 836.583Z" fill="#6F6F6F"/>
<path d="M291.669 549.042C349.657 564.904 387.502 587.653 420.73 607.741C458.447 630.49 491.162 650.161 542.221 653.344C546.968 653.657 551.843 653.761 556.718 653.761C596.104 653.761 642.93 644.526 702.329 625.064C746.846 610.454 783.922 597.201 816.636 585.462C885.656 560.677 935.562 542.781 990.727 536.989C1047.05 531.041 1108.88 537.302 1204.07 558.538C1281.82 575.913 1374.57 587.862 1458.35 591.305C1497.35 592.923 1532.76 592.61 1560.85 590.314C1590.49 587.914 1611.27 583.583 1622.43 577.374C1637.7 568.869 1641.42 553.06 1572.01 525.98C1489.01 493.578 1394.59 489.665 1294.65 485.543C1228.45 482.829 1159.94 479.96 1090.79 468.637C1012.54 455.854 944.67 433.626 883.219 400.807C837.804 376.545 784.82 365.066 729.783 367.623C692.322 369.344 655.502 377.38 620.351 391.415C585.071 405.607 553.254 425.174 526.057 449.593C505.787 467.698 483.464 476.986 457.421 477.925C401.101 479.96 335.929 441.453 273.067 404.199C241.636 385.571 209.178 366.37 178.26 352.596C162.223 345.447 147.598 340.177 133.871 336.682V338.612C177.105 350.195 224.06 377.954 269.86 405.086C301.419 423.765 334.133 443.123 365.565 457.21C399.177 472.237 427.914 479.594 453.187 479.594C454.727 479.594 456.266 479.542 457.806 479.49C485.26 478.499 508.737 468.95 529.521 450.271C556.59 426.009 588.021 406.599 623.045 392.563C657.555 378.736 693.605 370.858 730.168 369.188C783.665 366.736 835.623 378.006 880.14 401.799C941.976 434.879 1010.48 457.21 1089.25 470.098C1158.92 481.525 1227.68 484.343 1294.13 487.108C1393.43 491.23 1487.21 495.091 1569.32 527.128C1636.8 553.477 1633.72 568.504 1619.35 576.487C1598.31 588.123 1538.27 593.079 1458.73 589.792C1375.47 586.349 1283.23 574.452 1205.87 557.182C1109.78 535.737 1047.17 529.476 989.7 535.528C933.637 541.424 883.475 559.425 814.07 584.366C781.356 596.106 744.408 609.359 699.891 623.916C633.949 645.517 584.044 654.387 542.735 651.831C493.342 648.804 461.141 629.395 423.809 606.906C390.325 586.714 352.351 563.86 293.722 547.79C245.099 534.485 198.786 527.806 155.552 527.806C148.24 527.806 141.055 528.015 133.871 528.38V529.945C182.493 527.284 235.478 533.702 291.669 549.042Z" fill="#6F6F6F"/>
<path d="M199.312 701.672C258.991 702.039 325.761 706.922 384.667 711.175C469.095 717.318 535.606 722.149 543.856 711.018C556.23 694.321 516.014 680.512 449.245 657.672C401.424 641.29 341.744 620.918 277.939 591.62C229.989 569.62 182.168 559.644 136.023 562.059C133.187 562.217 130.222 562.427 127 562.689V564.317C130.094 564.054 133.316 563.792 136.538 563.634C181.395 561.324 227.927 571.09 275.104 592.67C339.166 622.073 398.846 642.498 446.796 658.932C512.276 681.352 551.848 694.898 540.247 710.598C533.029 720.364 464.584 715.376 385.44 709.652C299.981 703.457 199.698 696.158 127.129 702.459V704.087C147.495 702.302 171.599 701.462 199.312 701.672Z" fill="#6F6F6F"/>
<path d="M372.103 694.675C405.964 694.675 424.978 692.175 428.625 687.124C436.7 676.117 369.368 656.282 328.344 645.435C270.389 630.067 201.364 615.603 164.247 610.977C151.875 609.435 139.372 608.372 127.13 607.734V609.329C138.982 609.967 151.094 611.03 163.075 612.519C199.932 617.092 268.566 631.45 326.13 646.764C393.201 664.578 430.058 679.467 424.718 686.645C419.509 693.664 373.145 694.941 294.092 690.261C230.016 686.486 163.205 679.945 127 675.798V677.446C163.466 681.647 229.886 688.081 293.441 691.856C325.348 693.718 351.396 694.675 372.103 694.675Z" fill="#6F6F6F"/>
<path d="M203.807 663.99C219.35 663.99 228.028 662.763 229.711 660.308C233.338 655.4 207.433 647.237 185.026 641.262C165.727 636.086 143.708 631.178 127 628.19V629.951C143.32 632.939 164.432 637.687 182.954 642.649C211.708 650.331 228.157 656.947 225.955 659.881C222.458 664.63 170.52 661.962 127 657.961V659.561C140.082 660.735 154.718 661.909 168.965 662.763C183.083 663.563 194.611 663.99 203.807 663.99Z" fill="#6F6F6F"/>
<path fill-rule="evenodd" clip-rule="evenodd" d="M571.176 623.076C567.465 623.076 563.883 622.919 560.428 622.554C529.079 619.366 504.128 610.324 488.262 596.371C472.268 582.156 466.894 563.812 472.908 543.273C478.41 524.773 494.404 506.429 519.483 490.228C608.666 432.479 682.751 400.809 739.69 396.105C757.987 394.59 774.749 395.896 789.208 400.025C843.433 415.41 878.804 430.386 909.998 443.595L911.147 444.081L911.426 444.199C959.66 464.63 997.804 480.787 1081.32 490.123C1134.17 496.029 1159.12 501.464 1157.46 506.795C1156.18 510.923 1138.26 514.216 1104.1 516.62C1070.96 518.919 1023.11 520.33 965.783 520.644C922.535 520.905 877.623 527.752 828.361 541.705C785.369 553.934 744.68 569.874 708.725 583.985C655.625 604.837 609.178 623.076 571.176 623.076ZM522.813 491.064C498.118 507.056 482.252 525.191 476.877 543.482C470.992 563.707 476.238 581.738 491.976 595.691C507.202 609.227 531.258 618.007 561.454 621.038C564.653 621.352 567.98 621.508 571.307 621.508C607.644 621.508 653.577 603.48 706.036 582.889L706.041 582.887C741.996 568.725 782.813 552.733 826.189 540.451C876.091 526.341 921.77 519.338 965.786 519.076C1022.98 518.763 1070.58 517.352 1103.46 515.052C1145.82 512.073 1153.11 508.467 1153.75 506.586C1155.54 500.628 1103.08 494.095 1080.43 491.587C995.727 482.075 957.213 465.77 908.591 445.127L908.065 444.904C876.845 431.684 841.494 416.714 787.164 401.279C777.183 398.457 766.179 397.046 754.152 397.046C749.801 397.046 745.195 397.255 740.589 397.621C684.801 402.272 611.484 433.681 522.813 491.064Z" fill="#6F6F6F"/>
<path fill-rule="evenodd" clip-rule="evenodd" d="M1481.34 566.468C1421.34 562.935 1352.89 557.064 1312.46 553.063C1245.04 546.412 1216.12 540.489 1212.79 532.748C1209.85 525.734 1228.53 517.265 1271.39 506.094C1294.8 500.015 1325.25 498.717 1362.23 502.353C1391.53 505.211 1424.92 511.134 1461.51 519.967C1522.41 534.67 1572.18 552.647 1574.61 553.531C1592.52 558.674 1599.69 562.519 1596.49 565.377C1593.42 568.026 1581.14 569.377 1559.13 569.377C1540.32 569.377 1514.48 568.39 1481.34 566.468ZM1323.85 501.834C1304.4 501.834 1287.64 503.704 1273.56 507.341C1232.75 517.992 1214.07 526.202 1216.63 532.332C1220.21 541.113 1267.55 546.932 1313.35 551.452C1424.41 562.415 1583.44 573.118 1592.9 564.649C1594.18 563.506 1593.29 560.701 1572.31 554.674L1572.18 554.622C1572.15 554.613 1571.96 554.544 1571.6 554.419C1565.85 552.368 1517.83 535.268 1459.59 521.214C1423.38 512.485 1390.37 506.614 1361.46 503.808C1348.03 502.509 1335.49 501.834 1323.85 501.834Z" fill="#6F6F6F"/>
<path d="M1927 538.947C1917.85 535.074 1907.4 531.098 1895.54 527.121C1850.42 511.998 1793.18 499.544 1725.37 490.073C1640.66 478.247 1539.2 471.025 1423.82 468.618C1357.81 467.258 1231.21 462.496 1124.33 445.803C1011.78 428.274 949.384 402.371 939.07 368.829C927.08 330.002 938.812 305.932 976.071 293.007C1016.81 278.878 1090.55 278.25 1201.43 291.227C1278.39 300.228 1340.66 312.577 1390.68 322.519C1440.06 332.357 1479.12 340.102 1513.93 341.462C1551.71 342.927 1581.23 336.7 1609.59 321.264C1627.64 311.426 1641.95 302.112 1654.59 293.896C1679.98 277.308 1698.42 265.325 1728.46 260.877C1760.17 256.168 1803.11 260.145 1872.21 274.169C1891.93 278.146 1910.11 282.593 1927 287.198V285.314C1910.63 280.867 1892.96 276.628 1874.01 272.756C1803.88 258.523 1760.05 254.546 1727.17 259.36C1695.84 264.017 1677.28 276.157 1651.36 293.007C1638.86 301.17 1624.55 310.432 1606.63 320.269C1548.36 352.032 1489.7 340.363 1392.49 321.054C1342.34 311.06 1279.81 298.658 1202.59 289.658C1090.3 276.576 1015.39 277.256 973.621 291.751C935.331 305.042 923.212 329.584 935.331 368.986C945.903 403.156 1009.07 429.477 1123.04 447.269C1230.43 464.013 1357.55 468.775 1423.69 470.188C1538.69 472.543 1639.63 479.764 1723.95 491.538C1791.24 500.957 1848.1 513.306 1892.84 528.272C1905.99 532.667 1917.33 537.063 1927 541.249V538.947V538.947Z" fill="#6F6F6F"/>
<path d="M1927 505.964C1899.86 497.637 1867.22 489.257 1830.23 481.349C1725.13 458.828 1601.22 443.168 1481.54 437.302C1360.31 431.332 1271.86 424.785 1203.25 416.614C1115.56 406.244 1060.26 393.308 1034.15 377.177C1016.49 366.231 1012.65 353.609 1022.5 339.572C1029.93 329.202 1043.5 322.341 1064.1 318.623C1133.87 305.948 1267.64 332.502 1385.66 355.913C1428.8 364.502 1469.63 372.568 1504.32 378.12C1562.82 387.495 1598.79 389.589 1624.65 385.033C1649.61 380.634 1663.95 370.473 1683.66 356.384C1695.56 347.9 1709 338.315 1727.95 327.736C1748.18 316.423 1773.78 310.505 1804.11 310.138C1845.59 309.667 1890.52 319.67 1927 330.669V328.731C1870.29 311.814 1829.46 308.305 1804.11 308.567C1772.62 308.934 1746 315.061 1725.01 326.793C1705.93 337.425 1692.49 347.114 1680.46 355.599C1641.8 383.095 1624.14 395.665 1505.73 376.653C1471.17 371.101 1430.46 363.036 1387.32 354.499C1268.53 330.931 1133.87 304.22 1062.57 317.209C1041.06 321.084 1026.34 328.521 1018.79 339.206C1008.55 353.661 1012.52 366.754 1030.82 378.12C1057.58 394.513 1113.52 407.658 1202.22 418.133C1271.09 426.304 1359.8 432.85 1481.15 438.821C1600.33 444.687 1723.73 460.294 1828.44 482.71C1865.94 490.776 1899.48 499.418 1927 508.007V505.964Z" fill="#6F6F6F"/>
<path d="M1926.87 482.844C1853.83 456.898 1754.78 446.52 1677.12 438.448C1601.78 430.586 1547.44 424.925 1553.34 409.62C1555 405.164 1570.13 405.479 1596.65 406.422C1621.25 407.261 1651.75 408.362 1680.58 404.378C1714.67 399.661 1738.12 389.02 1752.21 371.828C1762.08 359.773 1777.84 352.854 1798.86 351.386C1837.3 348.66 1887.79 363.966 1927 379.166V376.965C1925.97 376.598 1925.08 376.179 1924.05 375.812C1872.28 356.313 1830 347.56 1798.22 349.814C1775.66 351.386 1759.01 358.619 1748.63 371.304C1717.62 409.095 1645.09 406.527 1597.04 404.85C1570.89 403.906 1551.93 403.277 1549.62 409.41C1546.68 417.167 1557.06 423.143 1582.68 428.122C1605.49 432.578 1638.3 436.037 1676.23 439.968C1754.52 448.145 1854.34 458.576 1927 484.993V482.844H1926.87Z" fill="#6F6F6F"/>
<path d="M1927 467.728C1902.33 461.212 1875.23 451.973 1851.96 442.039C1817.11 427.139 1796.37 413.36 1793.7 403.159C1792.3 397.659 1796.25 393.279 1805.66 390.182C1838.73 379.287 1892.66 397.445 1927 411.918V409.622C1919.88 406.684 1912.12 403.64 1903.98 400.756C1885.03 394.08 1867.47 389.487 1852.08 387.137C1832.5 384.147 1815.96 384.734 1803.24 388.953C1792.81 392.371 1788.36 397.231 1789.89 403.373C1795.23 424.202 1869.64 454.697 1927 469.651V467.728V467.728Z" fill="#6F6F6F"/>
<path fill-rule="evenodd" clip-rule="evenodd" d="M1482.72 405.338C1483.17 405.465 1483.41 405.536 1483.45 405.547C1498.73 410.151 1503.99 413.927 1499.5 416.824C1494.36 419.876 1477.81 421.066 1455.99 421.066C1426.09 421.066 1386.04 418.841 1350.88 415.996C1265.28 409.116 1183.65 397.425 1132.57 384.751C1075.07 370.474 1055.57 355.006 1076.23 340.005C1081.75 335.97 1090.99 333.383 1103.57 332.245C1144.12 328.572 1220.48 339.849 1330.34 365.663C1407.55 383.767 1474.99 403.12 1482.72 405.338ZM1448.68 419.41C1484.23 419.773 1493.72 417.341 1496.16 415.893C1500.27 413.358 1490.26 409.582 1481.15 406.84C1477.81 405.857 1226.26 333.125 1119.87 333.125C1114.22 333.125 1109.09 333.331 1104.34 333.745C1092.92 334.78 1084.57 337.108 1079.57 340.729C1069.3 348.178 1069.43 355.731 1080.08 363.231C1089.71 370.06 1108.06 376.837 1134.5 383.406C1185.19 395.977 1266.3 407.616 1351.52 414.444C1388.1 417.393 1422.62 419.152 1448.68 419.41Z" fill="#6F6F6F"/>
<path fill-rule="evenodd" clip-rule="evenodd" d="M1356.3 392.395C1357.23 392.619 1357.74 392.743 1357.8 392.754C1357.91 392.788 1358.03 392.826 1358.16 392.867C1360.37 393.547 1365.56 395.147 1362.91 396.702C1361.25 397.702 1356.14 398.052 1349.24 398.052C1330.33 398.052 1298.27 395.153 1290.09 394.403C1247.56 390.405 1208.08 384.657 1184.58 379.01C1160.95 373.312 1152.77 367.764 1160.18 362.516C1161.97 361.267 1165.03 360.417 1169.12 360.017C1185.73 358.318 1222.52 363.366 1278.6 374.911C1315.48 382.504 1348.94 390.61 1356.3 392.395ZM1290.86 392.954C1334.29 397.002 1357.54 397.102 1359.71 395.853C1359.84 395.753 1359.58 395.153 1355.5 394.003C1351.92 393.104 1221.37 361.216 1176.27 361.216C1173.85 361.216 1171.8 361.316 1169.89 361.516C1166.69 361.816 1164.65 362.416 1163.37 363.265C1157.11 367.664 1164.78 372.512 1186.36 377.71C1209.49 383.308 1248.57 389.005 1290.86 392.954Z" fill="#6F6F6F"/>
<path fill-rule="evenodd" clip-rule="evenodd" d="M597.667 584.164C584.89 586.38 574.413 587.277 565.853 587.277C548.476 587.277 538.893 583.53 533.655 579.678C499.54 554.719 576.585 474.354 681.356 443.009C712.659 433.669 740.768 429.87 764.789 431.77C784.593 433.353 801.587 438.682 815.386 447.653C828.929 456.412 835.445 466.544 834.551 476.992C833.657 487.387 825.352 497.36 810.658 505.803L806.697 508.072L806.466 508.205C757.73 536.183 707.375 565.092 597.667 584.164ZM683.659 444.329C636.257 458.523 589.621 484.749 558.956 514.457C530.208 542.319 521.52 567.594 536.98 578.887C547.329 586.433 567.134 587.699 596.137 582.633C704.996 563.69 755.082 534.931 803.506 507.07L807.467 504.801C821.777 496.622 829.827 486.965 830.721 476.886C831.616 466.755 825.227 456.94 812.195 448.497C799.034 439.949 782.808 434.83 764.154 433.353C760.32 433.036 756.36 432.878 752.399 432.878C732.084 432.878 709.085 436.73 683.659 444.329Z" fill="#6F6F6F"/>
<path fill-rule="evenodd" clip-rule="evenodd" d="M630.758 549.49C622.636 550.887 615.955 551.478 610.584 551.478C600.366 551.478 594.733 549.382 591.589 547.18C582.55 540.625 588.052 526.764 605.868 511.023C624.47 494.69 652.372 479.862 680.668 471.481C699.401 465.947 716.169 463.691 730.709 464.819C742.63 465.732 752.979 468.902 761.232 474.275C777.607 484.912 776.559 498.451 758.35 508.82C729.4 525.313 697.829 537.885 630.758 549.49ZM683.025 472.824C655.384 481.044 627.874 495.603 609.535 511.721C592.505 526.764 586.872 540.356 595.125 546.427C600.627 550.457 612.155 550.994 629.315 548.039C695.601 536.596 726.647 524.185 755.205 507.906C772.497 498.075 773.545 485.234 757.956 475.188C750.227 470.245 740.926 467.29 730.053 466.431C727.826 466.269 725.599 466.162 723.241 466.162C711.32 466.162 697.959 468.418 683.025 472.824Z" fill="#6F6F6F"/>
<path opacity="0.2" d="M662.925 520.792C664.402 520.792 666.218 520.633 668.376 520.207C685.181 516.91 693.015 513.294 700.282 508.561C705.051 505.477 705.392 501.382 701.077 498.245C698.806 496.596 696.081 495.639 692.788 495.32C688.928 494.947 684.386 495.639 679.503 497.287C664.629 502.339 651.911 514.89 657.248 519.303C658.043 519.942 659.633 520.792 662.925 520.792Z" fill="#6F6F6F" stroke="#545454" stroke-width="13.187"/>
<path d="M1926.61 818.498C1889.66 817.813 1853.74 815.864 1821.95 812.704C1780.09 808.543 1744.95 802.275 1717.55 794.163C1683.96 784.209 1661.86 771.357 1651.66 755.872C1637.44 734.118 1614.96 713.577 1586.66 696.406C1553.46 676.233 1512.76 660.695 1465.47 650.16C1378.51 630.725 1272.69 628.881 1151.1 644.683C1003.8 663.802 889.194 683.87 805.466 698.565C698.61 717.264 639.691 727.587 626.253 716.263C625.09 715.262 624.961 714.209 625.995 713.05C633.618 704.464 696.801 692.771 770.063 679.288C824.589 669.227 886.48 657.798 935.192 645.683C991.527 631.673 1021.12 618.979 1025.64 606.917C1031.97 589.957 1048.77 578.053 1074.09 572.523C1102.91 566.255 1142.31 567.888 1191.41 577.369C1281.6 594.75 1501.77 615.503 1635.51 615.503C1681.63 615.503 1717.55 613.027 1734.22 607.075C1744.3 603.494 1747.14 598.806 1742.62 593.117C1727.76 574.314 1744.95 554.878 1782.55 547.978C1829.71 539.34 1881.78 551.876 1926.61 571.944V569.31C1909.04 561.62 1891.21 555.616 1873.25 551.296C1840.3 543.343 1807.48 541.658 1781 546.556C1741.59 553.772 1723.5 573.998 1739 593.591C1743.01 598.648 1740.55 602.704 1731.77 605.864C1703.99 615.766 1614.19 616.609 1485.24 608.129C1373.86 600.807 1253.82 587.587 1193.22 575.894C1142.96 566.202 1102.39 564.622 1072.54 571.101C1046.05 576.842 1028.61 589.167 1022.02 606.654C1012.2 632.832 877.177 657.798 768.642 677.813C691.633 692.034 630.776 703.253 622.635 712.47C621.214 714.051 621.343 715.525 623.023 716.895C630.259 723.005 647.96 724.058 680.65 720.318C710.756 716.842 753.395 709.415 807.275 699.987C890.874 685.345 1005.48 665.277 1152.52 646.157C1273.07 630.514 1377.86 632.305 1463.92 651.477C1510.56 661.906 1550.87 677.286 1583.69 697.196C1611.73 714.261 1634.08 734.645 1648.17 756.188C1658.51 771.989 1681.12 785.157 1715.49 795.322C1743.27 803.539 1778.93 809.86 1821.31 814.126C1853.48 817.339 1889.79 819.34 1927 819.972V818.498H1926.61Z" fill="#6F6F6F"/>
<path d="M1926.87 786.66C1866.31 792.368 1818.56 791.478 1781.8 783.99C1727.58 772.888 1703.77 748.696 1686.17 724.189C1667.54 698.321 1614.09 679.208 1571.13 663.865C1542.27 653.549 1519.49 645.432 1518.46 638.939C1518.2 637.106 1519.75 635.483 1523.12 633.964C1534.89 628.623 1572.42 631.975 1620.04 636.216C1658.22 639.62 1705.84 643.861 1755.41 645.013C1778.31 645.537 1793.32 643.966 1801.47 640.196C1813.12 634.75 1808.72 625.638 1804.06 616.003C1797.46 602.546 1790.73 588.669 1822.18 581.024C1832.66 578.458 1844.31 577.986 1856.73 579.453C1877.7 582.019 1901.64 590.502 1927 604.169V601.498C1906.3 590.606 1882.1 580.919 1857.9 577.986C1844.44 576.311 1831.76 576.887 1820.24 579.662C1786.46 587.883 1793.84 602.964 1800.31 616.317C1804.84 625.586 1809.11 634.331 1798.63 639.201C1791.38 642.552 1777.28 643.966 1755.66 643.442C1706.36 642.29 1659 638.049 1620.95 634.645C1570.35 630.142 1533.73 626.843 1520.4 632.865C1516.39 634.698 1514.45 636.74 1514.84 638.991C1515.87 646.113 1539.16 654.439 1568.8 664.964C1611.37 680.15 1664.43 699.106 1682.68 724.556C1700.54 749.376 1724.61 773.936 1780.25 785.299C1801.6 789.645 1826.58 791.844 1855.44 791.844C1877.05 791.844 1900.86 790.64 1927 788.179V786.66H1926.87Z" fill="#6F6F6F"/>
<path d="M1927 746.079C1896.67 749.296 1859.66 751.142 1829.59 746.448C1807.48 743.02 1791.42 736.375 1781.91 726.777C1768.8 713.487 1745.8 701.147 1727.29 691.232C1709.04 681.475 1693.36 673.037 1698.25 669.24C1701.33 666.867 1712.51 665.971 1732.43 666.445L1739.11 666.603C1798.74 668.08 1828.82 668.818 1843.59 663.281C1850.79 660.591 1854.26 656.372 1854.65 649.675C1855.29 640.446 1867.24 632.746 1884.46 630.478C1897.31 628.791 1911.84 630.109 1927 634.117V632.166C1907.47 627.314 1892.3 627.789 1883.31 629.002C1864.54 631.48 1851.43 639.76 1850.79 649.675C1850.41 655.898 1847.32 659.748 1841.02 662.121C1827.4 667.236 1796.17 666.445 1739.37 665.021L1732.69 664.863C1710.71 664.336 1698.76 665.496 1694.78 668.502C1688.74 673.196 1703.52 681.159 1724.08 692.234C1742.45 702.096 1765.33 714.331 1778.18 727.41C1788.08 737.43 1804.91 744.339 1828.04 747.977C1841.67 750.087 1856.57 750.931 1871.48 750.931C1891.14 750.931 1910.68 749.507 1926.87 747.819V746.079H1927Z" fill="#6F6F6F"/>
<path d="M1927 716.133C1896.02 716.444 1852.12 714.888 1843.86 703.995C1838.82 697.356 1842.31 690.924 1853.41 685.893C1868.39 679.098 1894.85 675.571 1927 675.779V674.223C1893.69 674.067 1866.19 677.75 1850.57 684.856C1838.44 690.354 1834.69 697.304 1840.11 704.462C1846.05 712.242 1868 716.651 1905.31 717.533C1910.22 717.637 1915.12 717.689 1919.77 717.689C1922.22 717.689 1924.55 717.689 1926.87 717.637V716.133H1927Z" fill="#6F6F6F"/>
<path d="M269.549 522.618C318.579 530.814 365.404 538.692 397.052 538.692C405.613 538.692 413.007 538.11 419.103 536.841C427.664 535.044 433.111 531.818 435.446 527.324C441.023 516.749 413.396 506.544 371.5 491.104C329.993 475.823 273.181 454.937 222.984 423.635C189.001 402.432 156.833 388.79 127.13 382.709V384.454C155.795 390.535 186.795 403.86 219.741 424.481C270.328 455.995 327.269 476.933 368.906 492.267C409.764 507.337 436.873 517.277 431.685 526.954C429.479 531.025 424.81 533.775 417.287 535.361C390.437 541.124 332.458 531.395 271.106 521.085C230.637 514.316 188.741 507.284 152.423 504.111C143.343 503.318 134.782 502.79 127 502.525V504.111C134.523 504.376 142.824 504.852 151.645 505.645C187.574 508.87 229.21 515.85 269.549 522.618Z" fill="#6F6F6F"/>
<path d="M245.358 495.221C258.234 495.221 266.405 493.896 269.748 491.297C277.919 484.772 253.281 472.335 196.331 454.189C170.579 446.033 143.838 438.49 127 433.851V435.635C183.331 451.08 279.404 480.287 266.529 490.583C263.805 492.775 256.377 493.743 245.977 493.743C218.616 493.743 170.084 487.321 127 480.491V482.122C136.285 483.6 146.066 485.078 155.97 486.505C196.207 492.316 226.168 495.221 245.358 495.221Z" fill="#6F6F6F"/>
<path fill-rule="evenodd" clip-rule="evenodd" d="M806.632 616.524C813.485 611.863 820.719 607.663 828.335 603.975C852.576 592.194 889.002 586.048 925.681 587.482C947.257 588.353 958.172 591.426 958.299 596.702C958.553 614.168 826.938 650.637 767.667 653.198C759.037 653.608 752.437 653.761 747.487 653.761C736.826 653.761 733.273 652.993 732.003 651.866C729.465 649.51 738.603 646.129 753.833 640.495L753.833 640.495C770.079 634.502 792.29 626.307 806.632 616.524ZM883.038 629.38C927.332 616.678 954.874 604.129 954.747 596.753C954.62 592.399 944.847 589.838 925.683 589.07C922.256 588.916 918.829 588.865 915.402 588.865C883.419 588.865 852.704 594.704 831.509 604.948C824.021 608.534 816.913 612.734 810.187 617.292C795.722 627.191 773.404 635.429 757.068 641.459L756.627 641.622L756.051 641.835C745.315 645.815 734.316 649.892 735.812 651.2C736.701 652.02 742.92 652.737 767.542 651.661C794.703 650.483 840.012 641.724 883.038 629.38Z" fill="#6F6F6F"/>
<path d="M259.656 336.806C288.624 358.484 319.651 380.791 349.907 397.075C383.252 414.931 412.22 423.623 438.612 423.623C438.87 423.623 439.127 423.623 439.385 423.623C465.649 423.466 488.823 414.878 510.195 397.494C555.127 360.998 608.299 338.691 664.046 333.089C702.155 329.266 741.294 333.036 780.304 344.399C810.302 353.143 831.673 356.023 845.32 353.248C865.534 349.164 866.692 333.927 867.98 316.333C869.396 297.011 870.941 275.071 899.394 265.018C912.655 260.358 930.421 258.63 953.724 259.677C1014.75 262.505 1072.81 258.735 1121.61 248.89C1167.96 239.518 1203.88 225.223 1225.38 207.524C1245.85 190.716 1251.77 171.761 1242.76 152.806C1239.03 144.899 1232.72 137.15 1224.09 129.557H1219.71C1249.84 155.424 1251.51 182.652 1222.03 206.844C1200.92 224.228 1165.64 238.261 1120.06 247.477C1071.91 257.216 1014.49 260.881 954.239 258.106C930.164 257.007 910.852 258.892 896.948 263.814C867.207 274.286 865.662 296.592 864.117 316.228C862.959 332.617 861.8 348.117 843.647 351.782C831.287 354.295 811.332 351.415 782.493 343.038C742.453 331.413 702.284 327.538 663.016 331.466C606.111 337.225 552.037 359.793 506.719 396.709C485.991 413.517 463.975 421.79 439.385 421.947C439.127 421.947 438.87 421.947 438.612 421.947C382.608 421.947 321.196 379.482 263.003 335.916C227.341 309.212 183.953 290.885 133.871 281.146V282.873C182.666 292.718 224.894 310.73 259.656 336.806Z" fill="#6F6F6F"/>
<path d="M306.921 270.197C329.064 270.197 348.52 268.881 364.519 266.197C400.998 260.091 419.173 247.617 418.533 228.984C417.893 210.72 429.797 197.14 454.884 187.508C516.706 163.612 649.822 167.717 790.873 172.139C811.608 172.77 833.111 173.455 854.231 174.034C874.838 174.613 893.781 174.876 911.189 174.876C990.674 174.876 1035.73 169.033 1045.58 157.401C1052.5 149.19 1040.98 139.242 1022.54 129.557H1017.55C1036.5 139.189 1048.53 149.032 1042 156.927C1030.74 170.296 967.763 175.56 854.615 172.507C833.495 171.928 811.992 171.244 791.257 170.612C649.438 166.191 515.426 162.033 452.324 186.403C426.469 196.403 414.182 210.352 414.822 229.089C415.462 246.985 398.054 259.039 363.239 264.829C318.441 272.303 245.611 268.881 163.182 255.46C153.326 253.88 143.599 252.144 133.871 250.354V252.091C143.087 253.828 152.43 255.46 161.774 256.933C215.66 265.671 265.835 270.197 306.921 270.197Z" fill="#6F6F6F"/>
<path d="M233.807 218.951C279.872 217.808 318.899 207.985 349.993 189.742L355.111 186.728C392.859 164.587 411.797 153.465 439.82 148.839C467.843 144.214 505.846 145.877 581.598 149.255C590.811 149.671 600.664 150.087 611.028 150.554C700.727 154.504 765.73 155.804 809.748 154.556C852.102 153.361 876.158 149.879 885.371 143.59C891.001 139.744 890.745 135.066 886.139 129.557H882.172C886.779 134.858 887.291 139.276 882.044 142.81C873.599 148.579 849.927 151.906 809.492 153.049C765.73 154.245 700.983 152.945 611.412 148.995C601.047 148.527 591.195 148.112 581.982 147.696C505.59 144.266 467.331 142.55 438.284 147.384C409.238 152.218 390.044 163.444 351.912 185.844L346.794 188.859C316.34 206.686 278.336 216.301 233.551 217.392C210.518 217.964 177.121 216.353 133.871 208.141V209.856C171.875 216.976 202.329 219.055 224.978 219.055C228.049 219.055 230.992 219.003 233.807 218.951Z" fill="#6F6F6F"/>
<path d="M284.161 184.424C303.047 180.802 315.989 174.64 322.461 166.099C332.102 153.666 334.215 141.125 332.63 129.557H328.668C330.253 140.963 328.14 153.342 318.631 165.613C312.424 173.721 300.141 179.559 282.312 182.965C239.918 191.127 173.884 184.424 127 177.829V179.559C158.564 183.992 198.449 188.37 234.371 188.37C252.465 188.316 269.634 187.235 284.161 184.424Z" fill="#6F6F6F"/>
<path d="M1073.99 168.093C1048.52 188.51 936.399 185.743 935.119 185.691C872.274 185.691 813.909 183.863 762.456 182.192C685.915 179.738 619.742 177.649 570.848 182.819C544.994 185.534 524.899 190.181 509.539 196.97C492.9 204.28 481.637 214.149 474.981 227.047C452.838 270.178 394.857 275.348 348.139 279.473C319.98 281.979 295.661 284.12 287.598 294.355C280.302 303.702 288.75 322.291 309.357 341.716C331.372 362.55 361.322 378.686 389.481 384.847C398.569 386.831 407.656 387.824 416.232 387.824C432.615 387.824 448.102 384.273 461.67 377.328C482.277 366.78 499.044 355.292 515.299 344.17C545.634 323.388 571.744 305.477 612.319 301.456C637.277 299.002 666.332 302.031 700.89 310.855C746.712 322.5 778.455 326.155 798.038 322.03C822.357 316.913 824.789 301.091 827.348 284.277C830.804 261.719 834.388 238.378 891.217 239.422C904.273 239.631 916.816 239.788 928.976 239.788C1051.85 239.788 1131.59 227.934 1166.02 204.437C1193.16 186.004 1186.24 163.759 1175.75 148.408C1170.76 141.045 1164.48 134.57 1158.98 129.557H1154.76C1160.39 134.57 1166.92 141.306 1172.04 148.878C1190.6 176.187 1177.16 193.732 1162.69 203.653C1125.57 228.927 1034.19 240.467 891.345 237.908C864.083 237.438 845.908 242.137 835.796 252.32C826.964 261.145 825.173 272.893 823.509 284.277C821.077 300.621 818.645 316.025 796.246 320.724C777.943 324.589 747.48 320.933 702.81 309.602C667.228 300.569 637.277 297.436 611.295 300.046C569.185 304.224 542.562 322.395 511.843 343.491C495.716 354.561 478.949 365.997 458.47 376.44C438.503 386.623 415.848 388.972 391.017 383.542C363.626 377.537 334.188 361.715 312.557 341.194C292.718 322.395 284.014 303.806 290.926 294.929C298.349 285.53 320.492 283.546 348.651 281.092C372.202 279.003 398.825 276.653 422.631 269.238C450.15 260.675 468.453 246.994 478.437 227.412C490.852 203.131 519.523 189.868 571.488 184.385C593.247 182.088 618.718 181.252 647.005 181.252C681.307 181.252 720.089 182.505 761.816 183.811C813.397 185.43 871.762 187.309 934.607 187.309C934.607 187.309 934.607 187.309 934.735 187.309C934.991 187.309 963.918 188.093 995.533 186.213C1038.54 183.706 1065.93 177.858 1077.19 168.877C1089.35 159.112 1081.54 145.953 1053.9 129.609H1049.29C1077.45 145.797 1085.64 158.694 1073.99 168.093Z" fill="#6F6F6F"/>
<path d="M1082.29 188.052C1061.28 198.933 997.719 203.445 898.669 201.11C823.452 199.358 753.745 194.209 753.104 194.156C752.72 194.103 710.178 190.971 662.255 194.846C633.937 197.075 609.334 201.269 588.96 207.32C563.461 214.857 544.625 225.261 533.092 238.213C510.796 263.32 485.81 280.465 456.594 290.656C431.223 299.521 406.493 301.856 383.428 303.502C349.728 305.89 338.323 314.808 334.736 321.868C327.56 335.669 344.858 354.3 371.767 361.784C379.071 363.801 386.503 364.81 393.679 364.81C400.342 364.81 406.877 363.96 413.028 362.209C438.271 355.096 464.154 341.401 491.576 326.963C543.728 299.415 597.674 270.963 651.876 285.242C659.82 287.312 667.509 289.382 674.812 291.399C714.535 302.175 746.057 310.721 765.918 306.687C777.707 304.298 784.37 297.981 786.805 286.728C791.802 263.479 801.028 245.963 829.859 236.09C850.361 229.03 879.576 226.429 919.299 228.021C1030.52 232.533 1103.82 224.359 1137.26 203.817C1164.04 187.362 1159.43 165.97 1150.84 150.895C1145.97 142.35 1139.31 134.812 1134.06 129.557H1129.96C1135.21 134.759 1142.13 142.456 1147.13 151.267C1155.46 166.023 1159.94 186.937 1134.06 202.914C1101.51 222.926 1029.37 230.835 919.683 226.429C878.935 224.783 848.823 227.544 827.424 234.869C797.696 245.113 788.086 262.948 782.96 286.622C780.654 297.132 774.632 303.236 764.252 305.307C746.313 308.916 715.688 300.635 676.991 290.126C669.559 288.108 661.871 286.038 653.926 283.968C628.17 277.174 600.365 278.872 568.971 289.17C541.549 298.088 514.641 312.313 488.629 326.061C461.464 340.446 435.708 353.981 410.977 360.988C396.498 365.075 382.915 363.005 373.946 360.51C348.19 353.344 331.66 335.456 338.452 322.239C341.911 315.657 352.547 307.324 384.069 305.094C407.646 303.396 432.889 301.007 459.029 291.877C488.757 281.473 514.128 264.116 536.68 238.744C547.956 226.057 566.28 215.919 591.011 208.594C610.872 202.702 635.09 198.615 662.768 196.385C680.707 194.952 697.877 194.475 712.357 194.475C735.934 194.475 752.079 195.695 752.336 195.695C752.976 195.748 822.939 200.897 898.412 202.649C1000.15 205.038 1063.07 200.473 1085.24 189.007C1107.15 177.701 1112.27 162.52 1099.97 144.95C1095.74 138.952 1090.23 133.644 1085.36 129.557H1081.01C1086.01 133.591 1091.9 139.112 1096.26 145.375C1104.59 157.318 1108.94 174.304 1082.29 188.052Z" fill="#6F6F6F"/>
<path fill-rule="evenodd" clip-rule="evenodd" d="M676.135 208.825C689.861 206.098 705.125 205.521 719.236 207.252C732.961 208.93 743.352 212.444 750.022 217.688C770.033 233.474 752.331 261.218 740.016 276.322C736.809 280.308 732.833 282.406 727.574 282.878C726.804 282.93 726.034 282.983 725.265 282.983C716.719 282.983 706.906 278.887 694.69 273.788L694.478 273.7C682.805 268.823 669.593 263.316 653.687 259.435C627.134 252.932 614.05 245.642 614.819 237.67C616.23 223.772 660.742 211.919 676.135 208.825ZM726.801 281.357C730.521 280.99 733.728 279.207 736.422 275.85C764.642 241.131 754.893 224.978 746.555 218.475C740.398 213.65 730.777 210.398 718.078 208.825C713.075 208.196 707.944 207.881 702.685 207.881C694.219 207.881 685.753 208.668 677.8 210.241C662.92 213.231 619.947 224.611 618.664 237.722C617.895 245.065 630.466 251.935 655.736 258.071C671.875 261.968 685.748 267.769 696.981 272.466L697.297 272.598L697.443 272.659C709.439 277.668 719.774 281.984 726.801 281.357Z" fill="#6F6F6F"/>
<path fill-rule="evenodd" clip-rule="evenodd" d="M686.925 235.276C690.878 234.352 695.282 234.134 699.348 234.733C703.413 235.331 706.462 236.527 708.382 238.377C714.029 243.598 709.173 252.572 705.785 257.467C705.22 258.392 704.091 259.643 701.606 259.914C701.268 259.969 701.042 259.969 700.703 259.969C697.907 259.969 695.221 258.635 691.659 256.866L691.555 256.814C688.506 255.291 685.005 253.551 680.827 252.354C673.261 250.179 669.534 247.677 669.76 244.903C670.183 239.705 684.785 235.844 686.716 235.333C686.846 235.299 686.918 235.28 686.925 235.276ZM700.933 258.283C701.272 258.283 701.95 257.848 702.627 256.923C705.112 253.17 710.645 243.924 705.563 239.084C703.982 237.67 701.724 236.745 698.562 236.31C697.319 236.147 695.964 236.038 694.722 236.038C692.576 236.038 690.543 236.256 688.511 236.745C685.462 237.506 673.604 241.042 673.265 245.012C673.039 247.079 676.201 249.091 682.638 250.94C687.156 252.246 690.995 254.149 694.044 255.672C694.198 255.746 694.354 255.821 694.511 255.898C696.912 257.057 699.768 258.436 700.933 258.283Z" fill="#6F6F6F"/>
<path d="M1927 250.045C1855.89 229.565 1770.25 212.516 1702.36 222.08C1653.24 228.994 1619.16 249.162 1601.29 282.012C1593.06 297.19 1572.48 306.755 1540.21 310.445C1479.77 317.41 1383.07 301.401 1315.57 273.176C1261.43 250.617 1239.7 225.823 1255.9 205.187C1270.95 186.059 1275.19 165.267 1268.63 143.488C1267.22 138.861 1265.29 134.235 1262.97 129.557H1258.99C1261.43 134.339 1263.36 139.017 1264.77 143.696C1271.33 165.267 1267.09 185.851 1252.3 204.771C1235.59 225.979 1257.7 251.293 1312.87 274.32C1345.01 287.73 1385.39 299.01 1426.67 306.079C1455.98 311.121 1484.27 313.668 1509.22 313.668C1520.79 313.668 1531.59 313.096 1541.37 312.005C1574.54 308.21 1596.66 297.97 1605.14 282.376C1622.76 250.097 1655.81 230.345 1703.64 223.588C1770.76 214.127 1856.28 231.489 1927 252.02V250.045V250.045Z" fill="#6F6F6F"/>
<path d="M1927 210.093C1874.73 191.842 1792.73 175.682 1726.1 181.173C1684.72 184.573 1653.2 195.816 1632.57 214.486C1604 240.32 1567.74 258.414 1524.69 268.351C1478.57 278.967 1437.57 277.189 1411.31 273.842C1379.53 269.763 1352.11 261.186 1334.05 249.681C1315.34 237.81 1308.42 223.795 1314.7 210.25C1327.64 182.115 1332.64 155.025 1329.43 129.557H1325.59C1328.67 154.868 1323.8 181.905 1310.99 209.936C1304.58 223.899 1311.63 238.28 1330.84 250.465C1349.42 262.284 1377.61 271.07 1410.28 275.254C1423.99 277.032 1438.08 277.869 1452.18 277.869C1477.42 277.869 1502.91 275.097 1526.62 269.658C1570.43 259.565 1607.21 241.209 1636.16 215.061C1656.28 196.862 1686.77 185.985 1726.87 182.638C1759.42 179.97 1798.49 182.376 1839.88 189.698C1870.88 195.189 1902.14 203.242 1927 212.133V210.093V210.093Z" fill="#6F6F6F"/>
<path d="M1087.39 847.115C1084.13 845.881 1079.98 845.388 1075.2 845.585C1058.98 846.276 1036.85 855.402 1020.13 863.443H1025.03C1041 855.846 1061.37 847.707 1075.58 847.065C1079.22 846.917 1082.24 847.263 1084.75 848.2C1093.43 851.406 1103.11 857.277 1111.91 863.443H1116.31C1107.13 856.931 1096.7 850.617 1087.39 847.115Z" fill="#6F6F6F"/>
<path d="M1927 179.955C1916.43 180.327 1904.69 180.327 1892.18 179.848C1848.21 178.147 1795.09 171.13 1746.35 160.497C1689.87 148.164 1642.67 166.558 1588.13 187.823C1546.61 204.037 1499.54 222.378 1441.26 229.023C1420.76 231.362 1404.9 230.14 1393.94 225.515C1356.67 209.619 1381.56 157.574 1398.58 129.557H1394.58C1389.42 138.116 1383.49 148.802 1378.85 159.966C1364.54 194.681 1368.66 217.115 1391.1 226.684C1399.22 230.14 1409.67 231.841 1422.31 231.841C1428.49 231.841 1435.07 231.416 1442.29 230.618C1501.35 223.92 1548.93 205.419 1590.71 189.045C1644.22 168.206 1690.38 150.184 1744.41 161.986C1794.19 172.884 1846.54 179.795 1891.67 181.496C1904.3 181.975 1916.17 182.028 1926.87 181.656V179.955H1927Z" fill="#6F6F6F"/>
<path d="M1452.74 198.442C1454.81 198.546 1456.75 198.599 1458.83 198.599C1493.27 198.599 1531.73 183.337 1552.32 173.825C1579.65 161.282 1606.19 144.975 1624.71 129.557H1620.44C1602.18 144.609 1576.15 160.498 1549.47 172.78C1512.7 189.714 1478.51 198.285 1453.26 196.874C1442.77 196.299 1435.91 194.365 1432.28 191.073C1418.68 178.529 1455.46 149.365 1484.34 129.609H1479.8C1474.11 133.582 1468.02 137.867 1462.19 142.31C1430.47 166.404 1419.2 183.024 1428.78 191.7C1432.8 195.515 1440.96 197.815 1452.74 198.442Z" fill="#6F6F6F"/>
<path d="M1499.05 165.302C1499.84 165.356 1500.78 165.356 1501.71 165.356C1509.71 165.356 1522.37 163.404 1539.96 155.213C1553.03 149.193 1565.55 141.002 1572.89 133.842C1574.09 132.649 1575.42 131.184 1576.62 129.611H1572.49C1571.55 130.75 1570.49 131.944 1569.29 133.191C1554.23 147.945 1519.84 164.814 1499.71 163.621C1495.98 163.404 1493.58 162.753 1492.25 161.56C1485.45 155.268 1513.04 136.663 1524.9 129.557H1520.1C1511.57 134.819 1480.52 154.617 1488.65 162.21C1490.38 163.946 1493.85 164.977 1499.05 165.302Z" fill="#6F6F6F"/>
<path d="M1926.88 159.158C1909.9 163.112 1890.2 164.555 1868.15 163.326C1843.49 161.99 1815.86 157.502 1785.88 149.968C1759.74 143.396 1736.32 135.595 1719.72 129.557H1714.02C1731 135.809 1755.9 144.304 1784.02 151.357C1814.5 158.998 1842.63 163.593 1867.78 164.929C1872.98 165.196 1878.06 165.356 1883.14 165.356C1899.25 165.356 1913.87 163.914 1927 160.975V159.158H1926.88Z" fill="#6F6F6F"/>
<path fill-rule="evenodd" clip-rule="evenodd" d="M1098.45 599.526C1123.06 593.576 1165.69 593.417 1225.2 599.101C1266.32 603.057 1301.65 608.554 1306.72 609.343C1306.89 609.37 1307.03 609.391 1307.13 609.407C1345.39 612.328 1350.15 614.931 1349.89 616.844C1349.64 619.447 1339.33 623.006 1261.53 627.787C1213.22 630.762 1155.65 633.206 1113.65 634.959L1103.22 635.384C1095.62 635.702 1088.79 635.862 1082.61 635.862C1059.04 635.862 1045.25 633.524 1041.65 628.956C1035.08 620.722 1065.35 607.547 1098.45 599.526ZM1260.76 626.247C1337.15 621.519 1345.65 618.066 1345.78 616.791C1345.91 616.153 1343.2 613.816 1305.97 610.947L1305.59 610.894C1305.57 610.892 1305.45 610.874 1305.25 610.841C1301.41 610.237 1265.75 604.625 1224.18 600.642C1201.64 598.464 1174.71 596.551 1150.24 596.551C1131.05 596.551 1113.27 597.773 1100.26 600.907C1083.9 604.891 1068.57 610.044 1058.14 615.091C1047.19 620.456 1042.55 625.184 1045.13 628.478C1049.12 633.365 1068.96 635.224 1102.58 633.79L1113.14 633.418C1116.25 633.285 1119.43 633.148 1122.7 633.008C1163.58 631.255 1216.15 629.002 1260.76 626.247Z" fill="#6F6F6F"/>
<path fill-rule="evenodd" clip-rule="evenodd" d="M1130.11 265.781C1129.04 261.789 1143.59 257.098 1173.23 251.759C1192.72 248.266 1215.82 249.364 1232.1 254.603C1244.92 258.745 1258.8 264.633 1251.86 269.523C1246.52 273.315 1229.57 275.311 1207.01 275.311C1191.92 275.311 1174.3 274.413 1155.87 272.567C1139.18 270.92 1130.77 268.675 1130.11 265.781ZM1156.81 271.12C1199.4 275.411 1240.38 274.363 1248.26 268.824C1252.8 265.681 1246.26 261.14 1229.44 255.751C1220.09 252.807 1208.48 251.26 1196.73 251.26C1189.25 251.26 1181.78 251.859 1174.83 253.106C1147.73 257.996 1133.18 262.437 1133.98 265.631C1134.51 267.776 1142.39 269.673 1156.81 271.12Z" fill="#6F6F6F"/>
<path d="M1537.42 847.241C1470.05 843.791 1430.48 820.69 1380.57 791.421C1366.6 783.268 1352.12 774.801 1335.83 766.02C1294.96 744.016 1249.19 730.793 1199.92 726.717C1143.92 722.117 1082.37 729.225 1017.07 747.832C945.299 768.268 841.461 801.143 752.364 831.666C727.406 840.237 694.819 851.631 662.879 863.443H668.569C693.914 854.14 722.751 843.896 754.821 832.868C843.788 802.397 947.497 769.522 1019.14 749.138C1140.82 714.487 1246.34 720.497 1332.59 767.013C1348.76 775.742 1363.24 784.209 1377.21 792.362C1427.77 821.944 1467.72 845.255 1536.78 848.809C1585.79 851.317 1613.85 856.23 1620.57 863.443H1624.71C1618.37 855.342 1589.02 849.906 1537.42 847.241Z" fill="#6F6F6F"/>
<path d="M1172.22 787.061C1147.92 782.754 1122.98 783.273 1098.03 788.565C1036.19 801.642 980.139 817.105 931.412 834.592C901.456 845.333 878.829 855.192 862.115 863.443H867.258C905.313 844.918 978.853 815.496 1099.7 789.915C1123.62 784.881 1147.4 784.362 1170.54 788.462C1217.21 796.712 1253.73 822.138 1276.1 842.064C1284.71 849.64 1291.91 857.06 1297.7 863.443H1301.81C1295.9 856.905 1288.57 849.277 1279.7 841.442C1246.78 812.124 1210.53 793.806 1172.22 787.061Z" fill="#6F6F6F"/>
<path opacity="0.459984" d="M1693.92 540.728C1697.64 541.093 1701.09 541.249 1704.41 541.249C1722.2 541.249 1734.68 536.3 1739.32 530.987C1744.9 524.475 1740.52 515.723 1717.68 511.972C1680.78 505.877 1654.9 504.054 1640.56 506.502C1634.06 507.596 1631.01 510.201 1631.67 513.848C1632.6 518.484 1639.63 524.267 1650.52 529.372C1662.73 535.102 1678.13 539.113 1693.92 540.728Z" fill="#6F6F6F" stroke="#545454" stroke-width="13.187"/>
<path fill-rule="evenodd" clip-rule="evenodd" d="M562.487 678.96C557.709 675.162 558.528 669.676 571.905 666.616C592.108 662.027 619.41 664.137 630.194 667.724C634.835 669.254 636.473 671.047 634.698 672.735C631.149 676.323 617.498 680.015 594.292 683.655C590.88 684.183 587.467 684.446 584.327 684.446C574.226 684.446 566.309 681.914 562.487 678.96ZM592.79 682.178C614.631 678.749 627.872 675.268 631.012 672.155C632.377 670.836 629.919 669.676 627.462 668.937C621.729 667.038 610.399 665.614 598.387 665.614C590.06 665.614 581.46 666.3 573.952 667.988C562.758 670.52 561.939 674.951 566.171 678.222C570.403 681.492 580.504 684.13 592.79 682.178Z" fill="#6F6F6F"/>
<path fill-rule="evenodd" clip-rule="evenodd" d="M779.143 810.228C774.089 815.309 719.282 826.396 701.142 829.322C697.255 829.989 693.627 830.246 689.999 830.194C678.856 830.194 670.175 827.371 665.899 823.984C660.457 819.672 661.494 813.462 676.265 810.023C702.178 803.966 764.501 802.991 776.94 807.2C779.531 808.021 780.309 809.099 779.143 810.228ZM678.209 811.357C665.512 814.334 664.605 819.518 669.399 823.317C674.193 827.115 685.725 830.194 699.588 827.885C722.522 824.138 771.37 813.667 775.386 809.663C775.775 809.304 775.905 808.893 774.35 808.38C763.207 804.633 701.921 805.814 678.209 811.357Z" fill="#6F6F6F"/>
<path d="M236.179 163.621C257.881 158.117 250.647 140.614 243.547 129.557H239.394C241.27 132.334 243.011 135.557 244.485 138.928C247.968 147.506 249.04 158.563 233.902 162.431C216.219 166.894 180.317 161.043 127 145.027V146.961C168.126 159.208 199.34 165.356 220.238 165.356C226.4 165.307 231.759 164.761 236.179 163.621Z" fill="#6F6F6F"/>
<path fill-rule="evenodd" clip-rule="evenodd" d="M996.68 513.121C977.955 513.121 957.956 512.376 943.689 510.24C923.308 507.21 922.289 502.69 925.091 499.411C928.021 495.884 934.008 493.301 943.052 491.761C959.23 489.029 984.706 489.675 1018.72 493.748C1043.81 496.778 1064.57 500.603 1064.83 500.653C1075.53 502.739 1075.91 504.726 1074.51 506.018C1070.31 509.743 1043.81 511.929 1020.5 512.724C1013.24 512.972 1005.09 513.121 996.68 513.121ZM944.579 493.103C936.554 494.444 931.204 496.729 928.656 499.858C925.472 503.733 930.949 506.763 945.216 508.849C962.03 511.333 990.818 512.227 1020.24 511.234C1047.38 510.29 1068.27 507.906 1071.07 505.422C1072.47 504.13 1067.5 502.839 1063.17 501.994C1061.9 501.746 1006.61 491.613 966.871 491.613C958.591 491.613 950.948 492.01 944.579 493.103Z" fill="#6F6F6F"/>
<path d="M1696.35 813.811C1628.39 808.827 1620.28 790.189 1609.98 766.567C1598.4 740.193 1584.11 707.382 1480.1 681.216C1427.97 668.133 1378.03 659.93 1327.31 656.14C1282 652.766 1236.95 652.973 1189.84 656.815C1102.31 663.98 1019.67 683.085 939.608 701.515C864.693 718.803 787.204 736.715 703.793 745.541C658.999 750.317 616.264 752.082 573.143 751.044C524.744 749.85 477.118 745.125 427.689 736.559C341.318 721.607 255.462 716.415 172.567 721.088C157.249 721.97 142.06 723.164 127 724.722V726.331C142.318 724.774 157.635 723.528 173.21 722.645C255.462 717.973 340.546 723.164 426.273 737.961C487.158 748.5 543.537 752.861 596.698 752.861C725.032 752.861 834.572 727.577 941.539 702.917C1024.95 683.656 1103.6 665.485 1190.61 658.373C1237.21 654.531 1281.74 654.323 1326.54 657.698C1376.87 661.436 1426.43 669.587 1478.04 682.566C1523.74 694.039 1580.63 708.316 1606.25 766.826C1611.53 779.027 1616.16 789.566 1628.39 798.028C1641.9 807.425 1663.4 812.928 1695.71 815.316C1791.35 822.377 1848.24 833.539 1874.63 850.464C1880.94 854.461 1885.57 858.822 1888.66 863.443H1892.65C1889.43 858.511 1884.67 853.942 1877.85 849.633C1850.81 832.345 1793.15 820.923 1696.35 813.811Z" fill="#6F6F6F"/>
<path d="M1621.65 831.03C1540.69 826.178 1533.1 816.423 1516.62 795.158C1502.2 776.629 1480.45 748.551 1395.37 707.828C1280.94 653.014 1159.56 687.285 1019 726.976C876.515 767.235 714.976 812.81 517.782 779.984C442.226 767.39 366.026 761.196 291.113 761.454C235.379 761.661 180.16 765.48 127 772.809V774.461C180.16 767.08 235.25 763.261 291.113 763.054C365.511 762.745 441.196 768.99 516.238 781.48C605.052 796.294 694.767 796.552 790.275 782.358C873.812 769.919 948.724 748.757 1021.19 728.318C1090.7 708.705 1156.34 690.176 1217.74 683.569C1285.57 676.24 1341.05 684.292 1392.41 708.912C1476.98 749.428 1498.6 777.3 1512.89 795.726C1529.36 816.991 1537.73 827.675 1621.14 832.681C1669.92 835.623 1700.43 842.849 1711.88 854.153C1714.71 856.991 1716.39 860.088 1717.03 863.443H1720.89C1720.38 859.882 1718.58 856.578 1715.49 853.585C1703.39 841.61 1671.85 834.075 1621.65 831.03Z" fill="#6F6F6F"/>
<path d="M1215.52 760.453C1179.81 750.84 1131.9 751.152 1073.2 761.545C1026.57 769.755 973 784.304 913.911 804.673C853.537 825.562 799.586 848.426 765.931 863.443H771.069C804.724 848.426 857.391 826.186 916.352 805.817C975.184 785.499 1028.36 771.054 1074.61 762.896C1132.03 752.763 1178.66 752.347 1213.21 761.701C1293.5 783.369 1336.14 819.95 1373.78 852.219C1378.28 856.012 1382.52 859.753 1386.88 863.391H1391.12C1386.5 859.546 1381.87 855.596 1377.25 851.543C1339.61 819.119 1296.71 782.33 1215.52 760.453Z" fill="#6F6F6F"/>
<path d="M1119.97 815.791C1103.51 811.037 1082.24 811.14 1056.79 816.101C1036.79 820.029 1014.13 826.955 989.437 836.723C965.887 846.078 944.743 856.259 930.816 863.443H935.754C975.256 843.338 1065.78 802.044 1117.69 817.032C1151.24 826.748 1170.87 846.026 1187.83 863.443H1191.89C1174.67 845.716 1154.79 825.869 1119.97 815.791Z" fill="#6F6F6F"/>
<path d="M482.868 815.141C449.934 811.781 415.846 808.32 385.219 804.197C309.227 793.865 221.189 802.569 160.703 811.679C148.785 813.461 137.508 815.344 127 817.227V818.907C137.893 816.973 149.682 814.988 162.113 813.105C221.958 804.096 309.099 795.494 383.937 805.673C414.565 809.847 448.78 813.308 481.842 816.668C556.168 824.2 626.394 831.326 631.263 844.254C633.314 849.7 623.831 856.063 602.558 863.443H608.197C628.316 856.063 637.158 849.65 635.108 844C629.726 830.054 561.679 823.132 482.868 815.141Z" fill="#6F6F6F"/>
<path d="M438.345 836.583C412.637 834.793 381.347 834.898 352.524 836.899C299.161 840.586 194.774 852.383 127 860.336V861.968C194.774 854.016 299.811 842.166 353.303 838.427C381.736 836.478 412.507 836.32 437.825 838.111C474.439 840.691 487.292 846.116 491.707 850.276C495.732 854.016 494.693 858.44 488.721 863.443H493.135C498.848 858.282 499.497 853.647 495.212 849.644C486.513 841.534 459.508 838.058 438.345 836.583Z" fill="#6F6F6F"/>
<path d="M284.683 546.519C342.676 562.376 380.525 585.118 413.755 605.199C451.476 627.941 484.193 647.605 535.257 650.787C540.004 651.1 544.88 651.204 549.755 651.204C589.144 651.204 635.974 641.972 695.378 622.516C739.899 607.911 776.978 594.663 809.695 582.927C878.721 558.151 928.631 540.26 983.801 534.47C1040.13 528.524 1101.97 534.783 1197.17 556.012C1274.92 573.382 1367.68 585.326 1451.46 588.769C1490.47 590.386 1525.88 590.073 1553.97 587.778C1583.61 585.378 1604.4 581.049 1615.56 574.842C1630.83 566.34 1634.55 550.536 1565.14 523.465C1482.13 491.073 1387.7 487.161 1287.75 483.041C1221.54 480.329 1153.03 477.46 1083.88 466.141C1005.61 453.362 937.74 431.142 876.284 398.333C830.865 374.079 777.876 362.604 722.834 365.16C685.37 366.881 648.548 374.913 613.393 388.944C578.11 403.132 546.291 422.692 519.091 447.103C498.819 465.202 476.495 474.487 450.449 475.425C394.125 477.46 328.947 438.966 266.079 401.724C234.645 383.103 202.185 363.908 171.264 350.138C155.226 342.887 140.6 337.619 127 334.125V336.054C170.238 347.634 217.196 375.383 263 402.506C294.562 421.179 327.279 440.531 358.713 454.614C392.329 469.636 421.068 476.99 446.344 476.99C447.883 476.99 449.423 476.938 450.963 476.886C478.419 475.895 501.898 466.35 522.683 447.676C549.755 423.422 581.189 404.019 616.215 389.988C650.729 376.165 686.782 368.289 723.348 366.62C776.85 364.169 828.812 375.435 873.333 399.22C935.174 432.289 1003.69 454.614 1082.46 467.497C1152.13 478.92 1220.9 481.737 1287.36 484.501C1386.67 488.622 1480.46 492.482 1562.57 524.508C1630.06 550.849 1626.98 565.871 1612.61 573.851C1591.57 585.483 1531.52 590.438 1451.97 587.152C1368.71 583.709 1276.46 571.817 1199.09 554.552C1102.99 533.114 1040.38 526.855 982.903 532.906C926.835 538.8 876.669 556.795 807.257 581.727C774.54 593.463 737.589 606.712 693.068 621.264C627.121 642.859 577.212 651.726 535.898 649.17C486.502 646.145 454.298 626.741 416.963 604.26C383.476 584.074 345.498 561.228 286.864 545.163C238.238 531.862 191.921 525.186 148.683 525.186C141.37 525.186 134.185 525.395 127 525.76V527.325C175.626 524.769 228.487 531.132 284.683 546.519Z" fill="#6F6F6F"/>
<path d="M199.312 701.666C258.991 702.034 325.761 706.918 384.667 711.173C469.095 717.318 535.606 722.15 543.856 711.015C556.23 694.313 516.014 680.499 449.245 657.652C401.424 641.264 341.744 620.885 277.939 591.577C229.989 569.623 182.168 559.643 136.023 562.059C133.187 562.217 130.222 562.427 127 562.69V564.318C130.094 564.055 133.316 563.793 136.538 563.635C181.395 561.324 227.927 571.093 275.104 592.68C339.166 622.093 398.846 642.525 446.796 658.965C512.276 681.392 551.848 694.943 540.247 710.648C533.029 720.417 464.584 715.427 385.44 709.702C299.981 703.452 199.57 696.151 127 702.507V704.135C147.624 702.296 171.599 701.509 199.312 701.666Z" fill="#6F6F6F"/>
<path d="M372.078 694.675C405.954 694.675 424.977 692.175 428.625 687.124C436.703 676.117 369.342 656.282 328.3 645.435C270.321 630.067 201.266 615.603 164.133 610.977C151.755 609.435 139.247 608.372 127 607.734V609.329C138.857 609.967 150.974 611.03 162.96 612.519C199.833 617.092 268.497 631.45 326.085 646.764C393.185 664.578 430.058 679.467 424.716 686.645C419.504 693.664 373.121 694.941 294.034 690.261C230.061 686.539 163.221 679.998 127.13 675.851V677.499C163.612 681.7 230.061 688.134 293.643 691.91C325.304 693.771 351.492 694.675 372.078 694.675Z" fill="#6F6F6F"/>
<path d="M203.807 663.99C219.35 663.99 228.028 662.763 229.711 660.308C233.338 655.4 207.433 647.237 185.026 641.262C165.727 636.086 143.708 631.178 127 628.19V629.951C143.32 632.939 164.432 637.687 182.954 642.649C211.708 650.331 228.157 656.947 225.955 659.881C222.458 664.63 170.52 661.962 127 657.961V659.561C140.082 660.735 154.718 661.909 168.965 662.763C183.213 663.563 194.74 663.99 203.807 663.99Z" fill="#6F6F6F"/>
<path fill-rule="evenodd" clip-rule="evenodd" d="M564.307 623.076C560.596 623.076 557.013 622.919 553.559 622.554C522.21 619.418 497.259 610.324 481.393 596.371C465.399 582.156 460.025 563.812 466.039 543.273C471.541 524.773 487.535 506.429 512.614 490.228C601.797 432.479 675.882 400.809 732.821 396.105C751.118 394.59 767.88 395.896 782.339 400.025C836.564 415.41 871.935 430.386 903.129 443.595L904.278 444.081L904.557 444.199C952.791 464.63 990.935 480.787 1074.46 490.123C1127.3 496.029 1152.25 501.464 1150.59 506.795C1149.31 510.923 1131.39 514.216 1097.23 516.62C1064.09 518.919 1016.24 520.33 958.914 520.644C915.666 520.905 870.754 527.752 821.492 541.705C778.5 553.934 737.811 569.874 701.856 583.985C648.756 604.837 602.309 623.076 564.307 623.076ZM515.943 491.064C491.249 507.056 475.382 525.19 470.008 543.482C464.123 563.707 469.369 581.789 485.107 595.743C500.333 609.279 524.388 618.059 554.585 621.09C557.784 621.404 561.111 621.56 564.438 621.56C600.775 621.56 646.708 603.531 699.167 582.941L699.172 582.939C735.127 568.776 775.944 552.784 819.32 540.503C869.222 526.393 914.901 519.389 958.917 519.128C1016.11 518.815 1063.71 517.404 1096.59 515.104C1138.95 512.125 1146.24 508.519 1146.88 506.638C1148.67 500.68 1096.21 494.147 1073.56 491.639C988.858 482.127 950.344 465.822 901.722 445.178L901.195 444.955C869.976 431.736 834.625 416.766 780.294 401.331C770.314 398.509 759.31 397.098 747.283 397.098C742.932 397.098 738.326 397.307 733.72 397.673C677.932 402.272 604.615 433.681 515.943 491.064Z" fill="#6F6F6F"/>
<path fill-rule="evenodd" clip-rule="evenodd" d="M1474.47 566.468C1414.47 562.935 1346.02 557.064 1305.59 553.063C1238.04 546.412 1209.12 540.541 1205.93 532.748C1202.98 525.734 1221.66 517.265 1264.52 506.094C1287.94 500.015 1318.39 498.717 1355.36 502.353C1384.66 505.211 1418.05 511.134 1454.64 519.967C1515.54 534.67 1565.31 552.647 1567.74 553.531C1585.65 558.674 1592.82 562.519 1589.62 565.377C1586.55 568.026 1574.27 569.377 1552.26 569.377C1533.45 569.377 1507.61 568.39 1474.47 566.468ZM1316.85 501.886C1297.4 501.886 1280.64 503.756 1266.57 507.393C1225.76 518.044 1207.2 526.253 1209.63 532.384C1213.22 541.165 1260.55 546.984 1306.36 551.504C1417.41 562.467 1576.44 573.17 1585.91 564.701C1587.19 563.558 1586.29 560.752 1565.31 554.725L1565.18 554.673C1565.15 554.664 1564.96 554.595 1564.61 554.47C1558.85 552.42 1510.84 535.32 1452.59 521.265C1416.39 512.537 1383.38 506.666 1354.46 503.86C1341.03 502.561 1328.49 501.886 1316.85 501.886Z" fill="#6F6F6F"/>
<path fill-rule="evenodd" clip-rule="evenodd" d="M1422.58 545.237C1400.46 543.841 1375.12 541.534 1360.21 539.978C1338.71 537.724 1324.18 535.417 1322.56 531.554C1321.32 528.549 1328.15 525.168 1344.68 520.607C1360.58 516.154 1384.68 517.978 1415.99 526.027C1438.23 531.715 1456.5 538.69 1457.87 539.227C1462.84 540.729 1468.18 542.715 1466.31 544.485C1465.32 545.451 1462.46 546.363 1451.53 546.363C1445.07 546.363 1435.87 546.041 1422.58 545.237ZM1364.68 519.91C1358.1 519.91 1352.01 520.554 1346.79 522.002C1332.38 525.973 1325.42 529.139 1326.16 531.285C1327.41 534.451 1344.43 536.651 1360.95 538.368C1416.49 544.217 1460.47 546.041 1462.83 543.841C1462.83 543.841 1463.58 543.036 1455.63 540.568L1455.5 540.515C1455.48 540.507 1455.39 540.473 1455.24 540.415C1451.12 538.863 1400.86 519.91 1364.68 519.91Z" fill="#6F6F6F"/>
<path d="M1724.4 259.389C1693.18 264.063 1674.68 276.247 1648.86 293.156C1636.39 301.348 1622.13 310.643 1604.28 320.516C1546.21 352.392 1487.75 340.681 1390.88 321.304C1340.91 311.273 1278.6 298.828 1201.64 289.795C1089.74 276.667 1015.1 277.349 973.472 291.896C935.315 305.234 923.239 329.863 935.315 369.407C945.85 403.698 1008.8 430.113 1122.37 447.968C1229.39 464.772 1356.06 469.551 1421.97 470.969C1536.57 473.332 1637.16 480.579 1721.19 492.395C1788.25 501.847 1844.91 514.241 1889.49 529.26C1904.13 534.196 1916.59 539.08 1927 543.806V541.496C1917.11 537.189 1905.67 532.673 1892.31 528.157C1847.35 512.98 1790.3 500.482 1722.73 490.977C1638.32 479.109 1537.21 471.862 1422.23 469.446C1356.45 468.081 1230.29 463.302 1123.79 446.55C1011.63 428.958 949.447 402.963 939.17 369.302C927.222 330.336 938.913 306.18 976.041 293.209C1016.64 279.03 1090.13 278.4 1200.61 291.423C1277.31 300.456 1339.36 312.849 1389.21 322.827C1438.42 332.699 1477.34 340.471 1512.03 341.837C1549.67 343.307 1579.09 337.058 1607.36 321.566C1625.34 311.694 1639.61 302.346 1652.2 294.101C1677.5 277.454 1695.88 265.429 1725.81 260.965C1757.42 256.239 1800.2 260.23 1869.06 274.303C1890 278.61 1909.27 283.336 1927 288.325V286.329C1909.78 281.498 1891.03 276.982 1870.73 272.833C1800.71 258.549 1757.03 254.506 1724.4 259.389Z" fill="#6F6F6F"/>
<path d="M1800.41 308.572C1768.79 308.941 1742.06 315.113 1720.98 326.93C1701.83 337.639 1688.34 347.398 1676.26 355.944C1637.45 383.64 1619.71 396.301 1500.83 377.151C1466.13 371.559 1425.26 363.435 1381.95 354.836C1262.68 331.098 1127.48 304.193 1055.89 317.276C1034.3 321.18 1019.52 328.671 1011.94 339.433C1001.66 353.992 1005.64 367.181 1024.02 378.628C1050.75 395.245 1107.05 408.434 1195.98 418.984C1265.12 427.214 1354.19 433.808 1476.03 439.822C1595.68 445.73 1719.57 461.451 1824.7 484.029C1863.9 492.47 1898.73 501.543 1927 510.564V508.454C1899.11 499.697 1865.18 490.94 1826.37 482.605C1720.85 459.921 1596.45 444.148 1476.28 438.239C1354.57 432.226 1265.77 425.631 1196.88 417.402C1108.84 406.957 1053.32 393.927 1027.11 377.679C1009.37 366.653 1005.52 353.94 1015.41 339.802C1022.87 329.357 1036.49 322.446 1057.18 318.7C1127.22 305.934 1261.53 332.68 1380.02 356.261C1423.33 364.912 1464.33 373.036 1499.16 378.628C1557.89 388.071 1594.01 390.181 1619.97 385.592C1645.03 381.16 1659.42 370.926 1679.21 356.736C1691.17 348.19 1704.66 338.536 1723.68 327.88C1743.99 316.485 1769.69 310.524 1800.15 310.154C1843.08 309.68 1889.73 320.441 1926.87 331.889V329.884C1868.52 311.948 1826.37 308.255 1800.41 308.572Z" fill="#6F6F6F"/>
<path d="M1793.58 347.253C1770.82 348.812 1754.01 355.982 1743.54 368.554C1712.25 406.013 1639.08 403.467 1590.6 401.804C1564.22 400.869 1545.09 400.246 1542.76 406.324C1539.79 414.013 1550.26 419.936 1576.12 424.872C1599.13 429.288 1632.23 432.717 1670.5 436.613C1750.65 444.822 1853.31 455.368 1926.87 482.436V480.306C1852.92 453.706 1751.04 443.263 1671.4 435.106C1595.38 427.313 1540.56 421.703 1546.51 406.532C1548.19 402.116 1563.45 402.428 1590.21 403.363C1615.03 404.194 1645.8 405.285 1674.89 401.337C1709.28 396.661 1732.94 386.114 1747.16 369.074C1757.12 357.125 1773.02 350.267 1794.22 348.812C1834.17 346.007 1886.79 362.164 1927 377.646V375.464C1924.93 374.633 1922.73 373.854 1920.54 373.022C1868.3 353.696 1825.64 345.019 1793.58 347.253Z" fill="#6F6F6F"/>
<path d="M1846.8 387.175C1826.71 384.124 1809.76 384.723 1796.72 389.027C1786.02 392.513 1781.46 397.47 1783.02 403.735C1788.63 425.415 1867.79 457.336 1927 472.208V470.247C1900.79 463.546 1871.57 453.741 1846.54 443.119C1810.8 427.921 1789.54 413.867 1786.81 403.462C1785.37 397.852 1789.41 393.385 1799.06 390.225C1834.15 378.731 1891.92 398.887 1927 413.812V411.47C1918.91 408.038 1909.65 404.443 1899.87 401.011C1880.44 394.256 1862.58 389.572 1846.8 387.175Z" fill="#6F6F6F"/>
<path fill-rule="evenodd" clip-rule="evenodd" d="M1482.67 405.387C1483.12 405.514 1483.36 405.585 1483.4 405.596C1498.67 410.201 1504.06 413.978 1499.44 416.823C1494.31 419.876 1477.76 421.066 1455.94 421.066C1426.04 421.066 1386.01 418.841 1350.84 415.995C1265.25 409.114 1183.64 397.421 1132.56 384.745C1075.07 370.465 1055.57 354.995 1076.23 339.991C1081.75 335.956 1090.99 333.369 1103.56 332.23C1144.11 328.609 1220.47 339.836 1330.31 365.705C1407.51 383.812 1474.94 403.168 1482.67 405.387ZM1448.63 419.41C1484.18 419.772 1493.67 417.341 1496.11 415.892C1500.34 413.409 1490.34 409.58 1481.1 406.838C1477.76 405.855 1226.24 333.11 1119.86 333.11C1114.21 333.11 1109.08 333.317 1104.33 333.731C1092.91 334.766 1084.57 337.094 1079.57 340.716C1069.3 348.166 1069.43 355.72 1080.08 363.222C1089.7 370.052 1108.06 376.829 1134.49 383.4C1185.18 395.973 1266.28 407.614 1351.49 414.443C1388.06 417.392 1422.58 419.152 1448.63 419.41Z" fill="#6F6F6F"/>
<path fill-rule="evenodd" clip-rule="evenodd" d="M1356.37 389.835C1357.3 390.059 1357.81 390.184 1357.87 390.195C1359.78 390.745 1365.78 392.495 1362.85 394.145C1361.19 395.145 1356.08 395.495 1349.18 395.495C1330.28 395.495 1298.23 392.595 1290.06 391.845C1247.53 387.845 1208.07 382.095 1184.57 376.445C1160.95 370.745 1152.77 365.195 1160.18 359.945C1161.97 358.696 1165.03 357.846 1169.12 357.446C1185.72 355.796 1222.63 360.795 1278.69 372.345C1315.56 379.941 1349.01 388.05 1356.37 389.835ZM1290.95 390.345C1334.37 394.395 1357.61 394.495 1359.78 393.245C1360.04 393.195 1359.65 392.595 1355.57 391.395C1351.99 390.495 1221.48 358.595 1176.4 358.595C1173.97 358.595 1171.93 358.695 1170.01 358.895C1166.82 359.195 1164.77 359.795 1163.5 360.645C1157.24 365.045 1164.9 369.895 1186.48 375.095C1209.6 380.695 1248.68 386.395 1290.95 390.345Z" fill="#6F6F6F"/>
<path fill-rule="evenodd" clip-rule="evenodd" d="M590.799 584.163C578.022 586.38 567.545 587.277 558.984 587.277C541.608 587.277 532.153 583.583 526.787 579.678C492.672 554.719 569.717 474.353 674.488 443.009C705.791 433.669 733.9 429.87 757.921 431.77C777.725 433.353 794.718 438.682 808.517 447.653C822.061 456.412 828.577 466.544 827.683 476.992C826.788 487.387 818.483 497.36 803.79 505.803L799.829 508.072L799.598 508.205C750.862 536.183 700.507 565.092 590.799 584.163ZM676.788 444.381C629.385 458.576 582.75 484.802 552.085 514.51C523.337 542.319 514.777 567.647 530.109 578.939C540.458 586.485 560.262 587.752 589.266 582.686C698.125 563.742 748.211 534.984 796.635 507.122L800.596 504.853C814.906 496.674 822.956 487.018 823.85 476.939C824.744 466.808 818.356 456.993 805.323 448.55C792.163 440.002 775.937 434.883 757.282 433.406C753.449 433.089 749.488 432.931 745.528 432.931C725.212 432.931 702.214 436.783 676.788 444.381Z" fill="#6F6F6F"/>
<path fill-rule="evenodd" clip-rule="evenodd" d="M630.758 549.49C622.636 550.887 615.955 551.478 610.584 551.478C600.235 551.478 594.602 549.382 591.589 547.18C582.55 540.625 588.052 526.764 605.868 511.023C624.47 494.69 652.372 479.862 680.668 471.481C699.401 465.947 716.169 463.691 730.709 464.819C742.63 465.732 752.979 468.902 761.232 474.275C777.607 484.912 776.559 498.451 758.35 508.82C729.4 525.313 697.829 537.885 630.758 549.49ZM683.028 472.824C655.387 481.044 627.877 495.603 609.538 511.721C592.377 526.71 586.744 540.356 595.128 546.427C600.63 550.457 612.158 550.994 629.318 548.039C695.604 536.596 726.65 524.185 755.208 507.906C772.5 498.075 773.548 485.234 757.959 475.188C750.23 470.245 740.929 467.29 730.056 466.431C727.829 466.269 725.602 466.162 723.244 466.162C711.323 466.162 697.962 468.418 683.028 472.824Z" fill="#6F6F6F"/>
<path d="M1870.04 551.295C1837.17 543.343 1804.44 541.658 1778.02 546.556C1738.71 553.77 1720.67 573.992 1736.13 593.582C1740.13 598.637 1737.68 602.692 1728.92 605.852C1701.21 615.752 1611.64 616.595 1483.02 608.116C1371.93 600.797 1252.2 587.579 1191.76 575.888C1141.62 566.198 1101.15 564.618 1071.38 571.096C1044.96 576.836 1027.57 589.158 1020.99 606.642C1011.2 632.815 876.521 657.776 768.264 677.787C691.453 692.006 630.752 703.223 622.633 712.438C621.215 714.018 621.344 715.493 623.019 716.862C630.237 722.971 647.893 724.024 680.499 720.285C710.527 716.809 753.057 709.384 806.799 699.958C890.182 685.318 1004.5 665.254 1151.16 646.138C1271.4 630.497 1375.92 632.288 1461.75 651.457C1508.28 661.884 1548.49 677.261 1581.22 697.167C1609.19 714.229 1631.49 734.609 1645.53 756.147C1655.84 771.945 1678.4 785.111 1712.68 795.274C1740.39 803.489 1775.96 809.809 1818.23 814.074C1851.22 817.392 1888.73 819.393 1927 819.972V818.393C1888.98 817.813 1851.87 815.812 1819.13 812.494C1777.37 808.334 1742.32 802.068 1715 793.958C1681.49 784.005 1659.45 771.155 1649.27 755.673C1635.09 733.924 1612.67 713.386 1584.45 696.219C1551.32 676.049 1510.73 660.514 1463.56 649.982C1376.82 630.55 1271.27 628.76 1150 644.505C1003.08 663.621 888.765 683.685 805.252 698.378C698.671 717.072 639.902 727.394 626.499 716.072C625.339 715.071 625.21 714.018 626.241 712.86C633.845 704.276 696.866 692.585 769.94 679.104C824.326 669.045 886.058 657.618 934.645 645.506C990.836 631.498 1020.35 618.807 1024.86 606.747C1031.17 589.79 1047.93 577.889 1073.19 572.36C1101.93 566.093 1141.24 567.725 1190.21 577.204C1280.17 594.583 1499.77 615.331 1633.16 615.331C1679.17 615.331 1715 612.856 1731.62 606.905C1741.68 603.324 1744.51 598.637 1740 592.95C1725.18 574.15 1742.32 554.718 1779.82 547.819C1828.02 538.972 1881.38 552.348 1926.87 573.307V570.622C1908.06 562.459 1889.11 555.929 1870.04 551.295Z" fill="#6F6F6F"/>
<path d="M1855.01 577.986C1841.67 576.311 1829.09 576.887 1817.67 579.662C1784.18 587.883 1791.49 602.964 1797.91 616.317C1802.4 625.586 1806.64 634.331 1796.24 639.201C1789.06 642.552 1775.07 643.966 1753.64 643.442C1704.75 642.29 1657.78 638.049 1620.06 634.645C1569.88 630.142 1533.57 626.843 1520.35 632.865C1516.38 634.698 1514.45 636.74 1514.84 638.991C1515.86 646.113 1538.96 654.439 1568.35 664.964C1610.56 680.15 1663.17 699.106 1681.27 724.556C1698.98 749.376 1722.84 773.936 1778.02 785.299C1799.19 789.645 1823.96 791.844 1852.57 791.844C1874.9 791.844 1899.67 790.535 1926.87 787.865V786.241C1865.28 792.316 1816.77 791.53 1779.69 783.885C1725.92 772.784 1702.31 748.591 1684.86 724.084C1666.38 698.216 1613.39 679.103 1570.78 663.76C1542.17 653.444 1519.58 645.328 1518.56 638.834C1518.3 637.002 1519.84 635.378 1523.18 633.86C1534.85 628.518 1572.07 631.87 1619.29 636.111C1657.14 639.515 1704.36 643.757 1753.51 644.909C1776.22 645.432 1791.11 643.861 1799.19 640.091C1810.74 634.645 1806.38 625.534 1801.76 615.899C1795.22 602.441 1788.54 588.564 1819.72 580.919C1830.12 578.353 1841.67 577.882 1853.99 579.348C1875.67 582.019 1900.7 591.182 1927 605.897V603.174C1905.7 591.706 1880.29 581.076 1855.01 577.986Z" fill="#6F6F6F"/>
<path d="M1880.63 628.981C1862.13 631.46 1849.21 639.741 1848.57 649.658C1848.19 655.882 1845.15 659.732 1838.94 662.106C1825.51 667.222 1794.72 666.431 1738.72 665.007L1732.13 664.849C1710.47 664.321 1698.68 665.482 1694.76 668.488C1688.8 673.183 1703.37 681.147 1723.64 692.224C1741.76 702.088 1764.32 714.325 1776.99 727.406C1786.74 737.428 1803.34 744.337 1826.15 747.977C1839.58 750.087 1854.27 750.931 1868.97 750.931C1889.75 750.931 1910.4 749.296 1927 747.45V745.762C1896.59 749.19 1858.45 751.353 1827.54 746.5C1805.75 743.072 1789.91 736.426 1780.53 726.826C1767.61 713.534 1744.93 701.191 1726.69 691.275C1708.69 681.517 1693.24 673.077 1698.05 669.279C1701.09 666.906 1712.12 666.009 1731.75 666.484L1738.34 666.642C1797.13 668.119 1826.78 668.857 1841.35 663.319C1848.45 660.629 1851.87 656.409 1852.25 649.71C1852.88 640.48 1864.66 632.779 1881.64 630.511C1895.2 628.717 1910.78 630.353 1927 635.047V633.043C1906.22 627.293 1890.13 627.715 1880.63 628.981Z" fill="#6F6F6F"/>
<path d="M1850.1 684.91C1838.41 690.399 1834.8 697.338 1840.03 704.484C1845.75 712.251 1866.9 716.653 1902.86 717.533C1907.59 717.637 1912.32 717.689 1916.8 717.689C1920.28 717.689 1923.77 717.637 1927 717.585V716.032C1897.01 716.498 1851.72 715.255 1843.51 703.966C1838.66 697.338 1842.02 690.916 1852.72 685.893C1867.65 678.903 1894.4 675.33 1926.88 675.796V674.242C1893.53 673.88 1865.78 677.608 1850.1 684.91Z" fill="#6F6F6F"/>
<path d="M269.619 522.618C318.628 530.814 365.433 538.692 397.069 538.692C405.626 538.692 413.016 538.11 419.11 536.841C427.667 535.044 433.113 531.818 435.446 527.324C441.021 516.749 413.405 506.544 371.527 491.104C330.038 475.823 273.249 454.937 223.073 423.635C188.975 402.432 156.95 388.79 127.13 382.709V384.454C155.783 390.535 186.77 403.86 219.702 424.481C270.267 455.995 327.185 476.933 368.804 492.267C409.645 507.337 436.743 517.277 431.557 526.954C429.353 531.025 424.685 533.775 417.165 535.361C390.327 541.124 332.372 531.395 271.045 521.085C230.593 514.316 188.715 507.284 152.412 504.111C143.336 503.318 134.779 502.79 127 502.525V504.111C134.52 504.376 142.818 504.852 151.634 505.645C187.678 508.87 229.426 515.85 269.619 522.618Z" fill="#6F6F6F"/>
<path d="M245.358 492.664C258.234 492.664 266.405 491.339 269.748 488.739C277.919 482.215 253.281 469.778 196.331 451.632C170.579 443.476 143.838 435.933 127 431.294V433.078C183.331 448.523 279.404 477.73 266.529 488.026C263.805 490.218 256.377 491.186 245.977 491.186C218.616 491.186 170.084 484.764 127 477.933V479.565C136.285 481.043 146.066 482.521 155.97 483.948C196.083 489.759 226.044 492.664 245.358 492.664Z" fill="#6F6F6F"/>
<path fill-rule="evenodd" clip-rule="evenodd" d="M799.759 616.524C806.613 611.863 813.847 607.663 821.463 603.975C845.577 592.194 882.13 586.048 918.809 587.482C940.385 588.353 951.3 591.426 951.427 596.702C951.681 614.168 820.066 650.637 760.795 653.198C752.165 653.608 745.565 653.761 740.615 653.761C729.954 653.761 726.4 652.993 725.131 651.866C722.593 649.51 731.731 646.129 746.961 640.495L746.961 640.495C763.207 634.502 785.418 626.307 799.759 616.524ZM876.039 629.38C920.333 616.678 947.875 604.129 947.748 596.753C947.748 592.399 937.848 589.787 918.684 589.07C915.257 588.916 911.83 588.865 908.403 588.865C876.42 588.865 845.705 594.704 824.51 604.948C817.022 608.534 809.914 612.734 803.188 617.292C788.723 627.191 766.404 635.429 750.069 641.459L749.628 641.622L749.052 641.835C738.316 645.815 727.317 649.892 728.813 651.2C729.702 652.02 735.921 652.737 760.543 651.661C787.704 650.483 833.013 641.724 876.039 629.38Z" fill="#6F6F6F"/>
<path d="M252.785 336.806C281.752 358.484 312.78 380.791 343.035 397.075C376.381 414.931 405.348 423.623 431.741 423.623C431.999 423.623 432.256 423.623 432.514 423.623C458.778 423.466 481.952 414.878 503.324 397.494C548.256 360.998 601.428 338.691 657.175 333.089C695.284 329.266 734.423 333.036 773.433 344.399C803.431 353.143 824.802 356.023 838.449 353.248C858.662 349.164 859.821 333.927 861.109 316.333C862.525 297.011 864.07 275.071 892.523 265.018C905.783 260.358 923.55 258.63 946.853 259.677C1007.88 262.505 1065.94 258.735 1114.74 248.89C1161.09 239.518 1197.01 225.223 1218.51 207.524C1238.98 190.716 1244.9 171.761 1235.89 152.806C1232.15 144.899 1225.85 137.15 1217.22 129.557H1212.84C1242.97 155.424 1244.64 182.652 1215.16 206.844C1194.05 224.228 1158.77 238.261 1113.19 247.477C1065.04 257.216 1007.62 260.881 947.368 258.106C923.293 257.007 903.981 258.892 890.076 263.814C860.336 274.286 858.791 296.592 857.246 316.228C856.088 332.617 854.929 348.117 836.776 351.782C824.416 354.295 804.46 351.415 775.621 343.038C735.581 331.413 695.413 327.538 656.145 331.466C599.24 337.225 545.166 359.793 499.848 396.709C479.12 413.517 457.104 421.79 432.514 421.947C432.256 421.947 431.999 421.947 431.741 421.947C375.737 421.947 314.325 379.482 256.132 335.916C220.469 309.369 177.211 291.042 127 281.303V283.031C175.666 292.718 217.895 310.73 252.785 336.806Z" fill="#6F6F6F"/>
<path d="M300.05 270.197C322.193 270.197 341.649 268.881 357.648 266.197C394.127 260.091 412.302 247.617 411.662 228.984C411.022 210.72 422.926 197.14 448.013 187.508C509.835 163.612 642.95 167.717 784.002 172.139C804.737 172.77 826.24 173.455 847.36 174.034C867.967 174.613 886.91 174.876 904.318 174.876C983.803 174.876 1028.86 169.033 1038.71 157.401C1045.62 149.19 1034.11 139.242 1015.67 129.557H1010.68C1029.63 139.189 1041.66 149.032 1035.13 156.927C1023.87 170.296 960.892 175.56 847.744 172.507C826.624 171.928 805.121 171.244 784.386 170.612C642.567 166.191 508.555 162.033 445.453 186.403C419.598 196.403 407.31 210.352 407.95 229.089C408.59 246.985 391.183 259.039 356.368 264.829C311.57 272.303 238.74 268.881 156.311 255.46C146.455 253.88 136.728 252.144 127 250.354V252.091C136.216 253.828 145.559 255.46 154.903 256.933C208.917 265.671 259.092 270.197 300.05 270.197Z" fill="#6F6F6F"/>
<path d="M226.936 218.951C273.001 217.808 312.028 207.985 343.122 189.742L348.24 186.728C385.988 164.587 404.926 153.465 432.949 148.839C460.972 144.214 498.975 145.877 574.727 149.255C583.94 149.671 593.793 150.087 604.157 150.554C693.984 154.452 758.987 155.804 802.877 154.556C845.231 153.361 869.287 149.879 878.5 143.59C884.13 139.744 883.874 135.066 879.268 129.557H875.301C879.908 134.858 880.42 139.276 875.173 142.81C866.728 148.475 843.056 151.854 802.621 152.997C758.859 154.245 694.112 152.945 604.541 148.995C594.176 148.527 584.324 148.112 575.111 147.696C498.719 144.266 460.46 142.55 431.413 147.384C402.367 152.218 383.173 163.444 345.041 185.844L339.923 188.859C309.469 206.686 271.465 216.301 226.68 217.392C203.647 217.964 170.25 216.353 127 208.141V209.856C165.004 216.976 195.458 219.055 218.106 219.055C221.305 219.055 224.248 219.003 226.936 218.951Z" fill="#6F6F6F"/>
<path d="M284.161 184.475C303.047 180.85 315.989 174.681 322.461 166.133C332.102 153.688 334.215 141.136 332.63 129.557H328.668C330.253 140.973 328.14 153.364 318.631 165.646C312.424 173.762 300.141 179.605 282.312 183.014C239.918 191.13 174.016 184.475 127 177.82V179.551C158.564 183.988 198.449 188.37 234.371 188.37C252.465 188.37 269.634 187.234 284.161 184.475Z" fill="#6F6F6F"/>
<path d="M1073.99 168.093C1048.65 188.51 936.399 185.743 935.119 185.691C872.274 185.691 813.909 183.863 762.456 182.192C685.915 179.738 619.742 177.649 570.848 182.819C544.994 185.534 524.899 190.181 509.539 196.97C492.9 204.28 481.637 214.149 474.981 227.047C452.838 270.178 394.857 275.348 348.139 279.473C319.98 281.979 295.661 284.12 287.598 294.355C280.302 303.702 288.75 322.291 309.357 341.716C331.372 362.55 361.322 378.686 389.481 384.847C398.569 386.831 407.656 387.824 416.232 387.824C432.615 387.824 448.102 384.273 461.67 377.328C482.277 366.78 499.044 355.292 515.299 344.17C545.634 323.388 571.744 305.477 612.319 301.456C637.277 299.002 666.332 302.031 700.89 310.855C746.712 322.5 778.455 326.155 798.038 322.03C822.357 316.913 824.789 301.091 827.348 284.277C830.804 261.719 834.388 238.378 891.217 239.422C904.273 239.631 916.816 239.788 928.976 239.788C1051.85 239.788 1131.59 227.934 1166.02 204.437C1193.16 186.004 1186.24 163.759 1175.75 148.408C1170.76 141.045 1164.48 134.57 1158.98 129.557H1154.76C1160.39 134.57 1166.92 141.306 1172.04 148.878C1190.6 176.187 1177.16 193.732 1162.69 203.653C1125.57 228.927 1034.19 240.467 891.345 237.908C864.083 237.438 845.908 242.137 835.796 252.32C826.964 261.145 825.173 272.893 823.509 284.277C821.077 300.621 818.645 316.025 796.246 320.724C777.943 324.589 747.48 320.933 702.81 309.602C667.228 300.569 637.277 297.436 611.295 300.046C569.185 304.224 542.562 322.395 511.843 343.491C495.716 354.561 478.949 365.997 458.47 376.44C438.503 386.623 415.848 388.972 391.017 383.542C363.626 377.537 334.188 361.715 312.557 341.194C292.718 322.395 284.014 303.806 290.926 294.929C298.349 285.53 320.492 283.546 348.651 281.092C372.202 279.003 398.825 276.653 422.631 269.238C450.15 260.675 468.453 246.994 478.437 227.412C490.852 203.131 519.523 189.868 571.488 184.385C593.247 182.088 618.718 181.252 647.005 181.252C681.307 181.252 720.089 182.505 761.816 183.811C813.397 185.43 871.762 187.309 934.607 187.309C934.607 187.309 934.607 187.309 934.735 187.309C934.991 187.309 963.918 188.093 995.533 186.213C1038.54 183.706 1065.93 177.858 1077.19 168.877C1089.35 159.112 1081.54 145.953 1053.9 129.609H1049.29C1077.45 145.744 1085.64 158.694 1073.99 168.093Z" fill="#6F6F6F"/>
<path d="M1082.29 185.495C1061.28 196.376 997.719 200.888 898.669 198.552C823.452 196.801 753.745 191.652 753.104 191.599C752.72 191.546 710.178 188.414 662.255 192.289C633.937 194.518 609.334 198.712 588.96 204.763C563.461 212.3 544.625 222.704 533.092 235.656C510.796 260.763 485.81 277.908 456.594 288.099C431.223 296.964 406.493 299.299 383.428 300.945C349.728 303.333 338.323 312.251 334.736 319.311C327.56 333.111 344.858 351.743 371.767 359.227C379.071 361.244 386.503 362.253 393.679 362.253C400.342 362.253 406.877 361.403 413.028 359.652C438.271 352.539 464.154 338.844 491.576 324.406C543.728 296.857 597.674 268.406 651.876 282.685C659.82 284.755 667.509 286.825 674.812 288.842C714.535 299.618 746.057 308.164 765.918 304.129C777.707 301.741 784.37 295.424 786.805 284.171C791.802 260.922 801.028 243.405 829.859 233.532C850.361 226.473 879.576 223.872 919.299 225.464C1030.52 229.976 1103.82 221.802 1137.26 201.26C1164.04 184.805 1159.43 163.413 1150.84 148.338C1145.97 139.792 1139.31 132.255 1134.06 127H1129.96C1135.21 132.202 1142.13 139.899 1147.13 148.71C1155.46 163.466 1159.94 184.38 1134.06 200.357C1101.51 220.369 1029.37 228.278 919.683 223.872C878.935 222.226 848.823 224.987 827.424 232.312C797.696 242.556 788.086 260.391 782.96 284.065C780.654 294.575 774.632 300.679 764.252 302.749C746.313 306.359 715.688 298.078 676.991 287.568C669.559 285.551 661.871 283.481 653.926 281.411C628.17 274.617 600.365 276.315 568.971 286.613C541.549 295.53 514.641 309.756 488.629 323.504C461.464 337.889 435.708 351.424 410.977 358.431C396.498 362.518 382.915 360.448 373.946 357.953C348.19 350.787 331.66 332.899 338.452 319.682C341.911 313.1 352.547 304.766 384.069 302.537C407.646 300.838 432.889 298.45 459.029 289.32C488.757 278.916 514.128 261.559 536.68 236.187C547.956 223.5 566.28 213.362 591.011 206.037C610.872 200.145 635.09 196.058 662.768 193.828C680.707 192.395 697.877 191.917 712.357 191.917C735.934 191.917 752.079 193.138 752.336 193.138C752.976 193.191 822.939 198.34 898.412 200.092C1000.15 202.48 1063.07 197.915 1085.24 186.45C1107.15 175.197 1112.27 159.963 1099.97 142.446C1095.74 136.448 1090.23 131.14 1085.36 127.053H1081.01C1086.01 131.087 1091.9 136.608 1096.26 142.871C1104.59 154.708 1108.81 171.747 1082.29 185.495Z" fill="#6F6F6F"/>
<path fill-rule="evenodd" clip-rule="evenodd" d="M669.263 208.825C682.988 206.098 698.253 205.521 712.364 207.252C726.217 208.93 736.608 212.444 743.15 217.688C763.161 233.474 745.459 261.218 733.144 276.322C729.937 280.308 725.961 282.406 720.702 282.878C719.932 282.93 719.162 282.983 718.393 282.983C709.847 282.983 700.034 278.887 687.818 273.788L687.606 273.7C675.933 268.823 662.721 263.316 646.815 259.435C620.262 252.932 607.177 245.642 607.947 237.67C609.358 223.772 653.87 211.919 669.263 208.825ZM719.929 281.357C723.649 280.99 726.856 279.207 729.55 275.85C757.898 241.131 748.15 224.978 739.683 218.475C733.526 213.65 723.905 210.398 711.206 208.825C706.203 208.196 701.072 207.881 695.813 207.881C687.347 207.881 678.881 208.668 670.927 210.241C656.047 213.231 613.075 224.611 611.792 237.722C611.023 245.065 623.594 251.935 648.864 258.071C665.003 261.968 678.876 267.769 690.109 272.466L690.425 272.598L690.571 272.659C702.567 277.668 712.902 281.984 719.929 281.357Z" fill="#6F6F6F"/>
<path fill-rule="evenodd" clip-rule="evenodd" d="M680.052 232.719C684.005 231.795 688.409 231.577 692.475 232.175C696.427 232.774 699.476 233.97 701.509 235.819C707.156 241.041 702.3 250.015 698.912 254.91C698.347 255.834 697.218 257.085 694.733 257.357C694.395 257.412 694.169 257.412 693.83 257.412C691.033 257.412 688.348 256.078 684.786 254.308L684.682 254.257C681.633 252.734 678.132 250.994 673.954 249.797C666.388 247.622 662.661 245.12 662.887 242.346C663.31 237.148 677.912 233.287 679.843 232.776C679.973 232.742 680.045 232.723 680.052 232.719ZM693.945 255.726C694.284 255.726 694.962 255.291 695.639 254.366C698.237 250.613 703.657 241.367 698.575 236.527C696.994 235.112 694.736 234.188 691.574 233.753C690.331 233.59 688.976 233.481 687.734 233.481C685.588 233.481 683.555 233.698 681.523 234.188C678.474 234.949 666.616 238.485 666.277 242.455C666.051 244.522 669.213 246.534 675.65 248.383C680.167 249.689 684.007 251.592 687.056 253.115C687.21 253.189 687.366 253.264 687.523 253.34C689.924 254.5 692.78 255.879 693.945 255.726Z" fill="#6F6F6F"/>
<path d="M1700.13 222.08C1651.25 228.994 1617.34 249.162 1599.55 282.012C1591.36 297.19 1570.89 306.755 1538.77 310.445C1478.63 317.41 1382.41 301.401 1315.23 273.176C1261.36 250.617 1239.74 225.823 1255.86 205.187C1270.83 186.059 1275.05 165.267 1268.53 143.488C1267.12 138.913 1265.2 134.235 1262.9 129.557H1258.93C1261.36 134.339 1263.28 139.017 1264.69 143.696C1271.21 165.267 1266.99 185.851 1252.27 204.771C1235.64 225.979 1257.65 251.293 1312.54 274.32C1344.53 287.73 1384.71 299.01 1425.79 306.079C1454.96 311.121 1483.11 313.668 1507.94 313.668C1519.45 313.668 1530.2 313.096 1539.92 312.005C1572.94 308.21 1594.95 297.97 1603.39 282.376C1620.92 250.097 1653.81 230.345 1701.41 223.588C1769.23 213.972 1856.11 232.06 1927 253.008V251.085C1855.6 230.137 1768.71 212.412 1700.13 222.08Z" fill="#6F6F6F"/>
<path d="M1721.61 181.173C1679.99 184.573 1648.29 195.816 1627.55 214.486C1598.81 240.32 1562.35 258.414 1519.05 268.351C1472.67 278.967 1431.43 277.189 1405.02 273.842C1373.06 269.763 1345.49 261.186 1327.32 249.681C1308.51 237.81 1301.55 223.795 1307.86 210.25C1320.88 182.115 1325.78 154.973 1322.68 129.557H1318.82C1321.91 154.868 1317.01 181.905 1304.13 209.936C1297.69 223.899 1304.77 238.28 1324.1 250.465C1342.78 262.284 1371.13 271.07 1403.99 275.254C1417.78 277.032 1431.95 277.869 1446.12 277.869C1471.51 277.869 1497.15 275.097 1520.99 269.658C1565.05 259.565 1602.03 241.209 1631.16 215.061C1651.39 196.862 1682.05 185.985 1722.38 182.638C1755.11 179.97 1794.41 182.376 1836.03 189.698C1868.63 195.398 1901.62 203.974 1927 213.335V211.243C1874.56 192.522 1790.03 175.578 1721.61 181.173Z" fill="#6F6F6F"/>
<path d="M1087.39 847.339C1084.13 845.93 1079.98 845.366 1075.2 845.591C1058.98 846.381 1036.85 856.81 1020.13 866H1025.03C1041 857.318 1061.37 848.016 1075.58 847.283C1079.22 847.114 1082.24 847.508 1084.75 848.579C1093.43 852.244 1103.11 858.953 1111.91 866H1116.31C1107.13 858.558 1096.82 851.285 1087.39 847.339Z" fill="#6F6F6F"/>
<path d="M1888.93 179.902C1845.22 178.2 1792.42 171.183 1743.97 160.551C1687.83 148.217 1640.92 166.611 1586.7 187.876C1545.43 204.09 1498.64 222.431 1440.71 229.076C1420.33 231.416 1404.56 230.193 1393.67 225.568C1356.63 209.672 1381.49 157.627 1398.41 129.557H1394.44C1389.31 138.116 1383.42 148.802 1378.8 159.966C1364.57 194.681 1368.68 217.115 1390.98 226.684C1399.05 230.14 1409.43 231.841 1422 231.841C1428.15 231.841 1434.68 231.416 1441.86 230.618C1500.57 223.92 1547.86 205.419 1589.39 189.045C1642.58 168.206 1688.47 150.184 1742.17 161.986C1791.65 172.884 1843.69 179.795 1888.55 181.496C1902.52 182.028 1915.34 182.028 1927 181.496V179.902C1915.59 180.433 1902.77 180.433 1888.93 179.902Z" fill="#6F6F6F"/>
<path d="M1452.74 198.442C1454.81 198.546 1456.75 198.599 1458.83 198.599C1493.27 198.599 1531.73 183.337 1552.32 173.825C1579.65 161.282 1606.19 144.975 1624.71 129.557H1620.44C1602.18 144.609 1576.15 160.498 1549.47 172.78C1512.7 189.714 1478.51 198.285 1453.26 196.874C1442.77 196.299 1435.91 194.365 1432.28 191.073C1418.68 178.529 1455.46 149.365 1484.34 129.609H1479.8C1474.11 133.582 1468.02 137.867 1462.19 142.31C1430.47 166.404 1419.2 183.024 1428.78 191.7C1432.93 195.515 1440.96 197.762 1452.74 198.442Z" fill="#6F6F6F"/>
<path d="M1499.05 165.302C1499.84 165.356 1500.78 165.356 1501.71 165.356C1509.71 165.356 1522.37 163.404 1539.96 155.213C1553.03 149.193 1565.55 141.002 1572.89 133.842C1574.09 132.649 1575.42 131.184 1576.62 129.611H1572.49C1571.55 130.75 1570.49 131.944 1569.29 133.191C1554.23 147.945 1519.84 164.814 1499.71 163.621C1495.98 163.404 1493.58 162.753 1492.25 161.56C1485.45 155.268 1513.04 136.663 1524.9 129.557H1520.1C1511.57 134.819 1480.52 154.617 1488.65 162.21C1490.38 164 1493.98 165.031 1499.05 165.302Z" fill="#6F6F6F"/>
<path d="M1863.79 163.326C1838.74 161.99 1810.66 157.502 1780.18 149.968C1753.62 143.396 1729.82 135.595 1712.95 129.557H1707.15C1724.4 135.809 1749.71 144.304 1778.3 151.357C1809.27 158.998 1837.85 163.593 1863.41 164.929C1868.7 165.196 1873.87 165.356 1879.03 165.356C1896.78 165.356 1912.77 163.647 1927 160.227V158.357C1908.74 162.899 1887.72 164.608 1863.79 163.326Z" fill="#6F6F6F"/>
<path fill-rule="evenodd" clip-rule="evenodd" d="M1098.45 599.526C1123.06 593.576 1165.69 593.417 1225.2 599.101C1267.84 603.191 1304.17 608.929 1307.13 609.407C1345.39 612.328 1350.15 614.931 1349.89 616.844C1349.64 619.447 1339.33 623.006 1261.53 627.787C1213.22 630.762 1155.65 633.206 1113.65 634.959L1103.22 635.384C1095.62 635.702 1088.79 635.862 1082.61 635.862C1059.04 635.862 1045.25 633.524 1041.65 628.956C1035.08 620.722 1065.35 607.547 1098.45 599.526ZM1260.89 626.247C1337.27 621.519 1345.77 618.066 1345.9 616.791C1345.9 616.153 1343.2 613.816 1306.23 611L1305.84 610.947C1305.82 610.945 1305.71 610.927 1305.5 610.894C1301.66 610.29 1266.01 604.679 1224.43 600.695C1201.89 598.517 1174.97 596.604 1150.49 596.604C1131.3 596.604 1113.53 597.826 1100.52 600.96C1084.16 604.945 1068.83 610.097 1058.39 615.144C1047.44 620.509 1042.81 625.237 1045.38 628.531C1049.38 633.418 1069.21 635.277 1102.83 633.843L1113.27 633.418C1116.37 633.285 1119.56 633.148 1122.82 633.008C1163.7 631.255 1216.27 629.002 1260.89 626.247Z" fill="#6F6F6F"/>
<path fill-rule="evenodd" clip-rule="evenodd" d="M1130.11 265.781C1129.04 261.789 1143.59 257.098 1173.23 251.759C1192.72 248.266 1215.95 249.364 1232.1 254.603C1244.92 258.745 1258.8 264.633 1251.86 269.523C1246.52 273.315 1229.57 275.311 1207.01 275.311C1191.92 275.311 1174.3 274.413 1155.87 272.567C1139.18 270.92 1130.77 268.675 1130.11 265.781ZM1156.94 271.12C1199.53 275.411 1240.51 274.363 1248.39 268.824C1252.79 265.631 1246.39 261.14 1229.56 255.751C1220.22 252.807 1208.6 251.26 1196.85 251.26C1189.38 251.26 1181.9 251.859 1174.96 253.106C1147.86 257.996 1133.31 262.437 1134.11 265.631C1134.64 267.776 1142.52 269.673 1156.94 271.12Z" fill="#6F6F6F"/>
<path d="M1537.42 847.241C1470.05 843.791 1430.48 820.69 1380.57 791.421C1366.6 783.268 1352.12 774.801 1335.83 766.02C1294.96 744.016 1249.19 730.793 1199.92 726.717C1143.92 722.117 1082.37 729.225 1017.07 747.832C945.299 768.268 841.461 801.143 752.364 831.666C727.406 840.237 694.819 851.631 662.879 863.443H668.569C693.914 854.14 722.751 843.896 754.821 832.868C843.788 802.397 947.497 769.522 1019.14 749.138C1140.82 714.487 1246.34 720.497 1332.59 767.013C1348.76 775.742 1363.24 784.209 1377.21 792.362C1427.77 821.944 1467.72 845.255 1536.78 848.809C1585.79 851.317 1613.85 856.23 1620.57 863.443H1624.71C1618.37 855.342 1589.02 849.906 1537.42 847.241Z" fill="#6F6F6F"/>
<path d="M1167.37 787.154C1143.45 782.708 1118.9 783.244 1094.35 788.707C1033.47 802.205 978.294 818.167 930.329 836.218C900.842 847.306 878.568 857.483 862.115 866H867.178C904.638 846.878 977.029 816.507 1095.99 790.1C1119.53 784.904 1142.94 784.368 1165.73 788.6C1211.67 797.117 1247.61 823.363 1269.63 843.932C1278.11 851.752 1285.19 859.412 1290.89 866H1294.94C1289.12 859.251 1281.9 851.377 1273.17 843.289C1240.77 813.025 1205.08 794.117 1167.37 787.154Z" fill="#6F6F6F"/>
<path fill-rule="evenodd" clip-rule="evenodd" d="M562.487 678.96C557.709 675.162 558.528 669.676 571.905 666.616C591.972 662.027 619.41 664.137 630.194 667.724C634.835 669.254 636.473 671.047 634.698 672.735C631.149 676.323 617.498 680.015 594.292 683.655C590.88 684.183 587.467 684.446 584.327 684.446C574.226 684.446 566.309 681.914 562.487 678.96ZM592.654 682.178C614.495 678.749 627.736 675.267 630.876 672.155C632.241 670.836 629.784 669.623 627.327 668.937C621.594 667.038 610.264 665.614 598.251 665.614C589.924 665.614 581.324 666.299 573.816 667.987C562.623 670.52 561.804 674.951 566.036 678.221C570.267 681.492 580.369 684.13 592.654 682.178Z" fill="#6F6F6F"/>
<path fill-rule="evenodd" clip-rule="evenodd" d="M772.273 810.228C767.22 815.31 712.412 826.397 694.273 829.323C690.386 829.939 686.628 830.247 683.13 830.195C671.987 830.195 663.306 827.372 659.03 823.984C653.588 819.673 654.625 813.462 669.395 810.023C695.309 803.966 757.632 802.991 770.071 807.2C772.662 808.021 773.44 809.099 772.273 810.228ZM671.34 811.357C658.643 814.334 657.736 819.519 662.53 823.317C667.324 827.115 678.726 830.195 692.719 827.885C715.653 824.138 764.501 813.667 768.517 809.663C768.906 809.304 769.036 808.893 767.481 808.38C756.338 804.633 695.052 805.814 671.34 811.357Z" fill="#6F6F6F"/>
<path d="M236.119 163.668C257.836 158.157 250.731 140.63 243.492 129.557H239.336C241.213 132.338 242.956 135.565 244.43 138.941C247.916 147.531 248.988 158.604 233.974 162.477C216.279 166.945 180.353 161.086 127 145.049V146.935C168.154 159.2 199.389 165.356 220.301 165.356C226.467 165.356 231.695 164.761 236.119 163.668Z" fill="#6F6F6F"/>
<path fill-rule="evenodd" clip-rule="evenodd" d="M996.708 513.121C977.989 513.121 957.997 512.376 943.735 510.24C923.362 507.26 922.216 502.69 925.144 499.411C928.073 495.884 934.058 493.301 943.099 491.761C959.271 489.029 984.738 489.675 1018.74 493.748C1043.82 496.778 1064.58 500.603 1064.83 500.653C1075.53 502.739 1075.91 504.726 1074.51 506.018C1070.31 509.743 1043.82 511.929 1020.52 512.724C1013.26 512.972 1005.11 513.121 996.708 513.121ZM944.5 493.152C936.477 494.494 931.129 496.779 928.583 499.908C925.399 503.733 930.875 506.763 945.136 508.899C961.945 511.383 990.723 512.277 1020.14 511.283C1047.26 510.34 1068.14 507.955 1070.94 505.471C1072.35 504.18 1067.38 502.888 1063.05 502.044C1061.78 501.796 1006.51 491.662 966.784 491.662C958.507 491.662 950.866 492.06 944.5 493.152Z" fill="#6F6F6F"/>
</g>
</g>
<defs>
<filter id="filter0_d_5565_5483" x="0.404583" y="0.404583" width="2084.84" height="1023.84" filterUnits="userSpaceOnUse" color-interpolation-filters="sRGB">
<feFlood flood-opacity="0" result="BackgroundImageFix"/>
<feColorMatrix in="SourceAlpha" type="matrix" values="0 0 0 0 0 0 0 0 0 0 0 0 0 0 0 0 0 0 127 0" result="hardAlpha"/>
<feOffset dx="15.8244" dy="15.8244"/>
<feGaussianBlur stdDeviation="71.2099"/>
<feColorMatrix type="matrix" values="0 0 0 0 0 0 0 0 0 0 0 0 0 0 0 0 0 0 0.03 0"/>
<feBlend mode="normal" in2="BackgroundImageFix" result="effect1_dropShadow_5565_5483"/>
<feBlend mode="normal" in="SourceGraphic" in2="effect1_dropShadow_5565_5483" result="shape"/>
</filter>
</defs>
</svg>
