<svg width="1440" height="587" viewBox="0 0 1440 587" fill="none" xmlns="http://www.w3.org/2000/svg">
<g clip-path="url(#clip0_5803_32293)">
<g clip-path="url(#clip1_5803_32293)">
<mask id="mask0_5803_32293" style="mask-type:luminance" maskUnits="userSpaceOnUse" x="0" y="-204" width="2248" height="2014">
<path d="M2248 -204H0V1810H2248V-204Z" fill="white"/>
</mask>
<g mask="url(#mask0_5803_32293)">
<path d="M-134 8.41101L-111.533 -14.0563C-99.1244 -26.4646 -79.0065 -26.4646 -66.5982 -14.0563L-66.3982 -13.8563C-54.2108 -1.66885 -34.4511 -1.66885 -22.2637 -13.8563C-22.1973 -13.9226 -22.1312 -13.9893 -22.0655 -14.0563C-9.88099 -26.4626 10.0538 -26.6425 22.4601 -14.458L22.4637 -14.4545L23.0727 -13.8563C35.6228 -1.5266 55.765 -1.61585 68.2054 -14.0563C80.6138 -26.4646 100.732 -26.4646 113.14 -14.0563C125.548 -1.64793 145.666 -1.64793 158.075 -14.0563C170.483 -26.4646 190.601 -26.4646 203.009 -14.0563C215.417 -1.64793 235.535 -1.64793 247.944 -14.0563C260.352 -26.4646 280.47 -26.4646 292.878 -14.0563C305.286 -1.64793 325.404 -1.64793 337.813 -14.0563C350.221 -26.4646 370.339 -26.4646 382.747 -14.0563C395.156 -1.64793 415.273 -1.64793 427.682 -14.0563C440.09 -26.4646 460.208 -26.4646 472.616 -14.0563C485.025 -1.64793 505.143 -1.64793 517.551 -14.0563C529.959 -26.4646 550.077 -26.4646 562.485 -14.0563C574.894 -1.64793 595.012 -1.64793 607.42 -14.0563C619.828 -26.4646 639.946 -26.4646 652.354 -14.0563C664.763 -1.64793 684.881 -1.64793 697.289 -14.0563C709.697 -26.4646 729.815 -26.4646 742.224 -14.0563C754.632 -1.64793 774.75 -1.64793 787.158 -14.0563C799.566 -26.4646 819.684 -26.4646 832.093 -14.0563C844.501 -1.64793 864.619 -1.64793 877.027 -14.0563C889.435 -26.4646 909.553 -26.4646 921.962 -14.0563C934.37 -1.64793 954.488 -1.64793 966.896 -14.0563C979.305 -26.4646 999.422 -26.4646 1011.83 -14.0563C1024.24 -1.64793 1044.36 -1.64793 1056.77 -14.0563C1069.17 -26.4646 1089.29 -26.4646 1101.7 -14.0563C1114.11 -1.64793 1134.23 -1.64793 1146.63 -14.0563C1159.04 -26.4646 1179.16 -26.4646 1191.57 -14.0563C1203.98 -1.64793 1224.1 -1.64793 1236.5 -14.0563C1248.91 -26.4646 1269.03 -26.4646 1281.44 -14.0563C1293.85 -1.64793 1313.96 -1.64793 1326.37 -14.0563C1338.78 -26.4646 1358.9 -26.4646 1371.31 -14.0563C1383.72 -1.64793 1403.83 -1.64793 1416.24 -14.0563C1428.65 -26.4646 1448.77 -26.4646 1461.18 -14.0563C1473.58 -1.64793 1493.7 -1.64793 1506.11 -14.0563C1518.52 -26.4646 1538.64 -26.4646 1551.05 -14.0563C1563.45 -1.64793 1583.57 -1.64793 1595.98 -14.0563C1608.39 -26.4646 1628.51 -26.4646 1640.91 -14.0563C1653.32 -1.64793 1673.44 -1.64793 1685.85 -14.0563C1698.26 -26.4646 1718.38 -26.4646 1730.78 -14.0563C1743.19 -1.64793 1763.31 -1.64793 1775.72 -14.0563C1788.13 -26.4646 1808.24 -26.4646 1820.65 -14.0563C1833.06 -1.64793 1853.18 -1.64793 1865.59 -14.0563C1878 -26.4646 1898.11 -26.4646 1910.52 -14.0563C1922.93 -1.64793 1943.05 -1.64793 1955.46 -14.0563C1967.86 -26.4646 1987.98 -26.4646 2000.39 -14.0563C2012.8 -1.64793 2032.92 -1.64793 2045.33 -14.0563C2057.73 -26.4646 2077.85 -26.4646 2090.26 -14.0563C2102.67 -1.64793 2122.79 -1.64793 2135.19 -14.0563C2147.6 -26.4646 2167.72 -26.4646 2180.13 -14.0563C2192.54 -1.64793 2212.65 -1.64793 2225.06 -14.0563C2237.47 -26.4646 2257.59 -26.4646 2270 -14.0563C2282.41 -1.64793 2302.52 -1.64793 2314.93 -14.0563C2327.34 -26.4646 2347.46 -26.4646 2359.87 -14.0563L2382.33 8.41101" stroke="#B9F1D6" stroke-linecap="round" stroke-linejoin="round"/>
<path d="M-134 28.3456L-111.533 5.87831C-99.1244 -6.53002 -79.0065 -6.53002 -66.5982 5.87831L-66.3982 6.07831C-54.2108 18.2657 -34.4511 18.2657 -22.2637 6.07831C-22.1973 6.01194 -22.1312 5.94527 -22.0655 5.87831C-9.88099 -6.52804 10.0538 -6.70791 22.4601 5.47656L22.4637 5.48009L23.0727 6.07831C35.6228 18.408 55.765 18.3187 68.2054 5.87831C80.6138 -6.53002 100.732 -6.53002 113.14 5.87831C125.548 18.2866 145.666 18.2866 158.075 5.87831C170.483 -6.53002 190.601 -6.53002 203.009 5.87831C215.417 18.2866 235.535 18.2866 247.944 5.87831C260.352 -6.53002 280.47 -6.53002 292.878 5.87831C305.286 18.2866 325.404 18.2866 337.813 5.87831C350.221 -6.53002 370.339 -6.53002 382.747 5.87831C395.156 18.2866 415.273 18.2866 427.682 5.87831C440.09 -6.53002 460.208 -6.53002 472.616 5.87831C485.025 18.2866 505.143 18.2866 517.551 5.87831C529.959 -6.53002 550.077 -6.53002 562.485 5.87831C574.894 18.2866 595.012 18.2866 607.42 5.87831C619.828 -6.53002 639.946 -6.53002 652.354 5.87831C664.763 18.2866 684.881 18.2866 697.289 5.87831C709.697 -6.53002 729.815 -6.53002 742.224 5.87831C754.632 18.2866 774.75 18.2866 787.158 5.87831C799.566 -6.53002 819.684 -6.53002 832.093 5.87831C844.501 18.2866 864.619 18.2866 877.027 5.87831C889.435 -6.53002 909.553 -6.53002 921.962 5.87831C934.37 18.2866 954.488 18.2866 966.896 5.87831C979.305 -6.53002 999.422 -6.53002 1011.83 5.87831C1024.24 18.2866 1044.36 18.2866 1056.77 5.87831C1069.17 -6.53002 1089.29 -6.53002 1101.7 5.87831C1114.11 18.2866 1134.23 18.2866 1146.63 5.87831C1159.04 -6.53002 1179.16 -6.53002 1191.57 5.87831C1203.98 18.2866 1224.1 18.2866 1236.5 5.87831C1248.91 -6.53002 1269.03 -6.53002 1281.44 5.87831C1293.85 18.2866 1313.96 18.2866 1326.37 5.87831C1338.78 -6.53002 1358.9 -6.53002 1371.31 5.87831C1383.72 18.2866 1403.83 18.2866 1416.24 5.87831C1428.65 -6.53002 1448.77 -6.53002 1461.18 5.87831C1473.58 18.2866 1493.7 18.2866 1506.11 5.87831C1518.52 -6.53002 1538.64 -6.53002 1551.05 5.87831C1563.45 18.2866 1583.57 18.2866 1595.98 5.87831C1608.39 -6.53002 1628.51 -6.53002 1640.91 5.87831C1653.32 18.2866 1673.44 18.2866 1685.85 5.87831C1698.26 -6.53002 1718.38 -6.53002 1730.78 5.87831C1743.19 18.2866 1763.31 18.2866 1775.72 5.87831C1788.13 -6.53002 1808.24 -6.53002 1820.65 5.87831C1833.06 18.2866 1853.18 18.2866 1865.59 5.87831C1878 -6.53002 1898.11 -6.53002 1910.52 5.87831C1922.93 18.2866 1943.05 18.2866 1955.46 5.87831C1967.86 -6.53002 1987.98 -6.53002 2000.39 5.87831C2012.8 18.2866 2032.92 18.2866 2045.33 5.87831C2057.73 -6.53002 2077.85 -6.53002 2090.26 5.87831C2102.67 18.2866 2122.79 18.2866 2135.19 5.87831C2147.6 -6.53002 2167.72 -6.53002 2180.13 5.87831C2192.54 18.2866 2212.65 18.2866 2225.06 5.87831C2237.47 -6.53002 2257.59 -6.53002 2270 5.87831C2282.41 18.2866 2302.52 18.2866 2314.93 5.87831C2327.34 -6.53002 2347.46 -6.53002 2359.87 5.87831L2382.33 28.3456" stroke="#B9F1D6" stroke-linecap="round" stroke-linejoin="round"/>
<path d="M-134 48.2801L-111.533 25.8129C-99.1244 13.4045 -79.0065 13.4045 -66.5982 25.8129L-66.3982 26.0129C-54.2108 38.2003 -34.4511 38.2003 -22.2637 26.0129C-22.1973 25.9465 -22.1312 25.8798 -22.0655 25.8129C-9.88099 13.4065 10.0538 13.2267 22.4601 25.4111L22.4637 25.4147L23.0727 26.0129C35.6228 38.3425 55.765 38.2533 68.2054 25.8129C80.6138 13.4045 100.732 13.4045 113.14 25.8129C125.548 38.2212 145.666 38.2212 158.075 25.8129C170.483 13.4045 190.601 13.4045 203.009 25.8129C215.417 38.2212 235.535 38.2212 247.944 25.8129C260.352 13.4045 280.47 13.4045 292.878 25.8129C305.286 38.2212 325.404 38.2212 337.813 25.8129C350.221 13.4045 370.339 13.4045 382.747 25.8129C395.156 38.2212 415.273 38.2212 427.682 25.8129C440.09 13.4045 460.208 13.4045 472.616 25.8129C485.025 38.2212 505.143 38.2212 517.551 25.8129C529.959 13.4045 550.077 13.4045 562.485 25.8129C574.894 38.2212 595.012 38.2212 607.42 25.8129C619.828 13.4045 639.946 13.4045 652.354 25.8129C664.763 38.2212 684.881 38.2212 697.289 25.8129C709.697 13.4045 729.815 13.4045 742.224 25.8129C754.632 38.2212 774.75 38.2212 787.158 25.8129C799.566 13.4045 819.684 13.4045 832.093 25.8129C844.501 38.2212 864.619 38.2212 877.027 25.8129C889.435 13.4045 909.553 13.4045 921.962 25.8129C934.37 38.2212 954.488 38.2212 966.896 25.8129C979.305 13.4045 999.422 13.4045 1011.83 25.8129C1024.24 38.2212 1044.36 38.2212 1056.77 25.8129C1069.17 13.4045 1089.29 13.4045 1101.7 25.8129C1114.11 38.2212 1134.23 38.2212 1146.63 25.8129C1159.04 13.4045 1179.16 13.4045 1191.57 25.8129C1203.98 38.2212 1224.1 38.2212 1236.5 25.8129C1248.91 13.4045 1269.03 13.4045 1281.44 25.8129C1293.85 38.2212 1313.96 38.2212 1326.37 25.8129C1338.78 13.4045 1358.9 13.4045 1371.31 25.8129C1383.72 38.2212 1403.83 38.2212 1416.24 25.8129C1428.65 13.4045 1448.77 13.4045 1461.18 25.8129C1473.58 38.2212 1493.7 38.2212 1506.11 25.8129C1518.52 13.4045 1538.64 13.4045 1551.05 25.8129C1563.45 38.2212 1583.57 38.2212 1595.98 25.8129C1608.39 13.4045 1628.51 13.4045 1640.91 25.8129C1653.32 38.2212 1673.44 38.2212 1685.85 25.8129C1698.26 13.4045 1718.38 13.4045 1730.78 25.8129C1743.19 38.2212 1763.31 38.2212 1775.72 25.8129C1788.13 13.4045 1808.24 13.4045 1820.65 25.8129C1833.06 38.2212 1853.18 38.2212 1865.59 25.8129C1878 13.4045 1898.11 13.4045 1910.52 25.8129C1922.93 38.2212 1943.05 38.2212 1955.46 25.8129C1967.86 13.4045 1987.98 13.4045 2000.39 25.8129C2012.8 38.2212 2032.92 38.2212 2045.33 25.8129C2057.73 13.4045 2077.85 13.4045 2090.26 25.8129C2102.67 38.2212 2122.79 38.2212 2135.19 25.8129C2147.6 13.4045 2167.72 13.4045 2180.13 25.8129C2192.54 38.2212 2212.65 38.2212 2225.06 25.8129C2237.47 13.4045 2257.59 13.4045 2270 25.8129C2282.41 38.2212 2302.52 38.2212 2314.93 25.8129C2327.34 13.4045 2347.46 13.4045 2359.87 25.8129L2382.33 48.2801" stroke="#B9F1D6" stroke-linecap="round" stroke-linejoin="round"/>
<path d="M-134 68.2147L-111.533 45.7474C-99.1244 33.3391 -79.0065 33.3391 -66.5982 45.7474L-66.3982 45.9475C-54.2108 58.1349 -34.4511 58.1349 -22.2637 45.9475C-22.1973 45.8811 -22.1312 45.8144 -22.0655 45.7474C-9.88099 33.3411 10.0538 33.1612 22.4601 45.3457L22.4637 45.3492L23.0727 45.9475C35.6228 58.2771 55.765 58.1879 68.2054 45.7474C80.6138 33.3391 100.732 33.3391 113.14 45.7474C125.548 58.1558 145.666 58.1558 158.075 45.7474C170.483 33.3391 190.601 33.3391 203.009 45.7474C215.417 58.1558 235.535 58.1558 247.944 45.7474C260.352 33.3391 280.47 33.3391 292.878 45.7474C305.286 58.1558 325.404 58.1558 337.813 45.7474C350.221 33.3391 370.339 33.3391 382.747 45.7474C395.156 58.1558 415.273 58.1558 427.682 45.7474C440.09 33.3391 460.208 33.3391 472.616 45.7474C485.025 58.1558 505.143 58.1558 517.551 45.7474C529.959 33.3391 550.077 33.3391 562.485 45.7474C574.894 58.1558 595.012 58.1558 607.42 45.7474C619.828 33.3391 639.946 33.3391 652.354 45.7474C664.763 58.1558 684.881 58.1558 697.289 45.7474C709.697 33.3391 729.815 33.3391 742.224 45.7474C754.632 58.1558 774.75 58.1558 787.158 45.7474C799.566 33.3391 819.684 33.3391 832.093 45.7474C844.501 58.1558 864.619 58.1558 877.027 45.7474C889.435 33.3391 909.553 33.3391 921.962 45.7474C934.37 58.1558 954.488 58.1558 966.896 45.7474C979.305 33.3391 999.422 33.3391 1011.83 45.7474C1024.24 58.1558 1044.36 58.1558 1056.77 45.7474C1069.17 33.3391 1089.29 33.3391 1101.7 45.7474C1114.11 58.1558 1134.23 58.1558 1146.63 45.7474C1159.04 33.3391 1179.16 33.3391 1191.57 45.7474C1203.98 58.1558 1224.1 58.1558 1236.5 45.7474C1248.91 33.3391 1269.03 33.3391 1281.44 45.7474C1293.85 58.1558 1313.96 58.1558 1326.37 45.7474C1338.78 33.3391 1358.9 33.3391 1371.31 45.7474C1383.72 58.1558 1403.83 58.1558 1416.24 45.7474C1428.65 33.3391 1448.77 33.3391 1461.18 45.7474C1473.58 58.1558 1493.7 58.1558 1506.11 45.7474C1518.52 33.3391 1538.64 33.3391 1551.05 45.7474C1563.45 58.1558 1583.57 58.1558 1595.98 45.7474C1608.39 33.3391 1628.51 33.3391 1640.91 45.7474C1653.32 58.1558 1673.44 58.1558 1685.85 45.7474C1698.26 33.3391 1718.38 33.3391 1730.78 45.7474C1743.19 58.1558 1763.31 58.1558 1775.72 45.7474C1788.13 33.3391 1808.24 33.3391 1820.65 45.7474C1833.06 58.1558 1853.18 58.1558 1865.59 45.7474C1878 33.3391 1898.11 33.3391 1910.52 45.7474C1922.93 58.1558 1943.05 58.1558 1955.46 45.7474C1967.86 33.3391 1987.98 33.3391 2000.39 45.7474C2012.8 58.1558 2032.92 58.1558 2045.33 45.7474C2057.73 33.3391 2077.85 33.3391 2090.26 45.7474C2102.67 58.1558 2122.79 58.1558 2135.19 45.7474C2147.6 33.3391 2167.72 33.3391 2180.13 45.7474C2192.54 58.1558 2212.65 58.1558 2225.06 45.7474C2237.47 33.3391 2257.59 33.3391 2270 45.7474C2282.41 58.1558 2302.52 58.1558 2314.93 45.7474C2327.34 33.3391 2347.46 33.3391 2359.87 45.7474L2382.33 68.2147" stroke="#B9F1D6" stroke-linecap="round" stroke-linejoin="round"/>
<path d="M-134 88.1491L-111.533 65.6818C-99.1244 53.2734 -79.0065 53.2734 -66.5982 65.6818L-66.3982 65.8818C-54.2108 78.0692 -34.4511 78.0692 -22.2637 65.8818C-22.1973 65.8154 -22.1312 65.7487 -22.0655 65.6818C-9.88099 53.2754 10.0538 53.0956 22.4601 65.28L22.4637 65.2836L23.0727 65.8818C35.6228 78.2114 55.765 78.1222 68.2054 65.6818C80.6138 53.2734 100.732 53.2734 113.14 65.6818C125.548 78.0901 145.666 78.0901 158.075 65.6818C170.483 53.2734 190.601 53.2734 203.009 65.6818C215.417 78.0901 235.535 78.0901 247.944 65.6818C260.352 53.2734 280.47 53.2734 292.878 65.6818C305.286 78.0901 325.404 78.0901 337.813 65.6818C350.221 53.2734 370.339 53.2734 382.747 65.6818C395.156 78.0901 415.273 78.0901 427.682 65.6818C440.09 53.2734 460.208 53.2734 472.616 65.6818C485.025 78.0901 505.143 78.0901 517.551 65.6818C529.959 53.2734 550.077 53.2734 562.485 65.6818C574.894 78.0901 595.012 78.0901 607.42 65.6818C619.828 53.2734 639.946 53.2734 652.354 65.6818C664.763 78.0901 684.881 78.0901 697.289 65.6818C709.697 53.2734 729.815 53.2734 742.224 65.6818C754.632 78.0901 774.75 78.0901 787.158 65.6818C799.566 53.2734 819.684 53.2734 832.093 65.6818C844.501 78.0901 864.619 78.0901 877.027 65.6818C889.435 53.2734 909.553 53.2734 921.962 65.6818C934.37 78.0901 954.488 78.0901 966.896 65.6818C979.305 53.2734 999.422 53.2734 1011.83 65.6818C1024.24 78.0901 1044.36 78.0901 1056.77 65.6818C1069.17 53.2734 1089.29 53.2734 1101.7 65.6818C1114.11 78.0901 1134.23 78.0901 1146.63 65.6818C1159.04 53.2734 1179.16 53.2734 1191.57 65.6818C1203.98 78.0901 1224.1 78.0901 1236.5 65.6818C1248.91 53.2734 1269.03 53.2734 1281.44 65.6818C1293.85 78.0901 1313.96 78.0901 1326.37 65.6818C1338.78 53.2734 1358.9 53.2734 1371.31 65.6818C1383.72 78.0901 1403.83 78.0901 1416.24 65.6818C1428.65 53.2734 1448.77 53.2734 1461.18 65.6818C1473.58 78.0901 1493.7 78.0901 1506.11 65.6818C1518.52 53.2734 1538.64 53.2734 1551.05 65.6818C1563.45 78.0901 1583.57 78.0901 1595.98 65.6818C1608.39 53.2734 1628.51 53.2734 1640.91 65.6818C1653.32 78.0901 1673.44 78.0901 1685.85 65.6818C1698.26 53.2734 1718.38 53.2734 1730.78 65.6818C1743.19 78.0901 1763.31 78.0901 1775.72 65.6818C1788.13 53.2734 1808.24 53.2734 1820.65 65.6818C1833.06 78.0901 1853.18 78.0901 1865.59 65.6818C1878 53.2734 1898.11 53.2734 1910.52 65.6818C1922.93 78.0901 1943.05 78.0901 1955.46 65.6818C1967.86 53.2734 1987.98 53.2734 2000.39 65.6818C2012.8 78.0901 2032.92 78.0901 2045.33 65.6818C2057.73 53.2734 2077.85 53.2734 2090.26 65.6818C2102.67 78.0901 2122.79 78.0901 2135.19 65.6818C2147.6 53.2734 2167.72 53.2734 2180.13 65.6818C2192.54 78.0901 2212.65 78.0901 2225.06 65.6818C2237.47 53.2734 2257.59 53.2734 2270 65.6818C2282.41 78.0901 2302.52 78.0901 2314.93 65.6818C2327.34 53.2734 2347.46 53.2734 2359.87 65.6818L2382.33 88.1491" stroke="#B9F1D6" stroke-linecap="round" stroke-linejoin="round"/>
<path d="M-134 108.084L-111.533 85.6163C-99.1244 73.208 -79.0065 73.208 -66.5982 85.6163L-66.3982 85.8164C-54.2108 98.0038 -34.4511 98.0038 -22.2637 85.8164C-22.1973 85.75 -22.1312 85.6833 -22.0655 85.6163C-9.88099 73.21 10.0538 73.0301 22.4601 85.2146L22.4637 85.2181L23.0727 85.8164C35.6228 98.146 55.765 98.0567 68.2054 85.6163C80.6138 73.208 100.732 73.208 113.14 85.6163C125.548 98.0247 145.666 98.0247 158.075 85.6163C170.483 73.208 190.601 73.208 203.009 85.6163C215.417 98.0247 235.535 98.0247 247.944 85.6163C260.352 73.208 280.47 73.208 292.878 85.6163C305.286 98.0247 325.404 98.0247 337.813 85.6163C350.221 73.208 370.339 73.208 382.747 85.6163C395.156 98.0247 415.273 98.0247 427.682 85.6163C440.09 73.208 460.208 73.208 472.616 85.6163C485.025 98.0247 505.143 98.0247 517.551 85.6163C529.959 73.208 550.077 73.208 562.485 85.6163C574.894 98.0247 595.012 98.0247 607.42 85.6163C619.828 73.208 639.946 73.208 652.354 85.6163C664.763 98.0247 684.881 98.0247 697.289 85.6163C709.697 73.208 729.815 73.208 742.224 85.6163C754.632 98.0247 774.75 98.0247 787.158 85.6163C799.566 73.208 819.684 73.208 832.093 85.6163C844.501 98.0247 864.619 98.0247 877.027 85.6163C889.435 73.208 909.553 73.208 921.962 85.6163C934.37 98.0247 954.488 98.0247 966.896 85.6163C979.305 73.208 999.422 73.208 1011.83 85.6163C1024.24 98.0247 1044.36 98.0247 1056.77 85.6163C1069.17 73.208 1089.29 73.208 1101.7 85.6163C1114.11 98.0247 1134.23 98.0247 1146.63 85.6163C1159.04 73.208 1179.16 73.208 1191.57 85.6163C1203.98 98.0247 1224.1 98.0247 1236.5 85.6163C1248.91 73.208 1269.03 73.208 1281.44 85.6163C1293.85 98.0247 1313.96 98.0247 1326.37 85.6163C1338.78 73.208 1358.9 73.208 1371.31 85.6163C1383.72 98.0247 1403.83 98.0247 1416.24 85.6163C1428.65 73.208 1448.77 73.208 1461.18 85.6163C1473.58 98.0247 1493.7 98.0247 1506.11 85.6163C1518.52 73.208 1538.64 73.208 1551.05 85.6163C1563.45 98.0247 1583.57 98.0247 1595.98 85.6163C1608.39 73.208 1628.51 73.208 1640.91 85.6163C1653.32 98.0247 1673.44 98.0247 1685.85 85.6163C1698.26 73.208 1718.38 73.208 1730.78 85.6163C1743.19 98.0247 1763.31 98.0247 1775.72 85.6163C1788.13 73.208 1808.24 73.208 1820.65 85.6163C1833.06 98.0247 1853.18 98.0247 1865.59 85.6163C1878 73.208 1898.11 73.208 1910.52 85.6163C1922.93 98.0247 1943.05 98.0247 1955.46 85.6163C1967.86 73.208 1987.98 73.208 2000.39 85.6163C2012.8 98.0247 2032.92 98.0247 2045.33 85.6163C2057.73 73.208 2077.85 73.208 2090.26 85.6163C2102.67 98.0247 2122.79 98.0247 2135.19 85.6163C2147.6 73.208 2167.72 73.208 2180.13 85.6163C2192.54 98.0247 2212.65 98.0247 2225.06 85.6163C2237.47 73.208 2257.59 73.208 2270 85.6163C2282.41 98.0247 2302.52 98.0247 2314.93 85.6163C2327.34 73.208 2347.46 73.208 2359.87 85.6163L2382.33 108.084" stroke="#B9F1D6" stroke-linecap="round" stroke-linejoin="round"/>
<path d="M-134 128.018L-111.533 105.551C-99.1244 93.1426 -79.0065 93.1426 -66.5982 105.551L-66.3982 105.751C-54.2108 117.938 -34.4511 117.938 -22.2637 105.751C-22.1973 105.685 -22.1312 105.618 -22.0655 105.551C-9.88099 93.1446 10.0538 92.9647 22.4601 105.149L22.4637 105.153L23.0727 105.751C35.6228 118.081 55.765 117.991 68.2054 105.551C80.6138 93.1426 100.732 93.1426 113.14 105.551C125.548 117.959 145.666 117.959 158.075 105.551C170.483 93.1426 190.601 93.1426 203.009 105.551C215.417 117.959 235.535 117.959 247.944 105.551C260.352 93.1426 280.47 93.1426 292.878 105.551C305.286 117.959 325.404 117.959 337.813 105.551C350.221 93.1426 370.339 93.1426 382.747 105.551C395.156 117.959 415.273 117.959 427.682 105.551C440.09 93.1426 460.208 93.1426 472.616 105.551C485.025 117.959 505.143 117.959 517.551 105.551C529.959 93.1426 550.077 93.1426 562.485 105.551C574.894 117.959 595.012 117.959 607.42 105.551C619.828 93.1426 639.946 93.1426 652.354 105.551C664.763 117.959 684.881 117.959 697.289 105.551C709.697 93.1426 729.815 93.1426 742.224 105.551C754.632 117.959 774.75 117.959 787.158 105.551C799.566 93.1426 819.684 93.1426 832.093 105.551C844.501 117.959 864.619 117.959 877.027 105.551C889.435 93.1426 909.553 93.1426 921.962 105.551C934.37 117.959 954.488 117.959 966.896 105.551C979.305 93.1426 999.422 93.1426 1011.83 105.551C1024.24 117.959 1044.36 117.959 1056.77 105.551C1069.17 93.1426 1089.29 93.1426 1101.7 105.551C1114.11 117.959 1134.23 117.959 1146.63 105.551C1159.04 93.1426 1179.16 93.1426 1191.57 105.551C1203.98 117.959 1224.1 117.959 1236.5 105.551C1248.91 93.1426 1269.03 93.1426 1281.44 105.551C1293.85 117.959 1313.96 117.959 1326.37 105.551C1338.78 93.1426 1358.9 93.1426 1371.31 105.551C1383.72 117.959 1403.83 117.959 1416.24 105.551C1428.65 93.1426 1448.77 93.1426 1461.18 105.551C1473.58 117.959 1493.7 117.959 1506.11 105.551C1518.52 93.1426 1538.64 93.1426 1551.05 105.551C1563.45 117.959 1583.57 117.959 1595.98 105.551C1608.39 93.1426 1628.51 93.1426 1640.91 105.551C1653.32 117.959 1673.44 117.959 1685.85 105.551C1698.26 93.1426 1718.38 93.1426 1730.78 105.551C1743.19 117.959 1763.31 117.959 1775.72 105.551C1788.13 93.1426 1808.24 93.1426 1820.65 105.551C1833.06 117.959 1853.18 117.959 1865.59 105.551C1878 93.1426 1898.11 93.1426 1910.52 105.551C1922.93 117.959 1943.05 117.959 1955.46 105.551C1967.86 93.1426 1987.98 93.1426 2000.39 105.551C2012.8 117.959 2032.92 117.959 2045.33 105.551C2057.73 93.1426 2077.85 93.1426 2090.26 105.551C2102.67 117.959 2122.79 117.959 2135.19 105.551C2147.6 93.1426 2167.72 93.1426 2180.13 105.551C2192.54 117.959 2212.65 117.959 2225.06 105.551C2237.47 93.1426 2257.59 93.1426 2270 105.551C2282.41 117.959 2302.52 117.959 2314.93 105.551C2327.34 93.1426 2347.46 93.1426 2359.87 105.551L2382.33 128.018" stroke="#B9F1D6" stroke-linecap="round" stroke-linejoin="round"/>
<path d="M-134 147.953L-111.533 125.485C-99.1244 113.077 -79.0065 113.077 -66.5982 125.485L-66.3982 125.685C-54.2108 137.873 -34.4511 137.873 -22.2637 125.685C-22.1973 125.619 -22.1312 125.552 -22.0655 125.485C-9.88099 113.079 10.0538 112.899 22.4601 125.084L22.4637 125.087L23.0727 125.685C35.6228 138.015 55.765 137.926 68.2054 125.485C80.6138 113.077 100.732 113.077 113.14 125.485C125.548 137.894 145.666 137.894 158.075 125.485C170.483 113.077 190.601 113.077 203.009 125.485C215.417 137.894 235.535 137.894 247.944 125.485C260.352 113.077 280.47 113.077 292.878 125.485C305.286 137.894 325.404 137.894 337.813 125.485C350.221 113.077 370.339 113.077 382.747 125.485C395.156 137.894 415.273 137.894 427.682 125.485C440.09 113.077 460.208 113.077 472.616 125.485C485.025 137.894 505.143 137.894 517.551 125.485C529.959 113.077 550.077 113.077 562.485 125.485C574.894 137.894 595.012 137.894 607.42 125.485C619.828 113.077 639.946 113.077 652.354 125.485C664.763 137.894 684.881 137.894 697.289 125.485C709.697 113.077 729.815 113.077 742.224 125.485C754.632 137.894 774.75 137.894 787.158 125.485C799.566 113.077 819.684 113.077 832.093 125.485C844.501 137.894 864.619 137.894 877.027 125.485C889.435 113.077 909.553 113.077 921.962 125.485C934.37 137.894 954.488 137.894 966.896 125.485C979.305 113.077 999.422 113.077 1011.83 125.485C1024.24 137.894 1044.36 137.894 1056.77 125.485C1069.17 113.077 1089.29 113.077 1101.7 125.485C1114.11 137.894 1134.23 137.894 1146.63 125.485C1159.04 113.077 1179.16 113.077 1191.57 125.485C1203.98 137.894 1224.1 137.894 1236.5 125.485C1248.91 113.077 1269.03 113.077 1281.44 125.485C1293.85 137.894 1313.96 137.894 1326.37 125.485C1338.78 113.077 1358.9 113.077 1371.31 125.485C1383.72 137.894 1403.83 137.894 1416.24 125.485C1428.65 113.077 1448.77 113.077 1461.18 125.485C1473.58 137.894 1493.7 137.894 1506.11 125.485C1518.52 113.077 1538.64 113.077 1551.05 125.485C1563.45 137.894 1583.57 137.894 1595.98 125.485C1608.39 113.077 1628.51 113.077 1640.91 125.485C1653.32 137.894 1673.44 137.894 1685.85 125.485C1698.26 113.077 1718.38 113.077 1730.78 125.485C1743.19 137.894 1763.31 137.894 1775.72 125.485C1788.13 113.077 1808.24 113.077 1820.65 125.485C1833.06 137.894 1853.18 137.894 1865.59 125.485C1878 113.077 1898.11 113.077 1910.52 125.485C1922.93 137.894 1943.05 137.894 1955.46 125.485C1967.86 113.077 1987.98 113.077 2000.39 125.485C2012.8 137.894 2032.92 137.894 2045.33 125.485C2057.73 113.077 2077.85 113.077 2090.26 125.485C2102.67 137.894 2122.79 137.894 2135.19 125.485C2147.6 113.077 2167.72 113.077 2180.13 125.485C2192.54 137.894 2212.65 137.894 2225.06 125.485C2237.47 113.077 2257.59 113.077 2270 125.485C2282.41 137.894 2302.52 137.894 2314.93 125.485C2327.34 113.077 2347.46 113.077 2359.87 125.485L2382.33 147.953" stroke="#B9F1D6" stroke-linecap="round" stroke-linejoin="round"/>
<path d="M-134 167.887L-111.533 145.42C-99.1244 133.012 -79.0065 133.012 -66.5982 145.42L-66.3982 145.62C-54.2108 157.807 -34.4511 157.807 -22.2637 145.62C-22.1973 145.554 -22.1312 145.487 -22.0655 145.42C-9.88099 133.014 10.0538 132.834 22.4601 145.018L22.4637 145.022L23.0727 145.62C35.6228 157.95 55.765 157.86 68.2054 145.42C80.6138 133.012 100.732 133.012 113.14 145.42C125.548 157.828 145.666 157.828 158.075 145.42C170.483 133.012 190.601 133.012 203.009 145.42C215.417 157.828 235.535 157.828 247.944 145.42C260.352 133.012 280.47 133.012 292.878 145.42C305.286 157.828 325.404 157.828 337.813 145.42C350.221 133.012 370.339 133.012 382.747 145.42C395.156 157.828 415.273 157.828 427.682 145.42C440.09 133.012 460.208 133.012 472.616 145.42C485.025 157.828 505.143 157.828 517.551 145.42C529.959 133.012 550.077 133.012 562.485 145.42C574.894 157.828 595.012 157.828 607.42 145.42C619.828 133.012 639.946 133.012 652.354 145.42C664.763 157.828 684.881 157.828 697.289 145.42C709.697 133.012 729.815 133.012 742.224 145.42C754.632 157.828 774.75 157.828 787.158 145.42C799.566 133.012 819.684 133.012 832.093 145.42C844.501 157.828 864.619 157.828 877.027 145.42C889.435 133.012 909.553 133.012 921.962 145.42C934.37 157.828 954.488 157.828 966.896 145.42C979.305 133.012 999.422 133.012 1011.83 145.42C1024.24 157.828 1044.36 157.828 1056.77 145.42C1069.17 133.012 1089.29 133.012 1101.7 145.42C1114.11 157.828 1134.23 157.828 1146.63 145.42C1159.04 133.012 1179.16 133.012 1191.57 145.42C1203.98 157.828 1224.1 157.828 1236.5 145.42C1248.91 133.012 1269.03 133.012 1281.44 145.42C1293.85 157.828 1313.96 157.828 1326.37 145.42C1338.78 133.012 1358.9 133.012 1371.31 145.42C1383.72 157.828 1403.83 157.828 1416.24 145.42C1428.65 133.012 1448.77 133.012 1461.18 145.42C1473.58 157.828 1493.7 157.828 1506.11 145.42C1518.52 133.012 1538.64 133.012 1551.05 145.42C1563.45 157.828 1583.57 157.828 1595.98 145.42C1608.39 133.012 1628.51 133.012 1640.91 145.42C1653.32 157.828 1673.44 157.828 1685.85 145.42C1698.26 133.012 1718.38 133.012 1730.78 145.42C1743.19 157.828 1763.31 157.828 1775.72 145.42C1788.13 133.012 1808.24 133.012 1820.65 145.42C1833.06 157.828 1853.18 157.828 1865.59 145.42C1878 133.012 1898.11 133.012 1910.52 145.42C1922.93 157.828 1943.05 157.828 1955.46 145.42C1967.86 133.012 1987.98 133.012 2000.39 145.42C2012.8 157.828 2032.92 157.828 2045.33 145.42C2057.73 133.012 2077.85 133.012 2090.26 145.42C2102.67 157.828 2122.79 157.828 2135.19 145.42C2147.6 133.012 2167.72 133.012 2180.13 145.42C2192.54 157.828 2212.65 157.828 2225.06 145.42C2237.47 133.012 2257.59 133.012 2270 145.42C2282.41 157.828 2302.52 157.828 2314.93 145.42C2327.34 133.012 2347.46 133.012 2359.87 145.42L2382.33 167.887" stroke="#B9F1D6" stroke-linecap="round" stroke-linejoin="round"/>
<path d="M-134 187.822L-111.533 165.355C-99.1244 152.946 -79.0065 152.946 -66.5982 165.355L-66.3982 165.555C-54.2108 177.742 -34.4511 177.742 -22.2637 165.555C-22.1973 165.488 -22.1312 165.422 -22.0655 165.355C-9.88099 152.948 10.0538 152.768 22.4601 164.953L22.4637 164.956L23.0727 165.555C35.6228 177.884 55.765 177.795 68.2054 165.355C80.6138 152.946 100.732 152.946 113.14 165.355C125.548 177.763 145.666 177.763 158.075 165.355C170.483 152.946 190.601 152.946 203.009 165.355C215.417 177.763 235.535 177.763 247.944 165.355C260.352 152.946 280.47 152.946 292.878 165.355C305.286 177.763 325.404 177.763 337.813 165.355C350.221 152.946 370.339 152.946 382.747 165.355C395.156 177.763 415.273 177.763 427.682 165.355C440.09 152.946 460.208 152.946 472.616 165.355C485.025 177.763 505.143 177.763 517.551 165.355C529.959 152.946 550.077 152.946 562.485 165.355C574.894 177.763 595.012 177.763 607.42 165.355C619.828 152.946 639.946 152.946 652.354 165.355C664.763 177.763 684.881 177.763 697.289 165.355C709.697 152.946 729.815 152.946 742.224 165.355C754.632 177.763 774.75 177.763 787.158 165.355C799.566 152.946 819.684 152.946 832.093 165.355C844.501 177.763 864.619 177.763 877.027 165.355C889.435 152.946 909.553 152.946 921.962 165.355C934.37 177.763 954.488 177.763 966.896 165.355C979.305 152.946 999.422 152.946 1011.83 165.355C1024.24 177.763 1044.36 177.763 1056.77 165.355C1069.17 152.946 1089.29 152.946 1101.7 165.355C1114.11 177.763 1134.23 177.763 1146.63 165.355C1159.04 152.946 1179.16 152.946 1191.57 165.355C1203.98 177.763 1224.1 177.763 1236.5 165.355C1248.91 152.946 1269.03 152.946 1281.44 165.355C1293.85 177.763 1313.96 177.763 1326.37 165.355C1338.78 152.946 1358.9 152.946 1371.31 165.355C1383.72 177.763 1403.83 177.763 1416.24 165.355C1428.65 152.946 1448.77 152.946 1461.18 165.355C1473.58 177.763 1493.7 177.763 1506.11 165.355C1518.52 152.946 1538.64 152.946 1551.05 165.355C1563.45 177.763 1583.57 177.763 1595.98 165.355C1608.39 152.946 1628.51 152.946 1640.91 165.355C1653.32 177.763 1673.44 177.763 1685.85 165.355C1698.26 152.946 1718.38 152.946 1730.78 165.355C1743.19 177.763 1763.31 177.763 1775.72 165.355C1788.13 152.946 1808.24 152.946 1820.65 165.355C1833.06 177.763 1853.18 177.763 1865.59 165.355C1878 152.946 1898.11 152.946 1910.52 165.355C1922.93 177.763 1943.05 177.763 1955.46 165.355C1967.86 152.946 1987.98 152.946 2000.39 165.355C2012.8 177.763 2032.92 177.763 2045.33 165.355C2057.73 152.946 2077.85 152.946 2090.26 165.355C2102.67 177.763 2122.79 177.763 2135.19 165.355C2147.6 152.946 2167.72 152.946 2180.13 165.355C2192.54 177.763 2212.65 177.763 2225.06 165.355C2237.47 152.946 2257.59 152.946 2270 165.355C2282.41 177.763 2302.52 177.763 2314.93 165.355C2327.34 152.946 2347.46 152.946 2359.87 165.355L2382.33 187.822" stroke="#B9F1D6" stroke-linecap="round" stroke-linejoin="round"/>
<path d="M-134 207.756L-111.533 185.289C-99.1244 172.881 -79.0065 172.881 -66.5982 185.289L-66.3982 185.489C-54.2108 197.677 -34.4511 197.677 -22.2637 185.489C-22.1973 185.423 -22.1312 185.356 -22.0655 185.289C-9.88099 172.883 10.0538 172.703 22.4601 184.887L22.4637 184.891L23.0727 185.489C35.6228 197.819 55.765 197.73 68.2054 185.289C80.6138 172.881 100.732 172.881 113.14 185.289C125.548 197.698 145.666 197.698 158.075 185.289C170.483 172.881 190.601 172.881 203.009 185.289C215.417 197.698 235.535 197.698 247.944 185.289C260.352 172.881 280.47 172.881 292.878 185.289C305.286 197.698 325.404 197.698 337.813 185.289C350.221 172.881 370.339 172.881 382.747 185.289C395.156 197.698 415.273 197.698 427.682 185.289C440.09 172.881 460.208 172.881 472.616 185.289C485.025 197.698 505.143 197.698 517.551 185.289C529.959 172.881 550.077 172.881 562.485 185.289C574.894 197.698 595.012 197.698 607.42 185.289C619.828 172.881 639.946 172.881 652.354 185.289C664.763 197.698 684.881 197.698 697.289 185.289C709.697 172.881 729.815 172.881 742.224 185.289C754.632 197.698 774.75 197.698 787.158 185.289C799.566 172.881 819.684 172.881 832.093 185.289C844.501 197.698 864.619 197.698 877.027 185.289C889.435 172.881 909.553 172.881 921.962 185.289C934.37 197.698 954.488 197.698 966.896 185.289C979.305 172.881 999.422 172.881 1011.83 185.289C1024.24 197.698 1044.36 197.698 1056.77 185.289C1069.17 172.881 1089.29 172.881 1101.7 185.289C1114.11 197.698 1134.23 197.698 1146.63 185.289C1159.04 172.881 1179.16 172.881 1191.57 185.289C1203.98 197.698 1224.1 197.698 1236.5 185.289C1248.91 172.881 1269.03 172.881 1281.44 185.289C1293.85 197.698 1313.96 197.698 1326.37 185.289C1338.78 172.881 1358.9 172.881 1371.31 185.289C1383.72 197.698 1403.83 197.698 1416.24 185.289C1428.65 172.881 1448.77 172.881 1461.18 185.289C1473.58 197.698 1493.7 197.698 1506.11 185.289C1518.52 172.881 1538.64 172.881 1551.05 185.289C1563.45 197.698 1583.57 197.698 1595.98 185.289C1608.39 172.881 1628.51 172.881 1640.91 185.289C1653.32 197.698 1673.44 197.698 1685.85 185.289C1698.26 172.881 1718.38 172.881 1730.78 185.289C1743.19 197.698 1763.31 197.698 1775.72 185.289C1788.13 172.881 1808.24 172.881 1820.65 185.289C1833.06 197.698 1853.18 197.698 1865.59 185.289C1878 172.881 1898.11 172.881 1910.52 185.289C1922.93 197.698 1943.05 197.698 1955.46 185.289C1967.86 172.881 1987.98 172.881 2000.39 185.289C2012.8 197.698 2032.92 197.698 2045.33 185.289C2057.73 172.881 2077.85 172.881 2090.26 185.289C2102.67 197.698 2122.79 197.698 2135.19 185.289C2147.6 172.881 2167.72 172.881 2180.13 185.289C2192.54 197.698 2212.65 197.698 2225.06 185.289C2237.47 172.881 2257.59 172.881 2270 185.289C2282.41 197.698 2302.52 197.698 2314.93 185.289C2327.34 172.881 2347.46 172.881 2359.87 185.289L2382.33 207.756" stroke="#B9F1D6" stroke-linecap="round" stroke-linejoin="round"/>
<path d="M-134 227.691L-111.533 205.224C-99.1244 192.815 -79.0065 192.815 -66.5982 205.224L-66.3982 205.424C-54.2108 217.611 -34.4511 217.611 -22.2637 205.424C-22.1973 205.357 -22.1312 205.29 -22.0655 205.224C-9.88099 192.817 10.0538 192.637 22.4601 204.822L22.4637 204.825L23.0727 205.424C35.6228 217.753 55.765 217.664 68.2054 205.224C80.6138 192.815 100.732 192.815 113.14 205.224C125.548 217.632 145.666 217.632 158.075 205.224C170.483 192.815 190.601 192.815 203.009 205.224C215.417 217.632 235.535 217.632 247.944 205.224C260.352 192.815 280.47 192.815 292.878 205.224C305.286 217.632 325.404 217.632 337.813 205.224C350.221 192.815 370.339 192.815 382.747 205.224C395.156 217.632 415.273 217.632 427.682 205.224C440.09 192.815 460.208 192.815 472.616 205.224C485.025 217.632 505.143 217.632 517.551 205.224C529.959 192.815 550.077 192.815 562.485 205.224C574.894 217.632 595.012 217.632 607.42 205.224C619.828 192.815 639.946 192.815 652.354 205.224C664.763 217.632 684.881 217.632 697.289 205.224C709.697 192.815 729.815 192.815 742.224 205.224C754.632 217.632 774.75 217.632 787.158 205.224C799.566 192.815 819.684 192.815 832.093 205.224C844.501 217.632 864.619 217.632 877.027 205.224C889.435 192.815 909.553 192.815 921.962 205.224C934.37 217.632 954.488 217.632 966.896 205.224C979.305 192.815 999.422 192.815 1011.83 205.224C1024.24 217.632 1044.36 217.632 1056.77 205.224C1069.17 192.815 1089.29 192.815 1101.7 205.224C1114.11 217.632 1134.23 217.632 1146.63 205.224C1159.04 192.815 1179.16 192.815 1191.57 205.224C1203.98 217.632 1224.1 217.632 1236.5 205.224C1248.91 192.815 1269.03 192.815 1281.44 205.224C1293.85 217.632 1313.96 217.632 1326.37 205.224C1338.78 192.815 1358.9 192.815 1371.31 205.224C1383.72 217.632 1403.83 217.632 1416.24 205.224C1428.65 192.815 1448.77 192.815 1461.18 205.224C1473.58 217.632 1493.7 217.632 1506.11 205.224C1518.52 192.815 1538.64 192.815 1551.05 205.224C1563.45 217.632 1583.57 217.632 1595.98 205.224C1608.39 192.815 1628.51 192.815 1640.91 205.224C1653.32 217.632 1673.44 217.632 1685.85 205.224C1698.26 192.815 1718.38 192.815 1730.78 205.224C1743.19 217.632 1763.31 217.632 1775.72 205.224C1788.13 192.815 1808.24 192.815 1820.65 205.224C1833.06 217.632 1853.18 217.632 1865.59 205.224C1878 192.815 1898.11 192.815 1910.52 205.224C1922.93 217.632 1943.05 217.632 1955.46 205.224C1967.86 192.815 1987.98 192.815 2000.39 205.224C2012.8 217.632 2032.92 217.632 2045.33 205.224C2057.73 192.815 2077.85 192.815 2090.26 205.224C2102.67 217.632 2122.79 217.632 2135.19 205.224C2147.6 192.815 2167.72 192.815 2180.13 205.224C2192.54 217.632 2212.65 217.632 2225.06 205.224C2237.47 192.815 2257.59 192.815 2270 205.224C2282.41 217.632 2302.52 217.632 2314.93 205.224C2327.34 192.815 2347.46 192.815 2359.87 205.224L2382.33 227.691" stroke="#B9F1D6" stroke-linecap="round" stroke-linejoin="round"/>
<path d="M-134 247.625L-111.533 225.158C-99.1244 212.75 -79.0065 212.75 -66.5982 225.158L-66.3982 225.358C-54.2108 237.545 -34.4511 237.545 -22.2637 225.358C-22.1973 225.292 -22.1312 225.225 -22.0655 225.158C-9.88099 212.752 10.0538 212.572 22.4601 224.756L22.4637 224.76L23.0727 225.358C35.6228 237.688 55.765 237.599 68.2054 225.158C80.6138 212.75 100.732 212.75 113.14 225.158C125.548 237.566 145.666 237.566 158.075 225.158C170.483 212.75 190.601 212.75 203.009 225.158C215.417 237.566 235.535 237.566 247.944 225.158C260.352 212.75 280.47 212.75 292.878 225.158C305.286 237.566 325.404 237.566 337.813 225.158C350.221 212.75 370.339 212.75 382.747 225.158C395.156 237.566 415.273 237.566 427.682 225.158C440.09 212.75 460.208 212.75 472.616 225.158C485.025 237.566 505.143 237.566 517.551 225.158C529.959 212.75 550.077 212.75 562.485 225.158C574.894 237.566 595.012 237.566 607.42 225.158C619.828 212.75 639.946 212.75 652.354 225.158C664.763 237.566 684.881 237.566 697.289 225.158C709.697 212.75 729.815 212.75 742.224 225.158C754.632 237.566 774.75 237.566 787.158 225.158C799.566 212.75 819.684 212.75 832.093 225.158C844.501 237.566 864.619 237.566 877.027 225.158C889.435 212.75 909.553 212.75 921.962 225.158C934.37 237.566 954.488 237.566 966.896 225.158C979.305 212.75 999.422 212.75 1011.83 225.158C1024.24 237.566 1044.36 237.566 1056.77 225.158C1069.17 212.75 1089.29 212.75 1101.7 225.158C1114.11 237.566 1134.23 237.566 1146.63 225.158C1159.04 212.75 1179.16 212.75 1191.57 225.158C1203.98 237.566 1224.1 237.566 1236.5 225.158C1248.91 212.75 1269.03 212.75 1281.44 225.158C1293.85 237.566 1313.96 237.566 1326.37 225.158C1338.78 212.75 1358.9 212.75 1371.31 225.158C1383.72 237.566 1403.83 237.566 1416.24 225.158C1428.65 212.75 1448.77 212.75 1461.18 225.158C1473.58 237.566 1493.7 237.566 1506.11 225.158C1518.52 212.75 1538.64 212.75 1551.05 225.158C1563.45 237.566 1583.57 237.566 1595.98 225.158C1608.39 212.75 1628.51 212.75 1640.91 225.158C1653.32 237.566 1673.44 237.566 1685.85 225.158C1698.26 212.75 1718.38 212.75 1730.78 225.158C1743.19 237.566 1763.31 237.566 1775.72 225.158C1788.13 212.75 1808.24 212.75 1820.65 225.158C1833.06 237.566 1853.18 237.566 1865.59 225.158C1878 212.75 1898.11 212.75 1910.52 225.158C1922.93 237.566 1943.05 237.566 1955.46 225.158C1967.86 212.75 1987.98 212.75 2000.39 225.158C2012.8 237.566 2032.92 237.566 2045.33 225.158C2057.73 212.75 2077.85 212.75 2090.26 225.158C2102.67 237.566 2122.79 237.566 2135.19 225.158C2147.6 212.75 2167.72 212.75 2180.13 225.158C2192.54 237.566 2212.65 237.566 2225.06 225.158C2237.47 212.75 2257.59 212.75 2270 225.158C2282.41 237.566 2302.52 237.566 2314.93 225.158C2327.34 212.75 2347.46 212.75 2359.87 225.158L2382.33 247.625" stroke="#B9F1D6" stroke-linecap="round" stroke-linejoin="round"/>
<path d="M-134 267.56L-111.533 245.093C-99.1244 232.684 -79.0065 232.684 -66.5982 245.093L-66.3982 245.293C-54.2108 257.48 -34.4511 257.48 -22.2637 245.293C-22.1973 245.226 -22.1312 245.16 -22.0655 245.093C-9.88099 232.686 10.0538 232.506 22.4601 244.691L22.4637 244.694L23.0727 245.293C35.6228 257.622 55.765 257.533 68.2054 245.093C80.6138 232.684 100.732 232.684 113.14 245.093C125.548 257.501 145.666 257.501 158.075 245.093C170.483 232.684 190.601 232.684 203.009 245.093C215.417 257.501 235.535 257.501 247.944 245.093C260.352 232.684 280.47 232.684 292.878 245.093C305.286 257.501 325.404 257.501 337.813 245.093C350.221 232.684 370.339 232.684 382.747 245.093C395.156 257.501 415.273 257.501 427.682 245.093C440.09 232.684 460.208 232.684 472.616 245.093C485.025 257.501 505.143 257.501 517.551 245.093C529.959 232.684 550.077 232.684 562.485 245.093C574.894 257.501 595.012 257.501 607.42 245.093C619.828 232.684 639.946 232.684 652.354 245.093C664.763 257.501 684.881 257.501 697.289 245.093C709.697 232.684 729.815 232.684 742.224 245.093C754.632 257.501 774.75 257.501 787.158 245.093C799.566 232.684 819.684 232.684 832.093 245.093C844.501 257.501 864.619 257.501 877.027 245.093C889.435 232.684 909.553 232.684 921.962 245.093C934.37 257.501 954.488 257.501 966.896 245.093C979.305 232.684 999.422 232.684 1011.83 245.093C1024.24 257.501 1044.36 257.501 1056.77 245.093C1069.17 232.684 1089.29 232.684 1101.7 245.093C1114.11 257.501 1134.23 257.501 1146.63 245.093C1159.04 232.684 1179.16 232.684 1191.57 245.093C1203.98 257.501 1224.1 257.501 1236.5 245.093C1248.91 232.684 1269.03 232.684 1281.44 245.093C1293.85 257.501 1313.96 257.501 1326.37 245.093C1338.78 232.684 1358.9 232.684 1371.31 245.093C1383.72 257.501 1403.83 257.501 1416.24 245.093C1428.65 232.684 1448.77 232.684 1461.18 245.093C1473.58 257.501 1493.7 257.501 1506.11 245.093C1518.52 232.684 1538.64 232.684 1551.05 245.093C1563.45 257.501 1583.57 257.501 1595.98 245.093C1608.39 232.684 1628.51 232.684 1640.91 245.093C1653.32 257.501 1673.44 257.501 1685.85 245.093C1698.26 232.684 1718.38 232.684 1730.78 245.093C1743.19 257.501 1763.31 257.501 1775.72 245.093C1788.13 232.684 1808.24 232.684 1820.65 245.093C1833.06 257.501 1853.18 257.501 1865.59 245.093C1878 232.684 1898.11 232.684 1910.52 245.093C1922.93 257.501 1943.05 257.501 1955.46 245.093C1967.86 232.684 1987.98 232.684 2000.39 245.093C2012.8 257.501 2032.92 257.501 2045.33 245.093C2057.73 232.684 2077.85 232.684 2090.26 245.093C2102.67 257.501 2122.79 257.501 2135.19 245.093C2147.6 232.684 2167.72 232.684 2180.13 245.093C2192.54 257.501 2212.65 257.501 2225.06 245.093C2237.47 232.684 2257.59 232.684 2270 245.093C2282.41 257.501 2302.52 257.501 2314.93 245.093C2327.34 232.684 2347.46 232.684 2359.87 245.093L2382.33 267.56" stroke="#B9F1D6" stroke-linecap="round" stroke-linejoin="round"/>
<path d="M-134 287.495L-111.533 265.027C-99.1244 252.619 -79.0065 252.619 -66.5982 265.027L-66.3982 265.227C-54.2108 277.415 -34.4511 277.415 -22.2637 265.227C-22.1973 265.161 -22.1312 265.094 -22.0655 265.027C-9.88099 252.621 10.0538 252.441 22.4601 264.625L22.4637 264.629L23.0727 265.227C35.6228 277.557 55.765 277.468 68.2054 265.027C80.6138 252.619 100.732 252.619 113.14 265.027C125.548 277.436 145.666 277.436 158.075 265.027C170.483 252.619 190.601 252.619 203.009 265.027C215.417 277.436 235.535 277.436 247.944 265.027C260.352 252.619 280.47 252.619 292.878 265.027C305.286 277.436 325.404 277.436 337.813 265.027C350.221 252.619 370.339 252.619 382.747 265.027C395.156 277.436 415.273 277.436 427.682 265.027C440.09 252.619 460.208 252.619 472.616 265.027C485.025 277.436 505.143 277.436 517.551 265.027C529.959 252.619 550.077 252.619 562.485 265.027C574.894 277.436 595.012 277.436 607.42 265.027C619.828 252.619 639.946 252.619 652.354 265.027C664.763 277.436 684.881 277.436 697.289 265.027C709.697 252.619 729.815 252.619 742.224 265.027C754.632 277.436 774.75 277.436 787.158 265.027C799.566 252.619 819.684 252.619 832.093 265.027C844.501 277.436 864.619 277.436 877.027 265.027C889.435 252.619 909.553 252.619 921.962 265.027C934.37 277.436 954.488 277.436 966.896 265.027C979.305 252.619 999.422 252.619 1011.83 265.027C1024.24 277.436 1044.36 277.436 1056.77 265.027C1069.17 252.619 1089.29 252.619 1101.7 265.027C1114.11 277.436 1134.23 277.436 1146.63 265.027C1159.04 252.619 1179.16 252.619 1191.57 265.027C1203.98 277.436 1224.1 277.436 1236.5 265.027C1248.91 252.619 1269.03 252.619 1281.44 265.027C1293.85 277.436 1313.96 277.436 1326.37 265.027C1338.78 252.619 1358.9 252.619 1371.31 265.027C1383.72 277.436 1403.83 277.436 1416.24 265.027C1428.65 252.619 1448.77 252.619 1461.18 265.027C1473.58 277.436 1493.7 277.436 1506.11 265.027C1518.52 252.619 1538.64 252.619 1551.05 265.027C1563.45 277.436 1583.57 277.436 1595.98 265.027C1608.39 252.619 1628.51 252.619 1640.91 265.027C1653.32 277.436 1673.44 277.436 1685.85 265.027C1698.26 252.619 1718.38 252.619 1730.78 265.027C1743.19 277.436 1763.31 277.436 1775.72 265.027C1788.13 252.619 1808.24 252.619 1820.65 265.027C1833.06 277.436 1853.18 277.436 1865.59 265.027C1878 252.619 1898.11 252.619 1910.52 265.027C1922.93 277.436 1943.05 277.436 1955.46 265.027C1967.86 252.619 1987.98 252.619 2000.39 265.027C2012.8 277.436 2032.92 277.436 2045.33 265.027C2057.73 252.619 2077.85 252.619 2090.26 265.027C2102.67 277.436 2122.79 277.436 2135.19 265.027C2147.6 252.619 2167.72 252.619 2180.13 265.027C2192.54 277.436 2212.65 277.436 2225.06 265.027C2237.47 252.619 2257.59 252.619 2270 265.027C2282.41 277.436 2302.52 277.436 2314.93 265.027C2327.34 252.619 2347.46 252.619 2359.87 265.027L2382.33 287.495" stroke="#B9F1D6" stroke-linecap="round" stroke-linejoin="round"/>
<path d="M-134 307.429L-111.533 284.962C-99.1244 272.553 -79.0065 272.553 -66.5982 284.962L-66.3982 285.162C-54.2108 297.349 -34.4511 297.349 -22.2637 285.162C-22.1973 285.095 -22.1312 285.029 -22.0655 284.962C-9.88099 272.555 10.0538 272.376 22.4601 284.56L22.4637 284.564L23.0727 285.162C35.6228 297.491 55.765 297.402 68.2054 284.962C80.6138 272.553 100.732 272.553 113.14 284.962C125.548 297.37 145.666 297.37 158.075 284.962C170.483 272.553 190.601 272.553 203.009 284.962C215.417 297.37 235.535 297.37 247.944 284.962C260.352 272.553 280.47 272.553 292.878 284.962C305.286 297.37 325.404 297.37 337.813 284.962C350.221 272.553 370.339 272.553 382.747 284.962C395.156 297.37 415.273 297.37 427.682 284.962C440.09 272.553 460.208 272.553 472.616 284.962C485.025 297.37 505.143 297.37 517.551 284.962C529.959 272.553 550.077 272.553 562.485 284.962C574.894 297.37 595.012 297.37 607.42 284.962C619.828 272.553 639.946 272.553 652.354 284.962C664.763 297.37 684.881 297.37 697.289 284.962C709.697 272.553 729.815 272.553 742.224 284.962C754.632 297.37 774.75 297.37 787.158 284.962C799.566 272.553 819.684 272.553 832.093 284.962C844.501 297.37 864.619 297.37 877.027 284.962C889.435 272.553 909.553 272.553 921.962 284.962C934.37 297.37 954.488 297.37 966.896 284.962C979.305 272.553 999.422 272.553 1011.83 284.962C1024.24 297.37 1044.36 297.37 1056.77 284.962C1069.17 272.553 1089.29 272.553 1101.7 284.962C1114.11 297.37 1134.23 297.37 1146.63 284.962C1159.04 272.553 1179.16 272.553 1191.57 284.962C1203.98 297.37 1224.1 297.37 1236.5 284.962C1248.91 272.553 1269.03 272.553 1281.44 284.962C1293.85 297.37 1313.96 297.37 1326.37 284.962C1338.78 272.553 1358.9 272.553 1371.31 284.962C1383.72 297.37 1403.83 297.37 1416.24 284.962C1428.65 272.553 1448.77 272.553 1461.18 284.962C1473.58 297.37 1493.7 297.37 1506.11 284.962C1518.52 272.553 1538.64 272.553 1551.05 284.962C1563.45 297.37 1583.57 297.37 1595.98 284.962C1608.39 272.553 1628.51 272.553 1640.91 284.962C1653.32 297.37 1673.44 297.37 1685.85 284.962C1698.26 272.553 1718.38 272.553 1730.78 284.962C1743.19 297.37 1763.31 297.37 1775.72 284.962C1788.13 272.553 1808.24 272.553 1820.65 284.962C1833.06 297.37 1853.18 297.37 1865.59 284.962C1878 272.553 1898.11 272.553 1910.52 284.962C1922.93 297.37 1943.05 297.37 1955.46 284.962C1967.86 272.553 1987.98 272.553 2000.39 284.962C2012.8 297.37 2032.92 297.37 2045.33 284.962C2057.73 272.553 2077.85 272.553 2090.26 284.962C2102.67 297.37 2122.79 297.37 2135.19 284.962C2147.6 272.553 2167.72 272.553 2180.13 284.962C2192.54 297.37 2212.65 297.37 2225.06 284.962C2237.47 272.553 2257.59 272.553 2270 284.962C2282.41 297.37 2302.52 297.37 2314.93 284.962C2327.34 272.553 2347.46 272.553 2359.87 284.962L2382.33 307.429" stroke="#B9F1D6" stroke-linecap="round" stroke-linejoin="round"/>
<path d="M-134 327.364L-111.533 304.896C-99.1244 292.488 -79.0065 292.488 -66.5982 304.896L-66.3982 305.096C-54.2108 317.284 -34.4511 317.284 -22.2637 305.096C-22.1973 305.03 -22.1312 304.963 -22.0655 304.896C-9.88099 292.49 10.0538 292.31 22.4601 304.495L22.4637 304.498L23.0727 305.096C35.6228 317.426 55.765 317.337 68.2054 304.896C80.6138 292.488 100.732 292.488 113.14 304.896C125.548 317.305 145.666 317.305 158.075 304.896C170.483 292.488 190.601 292.488 203.009 304.896C215.417 317.305 235.535 317.305 247.944 304.896C260.352 292.488 280.47 292.488 292.878 304.896C305.286 317.305 325.404 317.305 337.813 304.896C350.221 292.488 370.339 292.488 382.747 304.896C395.156 317.305 415.273 317.305 427.682 304.896C440.09 292.488 460.208 292.488 472.616 304.896C485.025 317.305 505.143 317.305 517.551 304.896C529.959 292.488 550.077 292.488 562.485 304.896C574.894 317.305 595.012 317.305 607.42 304.896C619.828 292.488 639.946 292.488 652.354 304.896C664.763 317.305 684.881 317.305 697.289 304.896C709.697 292.488 729.815 292.488 742.224 304.896C754.632 317.305 774.75 317.305 787.158 304.896C799.566 292.488 819.684 292.488 832.093 304.896C844.501 317.305 864.619 317.305 877.027 304.896C889.435 292.488 909.553 292.488 921.962 304.896C934.37 317.305 954.488 317.305 966.896 304.896C979.305 292.488 999.422 292.488 1011.83 304.896C1024.24 317.305 1044.36 317.305 1056.77 304.896C1069.17 292.488 1089.29 292.488 1101.7 304.896C1114.11 317.305 1134.23 317.305 1146.63 304.896C1159.04 292.488 1179.16 292.488 1191.57 304.896C1203.98 317.305 1224.1 317.305 1236.5 304.896C1248.91 292.488 1269.03 292.488 1281.44 304.896C1293.85 317.305 1313.96 317.305 1326.37 304.896C1338.78 292.488 1358.9 292.488 1371.31 304.896C1383.72 317.305 1403.83 317.305 1416.24 304.896C1428.65 292.488 1448.77 292.488 1461.18 304.896C1473.58 317.305 1493.7 317.305 1506.11 304.896C1518.52 292.488 1538.64 292.488 1551.05 304.896C1563.45 317.305 1583.57 317.305 1595.98 304.896C1608.39 292.488 1628.51 292.488 1640.91 304.896C1653.32 317.305 1673.44 317.305 1685.85 304.896C1698.26 292.488 1718.38 292.488 1730.78 304.896C1743.19 317.305 1763.31 317.305 1775.72 304.896C1788.13 292.488 1808.24 292.488 1820.65 304.896C1833.06 317.305 1853.18 317.305 1865.59 304.896C1878 292.488 1898.11 292.488 1910.52 304.896C1922.93 317.305 1943.05 317.305 1955.46 304.896C1967.86 292.488 1987.98 292.488 2000.39 304.896C2012.8 317.305 2032.92 317.305 2045.33 304.896C2057.73 292.488 2077.85 292.488 2090.26 304.896C2102.67 317.305 2122.79 317.305 2135.19 304.896C2147.6 292.488 2167.72 292.488 2180.13 304.896C2192.54 317.305 2212.65 317.305 2225.06 304.896C2237.47 292.488 2257.59 292.488 2270 304.896C2282.41 317.305 2302.52 317.305 2314.93 304.896C2327.34 292.488 2347.46 292.488 2359.87 304.896L2382.33 327.364" stroke="#B9F1D6" stroke-linecap="round" stroke-linejoin="round"/>
<path d="M-134 347.298L-111.533 324.831C-99.1244 312.423 -79.0065 312.423 -66.5982 324.831L-66.3982 325.031C-54.2108 337.218 -34.4511 337.218 -22.2637 325.031C-22.1973 324.965 -22.1312 324.898 -22.0655 324.831C-9.88099 312.425 10.0538 312.245 22.4601 324.429L22.4637 324.433L23.0727 325.031C35.6228 337.361 55.765 337.271 68.2054 324.831C80.6138 312.423 100.732 312.423 113.14 324.831C125.548 337.239 145.666 337.239 158.075 324.831C170.483 312.423 190.601 312.423 203.009 324.831C215.417 337.239 235.535 337.239 247.944 324.831C260.352 312.423 280.47 312.423 292.878 324.831C305.286 337.239 325.404 337.239 337.813 324.831C350.221 312.423 370.339 312.423 382.747 324.831C395.156 337.239 415.273 337.239 427.682 324.831C440.09 312.423 460.208 312.423 472.616 324.831C485.025 337.239 505.143 337.239 517.551 324.831C529.959 312.423 550.077 312.423 562.485 324.831C574.894 337.239 595.012 337.239 607.42 324.831C619.828 312.423 639.946 312.423 652.354 324.831C664.763 337.239 684.881 337.239 697.289 324.831C709.697 312.423 729.815 312.423 742.224 324.831C754.632 337.239 774.75 337.239 787.158 324.831C799.566 312.423 819.684 312.423 832.093 324.831C844.501 337.239 864.619 337.239 877.027 324.831C889.435 312.423 909.553 312.423 921.962 324.831C934.37 337.239 954.488 337.239 966.896 324.831C979.305 312.423 999.422 312.423 1011.83 324.831C1024.24 337.239 1044.36 337.239 1056.77 324.831C1069.17 312.423 1089.29 312.423 1101.7 324.831C1114.11 337.239 1134.23 337.239 1146.63 324.831C1159.04 312.423 1179.16 312.423 1191.57 324.831C1203.98 337.239 1224.1 337.239 1236.5 324.831C1248.91 312.423 1269.03 312.423 1281.44 324.831C1293.85 337.239 1313.96 337.239 1326.37 324.831C1338.78 312.423 1358.9 312.423 1371.31 324.831C1383.72 337.239 1403.83 337.239 1416.24 324.831C1428.65 312.423 1448.77 312.423 1461.18 324.831C1473.58 337.239 1493.7 337.239 1506.11 324.831C1518.52 312.423 1538.64 312.423 1551.05 324.831C1563.45 337.239 1583.57 337.239 1595.98 324.831C1608.39 312.423 1628.51 312.423 1640.91 324.831C1653.32 337.239 1673.44 337.239 1685.85 324.831C1698.26 312.423 1718.38 312.423 1730.78 324.831C1743.19 337.239 1763.31 337.239 1775.72 324.831C1788.13 312.423 1808.24 312.423 1820.65 324.831C1833.06 337.239 1853.18 337.239 1865.59 324.831C1878 312.423 1898.11 312.423 1910.52 324.831C1922.93 337.239 1943.05 337.239 1955.46 324.831C1967.86 312.423 1987.98 312.423 2000.39 324.831C2012.8 337.239 2032.92 337.239 2045.33 324.831C2057.73 312.423 2077.85 312.423 2090.26 324.831C2102.67 337.239 2122.79 337.239 2135.19 324.831C2147.6 312.423 2167.72 312.423 2180.13 324.831C2192.54 337.239 2212.65 337.239 2225.06 324.831C2237.47 312.423 2257.59 312.423 2270 324.831C2282.41 337.239 2302.52 337.239 2314.93 324.831C2327.34 312.423 2347.46 312.423 2359.87 324.831L2382.33 347.298" stroke="#B9F1D6" stroke-linecap="round" stroke-linejoin="round"/>
<path d="M-134 367.233L-111.533 344.766C-99.1244 332.357 -79.0065 332.357 -66.5982 344.766L-66.3982 344.966C-54.2108 357.153 -34.4511 357.153 -22.2637 344.966C-22.1973 344.899 -22.1312 344.832 -22.0655 344.766C-9.88099 332.359 10.0538 332.179 22.4601 344.364L22.4637 344.367L23.0727 344.966C35.6228 357.295 55.765 357.206 68.2054 344.766C80.6138 332.357 100.732 332.357 113.14 344.766C125.548 357.174 145.666 357.174 158.075 344.766C170.483 332.357 190.601 332.357 203.009 344.766C215.417 357.174 235.535 357.174 247.944 344.766C260.352 332.357 280.47 332.357 292.878 344.766C305.286 357.174 325.404 357.174 337.813 344.766C350.221 332.357 370.339 332.357 382.747 344.766C395.156 357.174 415.273 357.174 427.682 344.766C440.09 332.357 460.208 332.357 472.616 344.766C485.025 357.174 505.143 357.174 517.551 344.766C529.959 332.357 550.077 332.357 562.485 344.766C574.894 357.174 595.012 357.174 607.42 344.766C619.828 332.357 639.946 332.357 652.354 344.766C664.763 357.174 684.881 357.174 697.289 344.766C709.697 332.357 729.815 332.357 742.224 344.766C754.632 357.174 774.75 357.174 787.158 344.766C799.566 332.357 819.684 332.357 832.093 344.766C844.501 357.174 864.619 357.174 877.027 344.766C889.435 332.357 909.553 332.357 921.962 344.766C934.37 357.174 954.488 357.174 966.896 344.766C979.305 332.357 999.422 332.357 1011.83 344.766C1024.24 357.174 1044.36 357.174 1056.77 344.766C1069.17 332.357 1089.29 332.357 1101.7 344.766C1114.11 357.174 1134.23 357.174 1146.63 344.766C1159.04 332.357 1179.16 332.357 1191.57 344.766C1203.98 357.174 1224.1 357.174 1236.5 344.766C1248.91 332.357 1269.03 332.357 1281.44 344.766C1293.85 357.174 1313.96 357.174 1326.37 344.766C1338.78 332.357 1358.9 332.357 1371.31 344.766C1383.72 357.174 1403.83 357.174 1416.24 344.766C1428.65 332.357 1448.77 332.357 1461.18 344.766C1473.58 357.174 1493.7 357.174 1506.11 344.766C1518.52 332.357 1538.64 332.357 1551.05 344.766C1563.45 357.174 1583.57 357.174 1595.98 344.766C1608.39 332.357 1628.51 332.357 1640.91 344.766C1653.32 357.174 1673.44 357.174 1685.85 344.766C1698.26 332.357 1718.38 332.357 1730.78 344.766C1743.19 357.174 1763.31 357.174 1775.72 344.766C1788.13 332.357 1808.24 332.357 1820.65 344.766C1833.06 357.174 1853.18 357.174 1865.59 344.766C1878 332.357 1898.11 332.357 1910.52 344.766C1922.93 357.174 1943.05 357.174 1955.46 344.766C1967.86 332.357 1987.98 332.357 2000.39 344.766C2012.8 357.174 2032.92 357.174 2045.33 344.766C2057.73 332.357 2077.85 332.357 2090.26 344.766C2102.67 357.174 2122.79 357.174 2135.19 344.766C2147.6 332.357 2167.72 332.357 2180.13 344.766C2192.54 357.174 2212.65 357.174 2225.06 344.766C2237.47 332.357 2257.59 332.357 2270 344.766C2282.41 357.174 2302.52 357.174 2314.93 344.766C2327.34 332.357 2347.46 332.357 2359.87 344.766L2382.33 367.233" stroke="#B9F1D6" stroke-linecap="round" stroke-linejoin="round"/>
<path d="M-134 387.167L-111.533 364.7C-99.1244 352.292 -79.0065 352.292 -66.5982 364.7L-66.3982 364.9C-54.2108 377.088 -34.4511 377.088 -22.2637 364.9C-22.1973 364.834 -22.1312 364.767 -22.0655 364.7C-9.88099 352.294 10.0538 352.114 22.4601 364.298L22.4637 364.302L23.0727 364.9C35.6228 377.23 55.765 377.14 68.2054 364.7C80.6138 352.292 100.732 352.292 113.14 364.7C125.548 377.108 145.666 377.108 158.075 364.7C170.483 352.292 190.601 352.292 203.009 364.7C215.417 377.108 235.535 377.108 247.944 364.7C260.352 352.292 280.47 352.292 292.878 364.7C305.286 377.108 325.404 377.108 337.813 364.7C350.221 352.292 370.339 352.292 382.747 364.7C395.156 377.108 415.273 377.108 427.682 364.7C440.09 352.292 460.208 352.292 472.616 364.7C485.025 377.108 505.143 377.108 517.551 364.7C529.959 352.292 550.077 352.292 562.485 364.7C574.894 377.108 595.012 377.108 607.42 364.7C619.828 352.292 639.946 352.292 652.354 364.7C664.763 377.108 684.881 377.108 697.289 364.7C709.697 352.292 729.815 352.292 742.224 364.7C754.632 377.108 774.75 377.108 787.158 364.7C799.566 352.292 819.684 352.292 832.093 364.7C844.501 377.108 864.619 377.108 877.027 364.7C889.435 352.292 909.553 352.292 921.962 364.7C934.37 377.108 954.488 377.108 966.896 364.7C979.305 352.292 999.422 352.292 1011.83 364.7C1024.24 377.108 1044.36 377.108 1056.77 364.7C1069.17 352.292 1089.29 352.292 1101.7 364.7C1114.11 377.108 1134.23 377.108 1146.63 364.7C1159.04 352.292 1179.16 352.292 1191.57 364.7C1203.98 377.108 1224.1 377.108 1236.5 364.7C1248.91 352.292 1269.03 352.292 1281.44 364.7C1293.85 377.108 1313.96 377.108 1326.37 364.7C1338.78 352.292 1358.9 352.292 1371.31 364.7C1383.72 377.108 1403.83 377.108 1416.24 364.7C1428.65 352.292 1448.77 352.292 1461.18 364.7C1473.58 377.108 1493.7 377.108 1506.11 364.7C1518.52 352.292 1538.64 352.292 1551.05 364.7C1563.45 377.108 1583.57 377.108 1595.98 364.7C1608.39 352.292 1628.51 352.292 1640.91 364.7C1653.32 377.108 1673.44 377.108 1685.85 364.7C1698.26 352.292 1718.38 352.292 1730.78 364.7C1743.19 377.108 1763.31 377.108 1775.72 364.7C1788.13 352.292 1808.24 352.292 1820.65 364.7C1833.06 377.108 1853.18 377.108 1865.59 364.7C1878 352.292 1898.11 352.292 1910.52 364.7C1922.93 377.108 1943.05 377.108 1955.46 364.7C1967.86 352.292 1987.98 352.292 2000.39 364.7C2012.8 377.108 2032.92 377.108 2045.33 364.7C2057.73 352.292 2077.85 352.292 2090.26 364.7C2102.67 377.108 2122.79 377.108 2135.19 364.7C2147.6 352.292 2167.72 352.292 2180.13 364.7C2192.54 377.108 2212.65 377.108 2225.06 364.7C2237.47 352.292 2257.59 352.292 2270 364.7C2282.41 377.108 2302.52 377.108 2314.93 364.7C2327.34 352.292 2347.46 352.292 2359.87 364.7L2382.33 387.167" stroke="#B9F1D6" stroke-linecap="round" stroke-linejoin="round"/>
<path d="M-134 407.102L-111.533 384.634C-99.1244 372.226 -79.0065 372.226 -66.5982 384.634L-66.3982 384.834C-54.2108 397.022 -34.4511 397.022 -22.2637 384.834C-22.1973 384.768 -22.1312 384.701 -22.0655 384.634C-9.88099 372.228 10.0538 372.048 22.4601 384.233L22.4637 384.236L23.0727 384.834C35.6228 397.164 55.765 397.075 68.2054 384.634C80.6138 372.226 100.732 372.226 113.14 384.634C125.548 397.043 145.666 397.043 158.075 384.634C170.483 372.226 190.601 372.226 203.009 384.634C215.417 397.043 235.535 397.043 247.944 384.634C260.352 372.226 280.47 372.226 292.878 384.634C305.286 397.043 325.404 397.043 337.813 384.634C350.221 372.226 370.339 372.226 382.747 384.634C395.156 397.043 415.273 397.043 427.682 384.634C440.09 372.226 460.208 372.226 472.616 384.634C485.025 397.043 505.143 397.043 517.551 384.634C529.959 372.226 550.077 372.226 562.485 384.634C574.894 397.043 595.012 397.043 607.42 384.634C619.828 372.226 639.946 372.226 652.354 384.634C664.763 397.043 684.881 397.043 697.289 384.634C709.697 372.226 729.815 372.226 742.224 384.634C754.632 397.043 774.75 397.043 787.158 384.634C799.566 372.226 819.684 372.226 832.093 384.634C844.501 397.043 864.619 397.043 877.027 384.634C889.435 372.226 909.553 372.226 921.962 384.634C934.37 397.043 954.488 397.043 966.896 384.634C979.305 372.226 999.422 372.226 1011.83 384.634C1024.24 397.043 1044.36 397.043 1056.77 384.634C1069.17 372.226 1089.29 372.226 1101.7 384.634C1114.11 397.043 1134.23 397.043 1146.63 384.634C1159.04 372.226 1179.16 372.226 1191.57 384.634C1203.98 397.043 1224.1 397.043 1236.5 384.634C1248.91 372.226 1269.03 372.226 1281.44 384.634C1293.85 397.043 1313.96 397.043 1326.37 384.634C1338.78 372.226 1358.9 372.226 1371.31 384.634C1383.72 397.043 1403.83 397.043 1416.24 384.634C1428.65 372.226 1448.77 372.226 1461.18 384.634C1473.58 397.043 1493.7 397.043 1506.11 384.634C1518.52 372.226 1538.64 372.226 1551.05 384.634C1563.45 397.043 1583.57 397.043 1595.98 384.634C1608.39 372.226 1628.51 372.226 1640.91 384.634C1653.32 397.043 1673.44 397.043 1685.85 384.634C1698.26 372.226 1718.38 372.226 1730.78 384.634C1743.19 397.043 1763.31 397.043 1775.72 384.634C1788.13 372.226 1808.24 372.226 1820.65 384.634C1833.06 397.043 1853.18 397.043 1865.59 384.634C1878 372.226 1898.11 372.226 1910.52 384.634C1922.93 397.043 1943.05 397.043 1955.46 384.634C1967.86 372.226 1987.98 372.226 2000.39 384.634C2012.8 397.043 2032.92 397.043 2045.33 384.634C2057.73 372.226 2077.85 372.226 2090.26 384.634C2102.67 397.043 2122.79 397.043 2135.19 384.634C2147.6 372.226 2167.72 372.226 2180.13 384.634C2192.54 397.043 2212.65 397.043 2225.06 384.634C2237.47 372.226 2257.59 372.226 2270 384.634C2282.41 397.043 2302.52 397.043 2314.93 384.634C2327.34 372.226 2347.46 372.226 2359.87 384.634L2382.33 407.102" stroke="#B9F1D6" stroke-linecap="round" stroke-linejoin="round"/>
<path d="M-134 427.036L-111.533 404.569C-99.1244 392.161 -79.0065 392.161 -66.5982 404.569L-66.3982 404.769C-54.2108 416.956 -34.4511 416.956 -22.2637 404.769C-22.1973 404.703 -22.1312 404.636 -22.0655 404.569C-9.88099 392.163 10.0538 391.983 22.4601 404.167L22.4637 404.171L23.0727 404.769C35.6228 417.099 55.765 417.009 68.2054 404.569C80.6138 392.161 100.732 392.161 113.14 404.569C125.548 416.977 145.666 416.977 158.075 404.569C170.483 392.161 190.601 392.161 203.009 404.569C215.417 416.977 235.535 416.977 247.944 404.569C260.352 392.161 280.47 392.161 292.878 404.569C305.286 416.977 325.404 416.977 337.813 404.569C350.221 392.161 370.339 392.161 382.747 404.569C395.156 416.977 415.273 416.977 427.682 404.569C440.09 392.161 460.208 392.161 472.616 404.569C485.025 416.977 505.143 416.977 517.551 404.569C529.959 392.161 550.077 392.161 562.485 404.569C574.894 416.977 595.012 416.977 607.42 404.569C619.828 392.161 639.946 392.161 652.354 404.569C664.763 416.977 684.881 416.977 697.289 404.569C709.697 392.161 729.815 392.161 742.224 404.569C754.632 416.977 774.75 416.977 787.158 404.569C799.566 392.161 819.684 392.161 832.093 404.569C844.501 416.977 864.619 416.977 877.027 404.569C889.435 392.161 909.553 392.161 921.962 404.569C934.37 416.977 954.488 416.977 966.896 404.569C979.305 392.161 999.422 392.161 1011.83 404.569C1024.24 416.977 1044.36 416.977 1056.77 404.569C1069.17 392.161 1089.29 392.161 1101.7 404.569C1114.11 416.977 1134.23 416.977 1146.63 404.569C1159.04 392.161 1179.16 392.161 1191.57 404.569C1203.98 416.977 1224.1 416.977 1236.5 404.569C1248.91 392.161 1269.03 392.161 1281.44 404.569C1293.85 416.977 1313.96 416.977 1326.37 404.569C1338.78 392.161 1358.9 392.161 1371.31 404.569C1383.72 416.977 1403.83 416.977 1416.24 404.569C1428.65 392.161 1448.77 392.161 1461.18 404.569C1473.58 416.977 1493.7 416.977 1506.11 404.569C1518.52 392.161 1538.64 392.161 1551.05 404.569C1563.45 416.977 1583.57 416.977 1595.98 404.569C1608.39 392.161 1628.51 392.161 1640.91 404.569C1653.32 416.977 1673.44 416.977 1685.85 404.569C1698.26 392.161 1718.38 392.161 1730.78 404.569C1743.19 416.977 1763.31 416.977 1775.72 404.569C1788.13 392.161 1808.24 392.161 1820.65 404.569C1833.06 416.977 1853.18 416.977 1865.59 404.569C1878 392.161 1898.11 392.161 1910.52 404.569C1922.93 416.977 1943.05 416.977 1955.46 404.569C1967.86 392.161 1987.98 392.161 2000.39 404.569C2012.8 416.977 2032.92 416.977 2045.33 404.569C2057.73 392.161 2077.85 392.161 2090.26 404.569C2102.67 416.977 2122.79 416.977 2135.19 404.569C2147.6 392.161 2167.72 392.161 2180.13 404.569C2192.54 416.977 2212.65 416.977 2225.06 404.569C2237.47 392.161 2257.59 392.161 2270 404.569C2282.41 416.977 2302.52 416.977 2314.93 404.569C2327.34 392.161 2347.46 392.161 2359.87 404.569L2382.33 427.036" stroke="#B9F1D6" stroke-linecap="round" stroke-linejoin="round"/>
<path d="M-134 446.971L-111.533 424.504C-99.1244 412.095 -79.0065 412.095 -66.5982 424.504L-66.3982 424.704C-54.2108 436.891 -34.4511 436.891 -22.2637 424.704C-22.1973 424.637 -22.1312 424.571 -22.0655 424.504C-9.88099 412.097 10.0538 411.917 22.4601 424.102L22.4637 424.105L23.0727 424.704C35.6228 437.033 55.765 436.944 68.2054 424.504C80.6138 412.095 100.732 412.095 113.14 424.504C125.548 436.912 145.666 436.912 158.075 424.504C170.483 412.095 190.601 412.095 203.009 424.504C215.417 436.912 235.535 436.912 247.944 424.504C260.352 412.095 280.47 412.095 292.878 424.504C305.286 436.912 325.404 436.912 337.813 424.504C350.221 412.095 370.339 412.095 382.747 424.504C395.156 436.912 415.273 436.912 427.682 424.504C440.09 412.095 460.208 412.095 472.616 424.504C485.025 436.912 505.143 436.912 517.551 424.504C529.959 412.095 550.077 412.095 562.485 424.504C574.894 436.912 595.012 436.912 607.42 424.504C619.828 412.095 639.946 412.095 652.354 424.504C664.763 436.912 684.881 436.912 697.289 424.504C709.697 412.095 729.815 412.095 742.224 424.504C754.632 436.912 774.75 436.912 787.158 424.504C799.566 412.095 819.684 412.095 832.093 424.504C844.501 436.912 864.619 436.912 877.027 424.504C889.435 412.095 909.553 412.095 921.962 424.504C934.37 436.912 954.488 436.912 966.896 424.504C979.305 412.095 999.422 412.095 1011.83 424.504C1024.24 436.912 1044.36 436.912 1056.77 424.504C1069.17 412.095 1089.29 412.095 1101.7 424.504C1114.11 436.912 1134.23 436.912 1146.63 424.504C1159.04 412.095 1179.16 412.095 1191.57 424.504C1203.98 436.912 1224.1 436.912 1236.5 424.504C1248.91 412.095 1269.03 412.095 1281.44 424.504C1293.85 436.912 1313.96 436.912 1326.37 424.504C1338.78 412.095 1358.9 412.095 1371.31 424.504C1383.72 436.912 1403.83 436.912 1416.24 424.504C1428.65 412.095 1448.77 412.095 1461.18 424.504C1473.58 436.912 1493.7 436.912 1506.11 424.504C1518.52 412.095 1538.64 412.095 1551.05 424.504C1563.45 436.912 1583.57 436.912 1595.98 424.504C1608.39 412.095 1628.51 412.095 1640.91 424.504C1653.32 436.912 1673.44 436.912 1685.85 424.504C1698.26 412.095 1718.38 412.095 1730.78 424.504C1743.19 436.912 1763.31 436.912 1775.72 424.504C1788.13 412.095 1808.24 412.095 1820.65 424.504C1833.06 436.912 1853.18 436.912 1865.59 424.504C1878 412.095 1898.11 412.095 1910.52 424.504C1922.93 436.912 1943.05 436.912 1955.46 424.504C1967.86 412.095 1987.98 412.095 2000.39 424.504C2012.8 436.912 2032.92 436.912 2045.33 424.504C2057.73 412.095 2077.85 412.095 2090.26 424.504C2102.67 436.912 2122.79 436.912 2135.19 424.504C2147.6 412.095 2167.72 412.095 2180.13 424.504C2192.54 436.912 2212.65 436.912 2225.06 424.504C2237.47 412.095 2257.59 412.095 2270 424.504C2282.41 436.912 2302.52 436.912 2314.93 424.504C2327.34 412.095 2347.46 412.095 2359.87 424.504L2382.33 446.971" stroke="#B9F1D6" stroke-linecap="round" stroke-linejoin="round"/>
<path d="M-134 466.905L-111.533 444.438C-99.1244 432.03 -79.0065 432.03 -66.5982 444.438L-66.3982 444.638C-54.2108 456.826 -34.4511 456.826 -22.2637 444.638C-22.1973 444.572 -22.1312 444.505 -22.0655 444.438C-9.88099 432.032 10.0538 431.852 22.4601 444.036L22.4637 444.04L23.0727 444.638C35.6228 456.968 55.765 456.879 68.2054 444.438C80.6138 432.03 100.732 432.03 113.14 444.438C125.548 456.846 145.666 456.846 158.075 444.438C170.483 432.03 190.601 432.03 203.009 444.438C215.417 456.846 235.535 456.846 247.944 444.438C260.352 432.03 280.47 432.03 292.878 444.438C305.286 456.846 325.404 456.846 337.813 444.438C350.221 432.03 370.339 432.03 382.747 444.438C395.156 456.846 415.273 456.846 427.682 444.438C440.09 432.03 460.208 432.03 472.616 444.438C485.025 456.846 505.143 456.846 517.551 444.438C529.959 432.03 550.077 432.03 562.485 444.438C574.894 456.846 595.012 456.846 607.42 444.438C619.828 432.03 639.946 432.03 652.354 444.438C664.763 456.846 684.881 456.846 697.289 444.438C709.697 432.03 729.815 432.03 742.224 444.438C754.632 456.846 774.75 456.846 787.158 444.438C799.566 432.03 819.684 432.03 832.093 444.438C844.501 456.846 864.619 456.846 877.027 444.438C889.435 432.03 909.553 432.03 921.962 444.438C934.37 456.846 954.488 456.846 966.896 444.438C979.305 432.03 999.422 432.03 1011.83 444.438C1024.24 456.846 1044.36 456.846 1056.77 444.438C1069.17 432.03 1089.29 432.03 1101.7 444.438C1114.11 456.846 1134.23 456.846 1146.63 444.438C1159.04 432.03 1179.16 432.03 1191.57 444.438C1203.98 456.846 1224.1 456.846 1236.5 444.438C1248.91 432.03 1269.03 432.03 1281.44 444.438C1293.85 456.846 1313.96 456.846 1326.37 444.438C1338.78 432.03 1358.9 432.03 1371.31 444.438C1383.72 456.846 1403.83 456.846 1416.24 444.438C1428.65 432.03 1448.77 432.03 1461.18 444.438C1473.58 456.846 1493.7 456.846 1506.11 444.438C1518.52 432.03 1538.64 432.03 1551.05 444.438C1563.45 456.846 1583.57 456.846 1595.98 444.438C1608.39 432.03 1628.51 432.03 1640.91 444.438C1653.32 456.846 1673.44 456.846 1685.85 444.438C1698.26 432.03 1718.38 432.03 1730.78 444.438C1743.19 456.846 1763.31 456.846 1775.72 444.438C1788.13 432.03 1808.24 432.03 1820.65 444.438C1833.06 456.846 1853.18 456.846 1865.59 444.438C1878 432.03 1898.11 432.03 1910.52 444.438C1922.93 456.846 1943.05 456.846 1955.46 444.438C1967.86 432.03 1987.98 432.03 2000.39 444.438C2012.8 456.846 2032.92 456.846 2045.33 444.438C2057.73 432.03 2077.85 432.03 2090.26 444.438C2102.67 456.846 2122.79 456.846 2135.19 444.438C2147.6 432.03 2167.72 432.03 2180.13 444.438C2192.54 456.846 2212.65 456.846 2225.06 444.438C2237.47 432.03 2257.59 432.03 2270 444.438C2282.41 456.846 2302.52 456.846 2314.93 444.438C2327.34 432.03 2347.46 432.03 2359.87 444.438L2382.33 466.905" stroke="#B9F1D6" stroke-linecap="round" stroke-linejoin="round"/>
<path d="M-134 486.84L-111.533 464.373C-99.1244 451.964 -79.0065 451.964 -66.5982 464.373L-66.3982 464.573C-54.2108 476.76 -34.4511 476.76 -22.2637 464.573C-22.1973 464.506 -22.1312 464.44 -22.0655 464.373C-9.88099 451.966 10.0538 451.786 22.4601 463.971L22.4637 463.974L23.0727 464.573C35.6228 476.902 55.765 476.813 68.2054 464.373C80.6138 451.964 100.732 451.964 113.14 464.373C125.548 476.781 145.666 476.781 158.075 464.373C170.483 451.964 190.601 451.964 203.009 464.373C215.417 476.781 235.535 476.781 247.944 464.373C260.352 451.964 280.47 451.964 292.878 464.373C305.286 476.781 325.404 476.781 337.813 464.373C350.221 451.964 370.339 451.964 382.747 464.373C395.156 476.781 415.273 476.781 427.682 464.373C440.09 451.964 460.208 451.964 472.616 464.373C485.025 476.781 505.143 476.781 517.551 464.373C529.959 451.964 550.077 451.964 562.485 464.373C574.894 476.781 595.012 476.781 607.42 464.373C619.828 451.964 639.946 451.964 652.354 464.373C664.763 476.781 684.881 476.781 697.289 464.373C709.697 451.964 729.815 451.964 742.224 464.373C754.632 476.781 774.75 476.781 787.158 464.373C799.566 451.964 819.684 451.964 832.093 464.373C844.501 476.781 864.619 476.781 877.027 464.373C889.435 451.964 909.553 451.964 921.962 464.373C934.37 476.781 954.488 476.781 966.896 464.373C979.305 451.964 999.422 451.964 1011.83 464.373C1024.24 476.781 1044.36 476.781 1056.77 464.373C1069.17 451.964 1089.29 451.964 1101.7 464.373C1114.11 476.781 1134.23 476.781 1146.63 464.373C1159.04 451.964 1179.16 451.964 1191.57 464.373C1203.98 476.781 1224.1 476.781 1236.5 464.373C1248.91 451.964 1269.03 451.964 1281.44 464.373C1293.85 476.781 1313.96 476.781 1326.37 464.373C1338.78 451.964 1358.9 451.964 1371.31 464.373C1383.72 476.781 1403.83 476.781 1416.24 464.373C1428.65 451.964 1448.77 451.964 1461.18 464.373C1473.58 476.781 1493.7 476.781 1506.11 464.373C1518.52 451.964 1538.64 451.964 1551.05 464.373C1563.45 476.781 1583.57 476.781 1595.98 464.373C1608.39 451.964 1628.51 451.964 1640.91 464.373C1653.32 476.781 1673.44 476.781 1685.85 464.373C1698.26 451.964 1718.38 451.964 1730.78 464.373C1743.19 476.781 1763.31 476.781 1775.72 464.373C1788.13 451.964 1808.24 451.964 1820.65 464.373C1833.06 476.781 1853.18 476.781 1865.59 464.373C1878 451.964 1898.11 451.964 1910.52 464.373C1922.93 476.781 1943.05 476.781 1955.46 464.373C1967.86 451.964 1987.98 451.964 2000.39 464.373C2012.8 476.781 2032.92 476.781 2045.33 464.373C2057.73 451.964 2077.85 451.964 2090.26 464.373C2102.67 476.781 2122.79 476.781 2135.19 464.373C2147.6 451.964 2167.72 451.964 2180.13 464.373C2192.54 476.781 2212.65 476.781 2225.06 464.373C2237.47 451.964 2257.59 451.964 2270 464.373C2282.41 476.781 2302.52 476.781 2314.93 464.373C2327.34 451.964 2347.46 451.964 2359.87 464.373L2382.33 486.84" stroke="#B9F1D6" stroke-linecap="round" stroke-linejoin="round"/>
<path d="M-134 506.775L-111.533 484.307C-99.1244 471.899 -79.0065 471.899 -66.5982 484.307L-66.3982 484.507C-54.2108 496.695 -34.4511 496.695 -22.2637 484.507C-22.1973 484.441 -22.1312 484.374 -22.0655 484.307C-9.88099 471.901 10.0538 471.721 22.4601 483.906L22.4637 483.909L23.0727 484.507C35.6228 496.837 55.765 496.748 68.2054 484.307C80.6138 471.899 100.732 471.899 113.14 484.307C125.548 496.716 145.666 496.716 158.075 484.307C170.483 471.899 190.601 471.899 203.009 484.307C215.417 496.716 235.535 496.716 247.944 484.307C260.352 471.899 280.47 471.899 292.878 484.307C305.286 496.716 325.404 496.716 337.813 484.307C350.221 471.899 370.339 471.899 382.747 484.307C395.156 496.716 415.273 496.716 427.682 484.307C440.09 471.899 460.208 471.899 472.616 484.307C485.025 496.716 505.143 496.716 517.551 484.307C529.959 471.899 550.077 471.899 562.485 484.307C574.894 496.716 595.012 496.716 607.42 484.307C619.828 471.899 639.946 471.899 652.354 484.307C664.763 496.716 684.881 496.716 697.289 484.307C709.697 471.899 729.815 471.899 742.224 484.307C754.632 496.716 774.75 496.716 787.158 484.307C799.566 471.899 819.684 471.899 832.093 484.307C844.501 496.716 864.619 496.716 877.027 484.307C889.435 471.899 909.553 471.899 921.962 484.307C934.37 496.716 954.488 496.716 966.896 484.307C979.305 471.899 999.422 471.899 1011.83 484.307C1024.24 496.716 1044.36 496.716 1056.77 484.307C1069.17 471.899 1089.29 471.899 1101.7 484.307C1114.11 496.716 1134.23 496.716 1146.63 484.307C1159.04 471.899 1179.16 471.899 1191.57 484.307C1203.98 496.716 1224.1 496.716 1236.5 484.307C1248.91 471.899 1269.03 471.899 1281.44 484.307C1293.85 496.716 1313.96 496.716 1326.37 484.307C1338.78 471.899 1358.9 471.899 1371.31 484.307C1383.72 496.716 1403.83 496.716 1416.24 484.307C1428.65 471.899 1448.77 471.899 1461.18 484.307C1473.58 496.716 1493.7 496.716 1506.11 484.307C1518.52 471.899 1538.64 471.899 1551.05 484.307C1563.45 496.716 1583.57 496.716 1595.98 484.307C1608.39 471.899 1628.51 471.899 1640.91 484.307C1653.32 496.716 1673.44 496.716 1685.85 484.307C1698.26 471.899 1718.38 471.899 1730.78 484.307C1743.19 496.716 1763.31 496.716 1775.72 484.307C1788.13 471.899 1808.24 471.899 1820.65 484.307C1833.06 496.716 1853.18 496.716 1865.59 484.307C1878 471.899 1898.11 471.899 1910.52 484.307C1922.93 496.716 1943.05 496.716 1955.46 484.307C1967.86 471.899 1987.98 471.899 2000.39 484.307C2012.8 496.716 2032.92 496.716 2045.33 484.307C2057.73 471.899 2077.85 471.899 2090.26 484.307C2102.67 496.716 2122.79 496.716 2135.19 484.307C2147.6 471.899 2167.72 471.899 2180.13 484.307C2192.54 496.716 2212.65 496.716 2225.06 484.307C2237.47 471.899 2257.59 471.899 2270 484.307C2282.41 496.716 2302.52 496.716 2314.93 484.307C2327.34 471.899 2347.46 471.899 2359.87 484.307L2382.33 506.775" stroke="#B9F1D6" stroke-linecap="round" stroke-linejoin="round"/>
<path d="M-134 526.709L-111.533 504.242C-99.1244 491.833 -79.0065 491.833 -66.5982 504.242L-66.3982 504.442C-54.2108 516.629 -34.4511 516.629 -22.2637 504.442C-22.1973 504.375 -22.1312 504.309 -22.0655 504.242C-9.88099 491.835 10.0538 491.655 22.4601 503.84L22.4637 503.843L23.0727 504.442C35.6228 516.771 55.765 516.682 68.2054 504.242C80.6138 491.833 100.732 491.833 113.14 504.242C125.548 516.65 145.666 516.65 158.075 504.242C170.483 491.833 190.601 491.833 203.009 504.242C215.417 516.65 235.535 516.65 247.944 504.242C260.352 491.833 280.47 491.833 292.878 504.242C305.286 516.65 325.404 516.65 337.813 504.242C350.221 491.833 370.339 491.833 382.747 504.242C395.156 516.65 415.273 516.65 427.682 504.242C440.09 491.833 460.208 491.833 472.616 504.242C485.025 516.65 505.143 516.65 517.551 504.242C529.959 491.833 550.077 491.833 562.485 504.242C574.894 516.65 595.012 516.65 607.42 504.242C619.828 491.833 639.946 491.833 652.354 504.242C664.763 516.65 684.881 516.65 697.289 504.242C709.697 491.833 729.815 491.833 742.224 504.242C754.632 516.65 774.75 516.65 787.158 504.242C799.566 491.833 819.684 491.833 832.093 504.242C844.501 516.65 864.619 516.65 877.027 504.242C889.435 491.833 909.553 491.833 921.962 504.242C934.37 516.65 954.488 516.65 966.896 504.242C979.305 491.833 999.422 491.833 1011.83 504.242C1024.24 516.65 1044.36 516.65 1056.77 504.242C1069.17 491.833 1089.29 491.833 1101.7 504.242C1114.11 516.65 1134.23 516.65 1146.63 504.242C1159.04 491.833 1179.16 491.833 1191.57 504.242C1203.98 516.65 1224.1 516.65 1236.5 504.242C1248.91 491.833 1269.03 491.833 1281.44 504.242C1293.85 516.65 1313.96 516.65 1326.37 504.242C1338.78 491.833 1358.9 491.833 1371.31 504.242C1383.72 516.65 1403.83 516.65 1416.24 504.242C1428.65 491.833 1448.77 491.833 1461.18 504.242C1473.58 516.65 1493.7 516.65 1506.11 504.242C1518.52 491.833 1538.64 491.833 1551.05 504.242C1563.45 516.65 1583.57 516.65 1595.98 504.242C1608.39 491.833 1628.51 491.833 1640.91 504.242C1653.32 516.65 1673.44 516.65 1685.85 504.242C1698.26 491.833 1718.38 491.833 1730.78 504.242C1743.19 516.65 1763.31 516.65 1775.72 504.242C1788.13 491.833 1808.24 491.833 1820.65 504.242C1833.06 516.65 1853.18 516.65 1865.59 504.242C1878 491.833 1898.11 491.833 1910.52 504.242C1922.93 516.65 1943.05 516.65 1955.46 504.242C1967.86 491.833 1987.98 491.833 2000.39 504.242C2012.8 516.65 2032.92 516.65 2045.33 504.242C2057.73 491.833 2077.85 491.833 2090.26 504.242C2102.67 516.65 2122.79 516.65 2135.19 504.242C2147.6 491.833 2167.72 491.833 2180.13 504.242C2192.54 516.65 2212.65 516.65 2225.06 504.242C2237.47 491.833 2257.59 491.833 2270 504.242C2282.41 516.65 2302.52 516.65 2314.93 504.242C2327.34 491.833 2347.46 491.833 2359.87 504.242L2382.33 526.709" stroke="#B9F1D6" stroke-linecap="round" stroke-linejoin="round"/>
<path d="M-134 546.643L-111.533 524.176C-99.1244 511.768 -79.0065 511.768 -66.5982 524.176L-66.3982 524.376C-54.2108 536.564 -34.4511 536.564 -22.2637 524.376C-22.1973 524.31 -22.1312 524.243 -22.0655 524.176C-9.88099 511.77 10.0538 511.59 22.4601 523.774L22.4637 523.778L23.0727 524.376C35.6228 536.706 55.765 536.617 68.2054 524.176C80.6138 511.768 100.732 511.768 113.14 524.176C125.548 536.584 145.666 536.584 158.075 524.176C170.483 511.768 190.601 511.768 203.009 524.176C215.417 536.584 235.535 536.584 247.944 524.176C260.352 511.768 280.47 511.768 292.878 524.176C305.286 536.584 325.404 536.584 337.813 524.176C350.221 511.768 370.339 511.768 382.747 524.176C395.156 536.584 415.273 536.584 427.682 524.176C440.09 511.768 460.208 511.768 472.616 524.176C485.025 536.584 505.143 536.584 517.551 524.176C529.959 511.768 550.077 511.768 562.485 524.176C574.894 536.584 595.012 536.584 607.42 524.176C619.828 511.768 639.946 511.768 652.354 524.176C664.763 536.584 684.881 536.584 697.289 524.176C709.697 511.768 729.815 511.768 742.224 524.176C754.632 536.584 774.75 536.584 787.158 524.176C799.566 511.768 819.684 511.768 832.093 524.176C844.501 536.584 864.619 536.584 877.027 524.176C889.435 511.768 909.553 511.768 921.962 524.176C934.37 536.584 954.488 536.584 966.896 524.176C979.305 511.768 999.422 511.768 1011.83 524.176C1024.24 536.584 1044.36 536.584 1056.77 524.176C1069.17 511.768 1089.29 511.768 1101.7 524.176C1114.11 536.584 1134.23 536.584 1146.63 524.176C1159.04 511.768 1179.16 511.768 1191.57 524.176C1203.98 536.584 1224.1 536.584 1236.5 524.176C1248.91 511.768 1269.03 511.768 1281.44 524.176C1293.85 536.584 1313.96 536.584 1326.37 524.176C1338.78 511.768 1358.9 511.768 1371.31 524.176C1383.72 536.584 1403.83 536.584 1416.24 524.176C1428.65 511.768 1448.77 511.768 1461.18 524.176C1473.58 536.584 1493.7 536.584 1506.11 524.176C1518.52 511.768 1538.64 511.768 1551.05 524.176C1563.45 536.584 1583.57 536.584 1595.98 524.176C1608.39 511.768 1628.51 511.768 1640.91 524.176C1653.32 536.584 1673.44 536.584 1685.85 524.176C1698.26 511.768 1718.38 511.768 1730.78 524.176C1743.19 536.584 1763.31 536.584 1775.72 524.176C1788.13 511.768 1808.24 511.768 1820.65 524.176C1833.06 536.584 1853.18 536.584 1865.59 524.176C1878 511.768 1898.11 511.768 1910.52 524.176C1922.93 536.584 1943.05 536.584 1955.46 524.176C1967.86 511.768 1987.98 511.768 2000.39 524.176C2012.8 536.584 2032.92 536.584 2045.33 524.176C2057.73 511.768 2077.85 511.768 2090.26 524.176C2102.67 536.584 2122.79 536.584 2135.19 524.176C2147.6 511.768 2167.72 511.768 2180.13 524.176C2192.54 536.584 2212.65 536.584 2225.06 524.176C2237.47 511.768 2257.59 511.768 2270 524.176C2282.41 536.584 2302.52 536.584 2314.93 524.176C2327.34 511.768 2347.46 511.768 2359.87 524.176L2382.33 546.643" stroke="#B9F1D6" stroke-linecap="round" stroke-linejoin="round"/>
<path d="M-134 566.578L-111.533 544.111C-99.1244 531.702 -79.0065 531.702 -66.5982 544.111L-66.3982 544.311C-54.2108 556.498 -34.4511 556.498 -22.2637 544.311C-22.1973 544.244 -22.1312 544.178 -22.0655 544.111C-9.88099 531.704 10.0538 531.525 22.4601 543.709L22.4637 543.713L23.0727 544.311C35.6228 556.64 55.765 556.551 68.2054 544.111C80.6138 531.702 100.732 531.702 113.14 544.111C125.548 556.519 145.666 556.519 158.075 544.111C170.483 531.702 190.601 531.702 203.009 544.111C215.417 556.519 235.535 556.519 247.944 544.111C260.352 531.702 280.47 531.702 292.878 544.111C305.286 556.519 325.404 556.519 337.813 544.111C350.221 531.702 370.339 531.702 382.747 544.111C395.156 556.519 415.273 556.519 427.682 544.111C440.09 531.702 460.208 531.702 472.616 544.111C485.025 556.519 505.143 556.519 517.551 544.111C529.959 531.702 550.077 531.702 562.485 544.111C574.894 556.519 595.012 556.519 607.42 544.111C619.828 531.702 639.946 531.702 652.354 544.111C664.763 556.519 684.881 556.519 697.289 544.111C709.697 531.702 729.815 531.702 742.224 544.111C754.632 556.519 774.75 556.519 787.158 544.111C799.566 531.702 819.684 531.702 832.093 544.111C844.501 556.519 864.619 556.519 877.027 544.111C889.435 531.702 909.553 531.702 921.962 544.111C934.37 556.519 954.488 556.519 966.896 544.111C979.305 531.702 999.422 531.702 1011.83 544.111C1024.24 556.519 1044.36 556.519 1056.77 544.111C1069.17 531.702 1089.29 531.702 1101.7 544.111C1114.11 556.519 1134.23 556.519 1146.63 544.111C1159.04 531.702 1179.16 531.702 1191.57 544.111C1203.98 556.519 1224.1 556.519 1236.5 544.111C1248.91 531.702 1269.03 531.702 1281.44 544.111C1293.85 556.519 1313.96 556.519 1326.37 544.111C1338.78 531.702 1358.9 531.702 1371.31 544.111C1383.72 556.519 1403.83 556.519 1416.24 544.111C1428.65 531.702 1448.77 531.702 1461.18 544.111C1473.58 556.519 1493.7 556.519 1506.11 544.111C1518.52 531.702 1538.64 531.702 1551.05 544.111C1563.45 556.519 1583.57 556.519 1595.98 544.111C1608.39 531.702 1628.51 531.702 1640.91 544.111C1653.32 556.519 1673.44 556.519 1685.85 544.111C1698.26 531.702 1718.38 531.702 1730.78 544.111C1743.19 556.519 1763.31 556.519 1775.72 544.111C1788.13 531.702 1808.24 531.702 1820.65 544.111C1833.06 556.519 1853.18 556.519 1865.59 544.111C1878 531.702 1898.11 531.702 1910.52 544.111C1922.93 556.519 1943.05 556.519 1955.46 544.111C1967.86 531.702 1987.98 531.702 2000.39 544.111C2012.8 556.519 2032.92 556.519 2045.33 544.111C2057.73 531.702 2077.85 531.702 2090.26 544.111C2102.67 556.519 2122.79 556.519 2135.19 544.111C2147.6 531.702 2167.72 531.702 2180.13 544.111C2192.54 556.519 2212.65 556.519 2225.06 544.111C2237.47 531.702 2257.59 531.702 2270 544.111C2282.41 556.519 2302.52 556.519 2314.93 544.111C2327.34 531.702 2347.46 531.702 2359.87 544.111L2382.33 566.578" stroke="#B9F1D6" stroke-linecap="round" stroke-linejoin="round"/>
<path d="M-134 586.513L-111.533 564.045C-99.1244 551.637 -79.0065 551.637 -66.5982 564.045L-66.3982 564.245C-54.2108 576.433 -34.4511 576.433 -22.2637 564.245C-22.1973 564.179 -22.1312 564.112 -22.0655 564.045C-9.88099 551.639 10.0538 551.459 22.4601 563.644L22.4637 563.647L23.0727 564.245C35.6228 576.575 55.765 576.486 68.2054 564.045C80.6138 551.637 100.732 551.637 113.14 564.045C125.548 576.454 145.666 576.454 158.075 564.045C170.483 551.637 190.601 551.637 203.009 564.045C215.417 576.454 235.535 576.454 247.944 564.045C260.352 551.637 280.47 551.637 292.878 564.045C305.286 576.454 325.404 576.454 337.813 564.045C350.221 551.637 370.339 551.637 382.747 564.045C395.156 576.454 415.273 576.454 427.682 564.045C440.09 551.637 460.208 551.637 472.616 564.045C485.025 576.454 505.143 576.454 517.551 564.045C529.959 551.637 550.077 551.637 562.485 564.045C574.894 576.454 595.012 576.454 607.42 564.045C619.828 551.637 639.946 551.637 652.354 564.045C664.763 576.454 684.881 576.454 697.289 564.045C709.697 551.637 729.815 551.637 742.224 564.045C754.632 576.454 774.75 576.454 787.158 564.045C799.566 551.637 819.684 551.637 832.093 564.045C844.501 576.454 864.619 576.454 877.027 564.045C889.435 551.637 909.553 551.637 921.962 564.045C934.37 576.454 954.488 576.454 966.896 564.045C979.305 551.637 999.422 551.637 1011.83 564.045C1024.24 576.454 1044.36 576.454 1056.77 564.045C1069.17 551.637 1089.29 551.637 1101.7 564.045C1114.11 576.454 1134.23 576.454 1146.63 564.045C1159.04 551.637 1179.16 551.637 1191.57 564.045C1203.98 576.454 1224.1 576.454 1236.5 564.045C1248.91 551.637 1269.03 551.637 1281.44 564.045C1293.85 576.454 1313.96 576.454 1326.37 564.045C1338.78 551.637 1358.9 551.637 1371.31 564.045C1383.72 576.454 1403.83 576.454 1416.24 564.045C1428.65 551.637 1448.77 551.637 1461.18 564.045C1473.58 576.454 1493.7 576.454 1506.11 564.045C1518.52 551.637 1538.64 551.637 1551.05 564.045C1563.45 576.454 1583.57 576.454 1595.98 564.045C1608.39 551.637 1628.51 551.637 1640.91 564.045C1653.32 576.454 1673.44 576.454 1685.85 564.045C1698.26 551.637 1718.38 551.637 1730.78 564.045C1743.19 576.454 1763.31 576.454 1775.72 564.045C1788.13 551.637 1808.24 551.637 1820.65 564.045C1833.06 576.454 1853.18 576.454 1865.59 564.045C1878 551.637 1898.11 551.637 1910.52 564.045C1922.93 576.454 1943.05 576.454 1955.46 564.045C1967.86 551.637 1987.98 551.637 2000.39 564.045C2012.8 576.454 2032.92 576.454 2045.33 564.045C2057.73 551.637 2077.85 551.637 2090.26 564.045C2102.67 576.454 2122.79 576.454 2135.19 564.045C2147.6 551.637 2167.72 551.637 2180.13 564.045C2192.54 576.454 2212.65 576.454 2225.06 564.045C2237.47 551.637 2257.59 551.637 2270 564.045C2282.41 576.454 2302.52 576.454 2314.93 564.045C2327.34 551.637 2347.46 551.637 2359.87 564.045L2382.33 586.513" stroke="#B9F1D6" stroke-linecap="round" stroke-linejoin="round"/>
<path d="M-134 606.447L-111.533 583.98C-99.1244 571.572 -79.0065 571.572 -66.5982 583.98L-66.3982 584.18C-54.2108 596.367 -34.4511 596.367 -22.2637 584.18C-22.1973 584.114 -22.1312 584.047 -22.0655 583.98C-9.88099 571.574 10.0538 571.394 22.4601 583.578L22.4637 583.582L23.0727 584.18C35.6228 596.51 55.765 596.42 68.2054 583.98C80.6138 571.572 100.732 571.572 113.14 583.98C125.548 596.388 145.666 596.388 158.075 583.98C170.483 571.572 190.601 571.572 203.009 583.98C215.417 596.388 235.535 596.388 247.944 583.98C260.352 571.572 280.47 571.572 292.878 583.98C305.286 596.388 325.404 596.388 337.813 583.98C350.221 571.572 370.339 571.572 382.747 583.98C395.156 596.388 415.273 596.388 427.682 583.98C440.09 571.572 460.208 571.572 472.616 583.98C485.025 596.388 505.143 596.388 517.551 583.98C529.959 571.572 550.077 571.572 562.485 583.98C574.894 596.388 595.012 596.388 607.42 583.98C619.828 571.572 639.946 571.572 652.354 583.98C664.763 596.388 684.881 596.388 697.289 583.98C709.697 571.572 729.815 571.572 742.224 583.98C754.632 596.388 774.75 596.388 787.158 583.98C799.566 571.572 819.684 571.572 832.093 583.98C844.501 596.388 864.619 596.388 877.027 583.98C889.435 571.572 909.553 571.572 921.962 583.98C934.37 596.388 954.488 596.388 966.896 583.98C979.305 571.572 999.422 571.572 1011.83 583.98C1024.24 596.388 1044.36 596.388 1056.77 583.98C1069.17 571.572 1089.29 571.572 1101.7 583.98C1114.11 596.388 1134.23 596.388 1146.63 583.98C1159.04 571.572 1179.16 571.572 1191.57 583.98C1203.98 596.388 1224.1 596.388 1236.5 583.98C1248.91 571.572 1269.03 571.572 1281.44 583.98C1293.85 596.388 1313.96 596.388 1326.37 583.98C1338.78 571.572 1358.9 571.572 1371.31 583.98C1383.72 596.388 1403.83 596.388 1416.24 583.98C1428.65 571.572 1448.77 571.572 1461.18 583.98C1473.58 596.388 1493.7 596.388 1506.11 583.98C1518.52 571.572 1538.64 571.572 1551.05 583.98C1563.45 596.388 1583.57 596.388 1595.98 583.98C1608.39 571.572 1628.51 571.572 1640.91 583.98C1653.32 596.388 1673.44 596.388 1685.85 583.98C1698.26 571.572 1718.38 571.572 1730.78 583.98C1743.19 596.388 1763.31 596.388 1775.72 583.98C1788.13 571.572 1808.24 571.572 1820.65 583.98C1833.06 596.388 1853.18 596.388 1865.59 583.98C1878 571.572 1898.11 571.572 1910.52 583.98C1922.93 596.388 1943.05 596.388 1955.46 583.98C1967.86 571.572 1987.98 571.572 2000.39 583.98C2012.8 596.388 2032.92 596.388 2045.33 583.98C2057.73 571.572 2077.85 571.572 2090.26 583.98C2102.67 596.388 2122.79 596.388 2135.19 583.98C2147.6 571.572 2167.72 571.572 2180.13 583.98C2192.54 596.388 2212.65 596.388 2225.06 583.98C2237.47 571.572 2257.59 571.572 2270 583.98C2282.41 596.388 2302.52 596.388 2314.93 583.98C2327.34 571.572 2347.46 571.572 2359.87 583.98L2382.33 606.447" stroke="#B9F1D6" stroke-linecap="round" stroke-linejoin="round"/>
</g>
</g>
</g>
<defs>
<clipPath id="clip0_5803_32293">
<rect width="1440" height="587" fill="white"/>
</clipPath>
<clipPath id="clip1_5803_32293">
<rect width="1440" height="587" fill="white"/>
</clipPath>
</defs>
</svg>
